<svg width="300" height="600" viewBox="0 0 4280 8022" fill="none" xmlns="http://www.w3.org/2000/svg">
<path d="M4049.99 4187.15C4050.17 4169.64 4039.75 4154.46 4024.34 4146.27C4031.82 4132.33 4036.2 4116.74 4036.37 4100.16C4036.98 4041.13 3985.47 3992.75 3921.33 3992.09C3904.57 3991.92 3888.63 3995.08 3874.18 4000.83C3857.24 3978.91 3829.63 3964.42 3798.21 3964.1C3762.59 3963.73 3731.44 3981.58 3715.09 4008.21C3697.51 3996.57 3676.04 3989.57 3652.76 3989.33C3592.62 3988.72 3543.41 4033.07 3542.84 4088.42C3542.8 4092.56 3543.11 4096.63 3543.6 4100.63C3500.72 4113.73 3469.6 4150.63 3469.15 4194.56C3468.79 4228.82 3487.18 4259.22 3515.49 4277.57C3503.97 4291.8 3497.01 4309.34 3496.81 4328.46C3496.32 4376.41 3538.17 4415.74 3590.28 4416.27C3612.1 4416.49 3632.18 4409.82 3648.29 4398.56C3669.06 4425.99 3703.37 4444.16 3742.46 4444.56C3783.76 4444.98 3820.14 4425.44 3841.05 4395.76C3854.67 4417.68 3880.16 4432.61 3909.55 4432.91C3953.66 4433.36 3989.74 4400.83 3990.16 4360.25C3990.25 4351.15 3988.46 4342.45 3985.25 4334.37C4014.01 4323.5 4034.37 4297.6 4034.68 4267.18C4034.83 4252.78 4030.4 4239.32 4022.72 4227.9C4038.7 4220.16 4049.81 4204.97 4049.99 4187.15Z" fill="white" stroke="#FFA783" stroke-width="26"/>
<path d="M3628.32 4408.97C3616.62 4413.62 3603.85 4416.41 3590.26 4416.27C3538.15 4415.74 3496.3 4376.41 3496.79 4328.46C3496.99 4309.34 3503.95 4291.8 3515.47 4277.57C3487.16 4259.22 3468.77 4228.82 3469.13 4194.56C3469.3 4177.97 3473.87 4162.39 3481.78 4148.72C3450.81 4131.06 3409.79 4134.14 3382.64 4158.6C3380.25 4160.76 3378.11 4163.04 3376.07 4165.38C3346.01 4151.51 3308.52 4155.83 3283.2 4178.65C3263.45 4196.46 3255.77 4221.31 3260.17 4244.65C3245.96 4246.53 3232.28 4252.38 3221.26 4262.32C3193.6 4287.25 3193.18 4328.14 3220.32 4353.63C3231.67 4364.31 3246.08 4370.54 3261.01 4372.4C3256.26 4396.86 3263.96 4422.99 3284.31 4442.11C3305.83 4462.32 3336.15 4469.67 3364.11 4464.2C3358.78 4482.3 3363.66 4502.45 3378.97 4516.86C3401.94 4538.43 3439.52 4538.82 3462.93 4517.72C3468.19 4512.98 3472.21 4507.55 3475.15 4501.75C3496.51 4509.96 3522.01 4506.21 3539.56 4490.4C3547.87 4482.92 3553.21 4473.71 3555.69 4464C3568.55 4467.69 3583.07 4465.09 3593.35 4455.83C3603.44 4446.73 3606.64 4433.71 3603.19 4421.97C3612.18 4419.15 3620.52 4414.54 3628.32 4408.97Z" fill="white" stroke="#FFA783" stroke-width="26"/>
<path d="M4243.27 4286.86C4240.93 4284.65 4238.45 4282.67 4235.89 4280.79C4250.91 4253.15 4246.15 4218.64 4221.3 4195.3C4201.92 4177.09 4174.89 4169.98 4149.53 4174C4147.45 4160.93 4141.1 4148.32 4130.28 4138.17C4103.14 4112.66 4058.71 4112.2 4031.03 4137.15C4029.23 4138.79 4027.73 4140.6 4026.17 4142.37C4025.53 4143.66 4025.01 4145.03 4024.34 4146.29C4039.75 4154.46 4050.17 4169.66 4049.99 4187.17C4049.81 4204.99 4038.7 4220.17 4022.7 4227.9C4030.36 4239.32 4034.81 4252.76 4034.66 4267.18C4034.35 4297.6 4013.99 4323.5 3985.24 4334.37C3988.44 4342.45 3990.23 4351.15 3990.14 4360.25C3989.72 4400.83 3953.64 4433.36 3909.53 4432.91C3899.22 4432.81 3889.42 4430.8 3880.4 4427.42C3881.37 4428.47 3881.92 4429.71 3882.96 4430.68C3891.11 4438.34 3901.12 4443.28 3911.68 4445.59C3907.68 4457.42 3910.53 4470.79 3920.62 4480.26C3930.53 4489.57 3944.69 4492.54 3957.44 4489.37C3961.49 4500.33 3968.09 4510.66 3977.49 4519.48C4010.91 4550.86 4065.58 4551.42 4099.63 4520.73C4108.52 4512.7 4115.07 4503.33 4119.38 4493.31C4140.79 4496.66 4163.55 4490.93 4180.25 4475.89C4199.14 4458.84 4205.32 4434.36 4198.68 4412.43C4214.55 4410.05 4229.82 4403.36 4242.19 4392.2C4274.1 4363.44 4274.58 4316.28 4243.27 4286.86Z" fill="white" stroke="#FFA783" stroke-width="26"/>
<path d="M3957.44 4489.37C3944.69 4492.52 3930.55 4489.57 3920.62 4480.26C3914.72 4474.73 3911.3 4467.84 3910.28 4460.72C3909.7 4456.75 3908.31 4452.92 3906.22 4449.5C3831.86 4519.94 3779.08 4650.56 3779.08 4650.56C3804.36 4569.37 3801.35 4488.07 3794.33 4433.79C3778.67 4440.83 3761.06 4444.75 3742.42 4444.56C3724.26 4444.37 3707.22 4440.22 3692.01 4433.21C3723.8 4542.54 3703.18 4720.21 3703.18 4720.21C3669.32 4587.9 3592.74 4504.61 3556.49 4471.19C3553.85 4473.08 3551.48 4475.28 3549.8 4478.04C3547.12 4482.49 3543.7 4486.66 3539.54 4490.42C3521.99 4506.24 3496.47 4509.98 3475.13 4501.77C3472.19 4507.56 3468.17 4513 3462.92 4517.73C3456.66 4523.37 3449.34 4527.37 3441.61 4529.95C3535.97 4530.91 3642.39 4707.97 3654.43 4895.8C3655.32 4909.61 3667.56 4920.44 3682.33 4920.59L3776.3 4921.55C3790.77 4921.7 3802.94 4911.67 3804.71 4898.24C3814.07 4826.92 3843.76 4528.68 3991.66 4530.2C3986.64 4527.14 3981.86 4523.62 3977.47 4519.51C3968.11 4510.66 3961.49 4500.33 3957.44 4489.37Z" fill="white" stroke="#FFA783" stroke-width="26"/>
<path d="M3781.3 1470.91C3747.77 1479.92 3712.48 1480.63 3678.61 1472.97C3502.19 1433.08 3355.53 1452.68 3363.88 1783.69C3368.15 1953.25 3531.37 2169.94 3697.52 2128.97C3727.32 2121.63 3758.67 2121 3788.74 2127.14C3956.4 2161.4 4110.78 1938.33 4108.24 1768.74C4103.29 1437.68 3955.98 1423.96 3781.3 1470.91Z" fill="white" stroke="#FFA783" stroke-width="26"/>
<path d="M3730.02 1533.75C3721.26 1533.93 3713.87 1527.1 3713.42 1518.28C3709.83 1449.25 3681.55 1363.07 3612.9 1328.22C3604.87 1324.13 3601.65 1314.32 3605.74 1306.27C3609.84 1298.24 3619.62 1295.02 3627.7 1299.1C3708.76 1340.25 3741.97 1438.42 3746.02 1516.58C3746.5 1525.58 3739.58 1533.27 3730.56 1533.73C3730.37 1533.75 3730.2 1533.75 3730.02 1533.75Z" fill="white" stroke="#FFA783" stroke-width="26"/>
<path d="M3729.75 1592.42C3702.33 1592.97 3676.31 1582.8 3656.51 1563.77C3650 1557.53 3649.8 1547.2 3656.05 1540.69C3662.3 1534.18 3672.62 1533.97 3679.13 1540.23C3692.65 1553.22 3710.4 1560.16 3729.09 1559.78C3747.78 1559.41 3765.24 1551.76 3778.21 1538.24C3784.47 1531.73 3794.78 1531.52 3801.29 1537.77C3807.8 1544.01 3808.01 1554.34 3801.76 1560.85C3782.74 1580.66 3757.17 1591.87 3729.75 1592.42Z" fill="white" stroke="#FFA783" stroke-width="26"/>
<path d="M3712.07 1420.49L3720.67 1353.6C3729.75 1282.96 3783.94 1226.55 3854.15 1214.65L3920.63 1203.38L3912.03 1270.27C3902.95 1340.91 3848.76 1397.32 3778.55 1409.22L3712.07 1420.49Z" fill="white" stroke="#FFA783" stroke-width="26"/>
<path d="M2625.72 164.864C2620.94 165.111 2616.06 163.576 2612.17 160.199C2604.16 153.267 2603.28 141.119 2610.23 133.104C2629.07 111.358 2638.45 87.5997 2634.16 72.5894C2631.39 62.943 2622.2 55.6674 2606.84 50.9424C2596.7 47.8322 2591.03 37.0667 2594.14 26.9238C2597.25 16.7809 2608.03 11.1451 2618.16 14.2179C2653.71 25.1683 2666.57 46.2554 2671.08 62.0048C2679.1 90.016 2667.19 125.983 2639.25 158.279C2635.67 162.368 2630.76 164.603 2625.72 164.864Z" fill="white" stroke="#FFA783" stroke-width="26"/>
<path d="M2420.83 317.579C2418.67 326.673 2416.57 336.321 2414.68 347.248C2362.84 646.447 2124.01 815.229 1853.56 983.839C1841.19 991.557 1840.57 1013.42 1852.98 1010.89C2030.98 974.639 2501.56 995.89 2702.8 447.371C2702.8 447.371 2808.25 194.653 2655.09 161.709C2655.11 161.708 2441.18 74.4005 2420.83 317.579Z" fill="white" stroke="#FFA783" stroke-width="26"/>
<path d="M2744.14 345.183C2757.24 266.899 2751.83 174.225 2660.44 154.567C2660.44 154.567 2451.49 69.4637 2413.7 288.792C2461.27 282.695 2524.79 269.773 2541.37 243.161C2541.37 243.161 2585.96 283.359 2567.25 344.873C2567.25 344.873 2656.65 329.938 2645.21 258.406C2645.21 258.406 2702.92 303.08 2692.7 379.598C2692.68 379.599 2718.93 370.144 2744.14 345.183Z" fill="white" stroke="#FFA783" stroke-width="26"/>
<path d="M1905.15 2972.67C1905.15 2853.45 1987.84 2756.97 2090.03 2756.97H2120.85C2223.04 2756.97 2305.73 2853.45 2305.73 2972.67C2305.73 3083.29 2216.06 3172.96 2105.44 3172.96C1994.82 3172.96 1905.15 3083.28 1905.15 2972.67Z" fill="white" stroke="#FFA783" stroke-width="26"/>
<path d="M2305.73 3080.52C2305.73 2961.3 2388.42 2864.82 2490.62 2864.82H2521.43C2623.63 2864.82 2706.32 2961.3 2706.32 3080.52C2706.32 3191.14 2616.65 3280.81 2506.03 3280.81C2395.4 3280.81 2305.73 3191.13 2305.73 3080.52Z" fill="white" stroke="#FFA783" stroke-width="26"/>
<path d="M2567.64 2957.26C2565.11 2957.26 2562.54 2956.63 2560.17 2955.32C2552.74 2951.19 2550.04 2941.81 2554.19 2934.37C2619.33 2817.12 2608.7 2718.4 2508.61 2557.49C2484.23 2727.17 2332.67 2864.39 2206.7 2864.39C2198.19 2864.39 2191.29 2857.48 2191.29 2848.98C2191.29 2840.47 2198.19 2833.57 2206.7 2833.57C2327.69 2833.57 2481.19 2681.43 2481.19 2510.45C2481.19 2503.67 2485.64 2497.67 2492.13 2495.71C2498.62 2493.74 2505.64 2496.26 2509.42 2501.9C2620.05 2667.87 2667.26 2794.28 2581.12 2949.34C2578.3 2954.39 2573.05 2957.26 2567.64 2957.26Z" fill="white" stroke="#FFA783" stroke-width="26"/>
<path d="M2490.62 2502.41C2552.43 2547.72 2646.97 2523.67 2692.28 2461.86C2630.47 2416.53 2535.93 2440.6 2490.62 2502.41Z" fill="white" stroke="#FFA783" stroke-width="26"/>
<path d="M2321.14 2394.84C2332.8 2470.6 2416.66 2520.42 2492.42 2508.76C2480.74 2433 2396.88 2383.18 2321.14 2394.84Z" fill="white" stroke="#FFA783" stroke-width="26"/>
<g clip-path="url(#clip0)">
<path d="M780.95 4221.39C777.553 4221.44 774.148 4220.21 771.505 4217.66C766.233 4212.57 766.083 4204.17 771.187 4198.9L822.971 4145.31C828.049 4140.02 836.461 4139.87 841.735 4144.99C847.007 4150.08 847.157 4158.48 842.053 4163.75L790.269 4217.35C787.737 4219.99 784.361 4221.33 780.95 4221.39Z" fill="white" stroke="#FFA783" stroke-width="26"/>
<path d="M833.878 4238.11C826.553 4238.23 820.511 4232.38 820.392 4225.06L819.249 4154.74C819.129 4147.42 824.978 4141.37 832.303 4141.26C839.628 4141.14 845.669 4146.98 845.789 4154.31L846.932 4224.63C847.051 4231.95 841.203 4237.99 833.878 4238.11Z" fill="white" stroke="#FFA783" stroke-width="26"/>
<path d="M886.234 4219.67C882.837 4219.73 879.419 4218.48 876.776 4215.94L823.276 4164.06C818.003 4158.96 817.88 4150.56 822.984 4145.3C828.088 4140.02 836.475 4139.9 841.748 4145.01L895.248 4196.88C900.521 4201.99 900.644 4210.39 895.54 4215.65C892.994 4218.28 889.631 4219.62 886.234 4219.67Z" fill="white" stroke="#FFA783" stroke-width="26"/>
<path d="M920.761 4183.95C919.899 4183.97 919.022 4183.9 918.143 4183.73L830.129 4167.57C822.914 4166.26 818.142 4159.34 819.472 4152.12C820.788 4144.91 827.718 4140.11 834.921 4141.47L922.935 4157.62C930.15 4158.94 934.922 4165.86 933.593 4173.07C932.435 4179.41 926.959 4183.85 920.761 4183.95Z" fill="white" stroke="#FFA783" stroke-width="26"/>
<path d="M745.256 4185.35C738.886 4185.45 733.185 4180.95 732.004 4174.48C730.679 4167.28 735.451 4160.35 742.664 4159.03L830.153 4142.95C837.353 4141.66 844.279 4146.4 845.605 4153.61C846.93 4160.81 842.158 4167.74 834.945 4169.06L747.456 4185.14C746.714 4185.26 745.972 4185.33 745.256 4185.35Z" fill="white" stroke="#FFA783" stroke-width="26"/>
<path d="M839.093 3488.9L816.697 3500.06C816.697 3500.06 874.026 3756.4 768.517 3906.65C675.203 4039.54 769.318 4169.7 863.853 4168.17L907.379 4167.46C910.166 4167.41 912.941 4166.66 915.694 4167C1035.09 4181.56 1150.86 3943.24 976.304 3777.97C895.78 3696.72 882.389 3634.83 843.91 3505.14L839.093 3488.9Z" fill="white" stroke="#FFA783" stroke-width="26"/>
<path d="M768.504 3906.65C845.46 3797.07 835.793 3631.18 824.932 3549.33C779.173 3653.49 775.965 3692.92 695.153 3754.72C603.817 3819.93 574.049 3914.86 580.558 3995.18C580.299 3999.63 589.375 4174.09 733.634 4169.38C758.297 4168.58 781.43 4161.92 801.776 4150.32C736.273 4110.43 696.362 4009.38 768.504 3906.65Z" fill="white" stroke="#FFA783" stroke-width="26"/>
<path d="M1032.82 3749.23C966.626 3701.95 919.564 3677.8 878.233 3617.61C899.371 3679.23 923.269 3724.45 976.304 3777.96C1126 3919.68 1062.14 4114.99 965.638 4158.61C979.096 4162.6 993.191 4164.92 1007.86 4164.92C1152.21 4164.92 1155.59 3990.26 1155.19 3985.83C1159.07 3905.33 1126.23 3811.43 1032.82 3749.23Z" fill="white" stroke="#FFA783" stroke-width="26"/>
<path d="M579.748 3995.19C573.239 3914.86 603.007 3819.95 694.343 3754.73C734.697 3723.88 755.696 3698.6 772.308 3668.06C726.792 3698.99 667.676 3722.08 623.441 3755.89C532.106 3821.1 472.427 3916.5 478.937 3996.83C478.677 4001.28 477.63 4173.55 661.923 4170.55C673.003 4170.37 683.7 4168.6 694.008 4165.83C586.903 4141.28 579.508 3999.19 579.748 3995.19Z" fill="white" stroke="#FFA783" stroke-width="26"/>
</g>
<path d="M863.81 1333.23C863.893 1333.24 863.986 1333.26 864.069 1333.27L863.625 1333.25C863.69 1333.23 863.75 1333.23 863.81 1333.23C841.893 1332.25 824.666 1318.82 825.311 1303.13C824.665 1318.88 806.271 1330.91 784.236 1330.02C762.192 1329.12 744.831 1315.63 745.478 1299.89C744.831 1315.63 726.437 1327.67 704.402 1326.78C682.358 1325.87 665.012 1312.38 665.644 1296.64C665.055 1311.18 649.288 1322.42 629.534 1323.38C618.077 1352.86 607.844 1389.43 600.195 1435.12C600.195 1435.12 554.896 1613.87 413.724 1745.77C400.674 1757.96 388.305 1770.97 378.366 1785.82C373.907 1792.48 364.777 1808.49 364.777 1808.49C304.114 1920.98 325.249 2064.35 424.414 2153.77C513.452 2234.07 639.255 2247.37 740.496 2197.13C786.951 2174.07 824.508 2136.58 852.078 2092.66C913.466 1994.89 1016.18 1760.52 894.473 1408.06C894.473 1408.06 887.908 1373.24 872.884 1332.31C869.986 1332.96 866.992 1333.33 863.81 1333.23Z" fill="white"/>
<path d="M863.81 1333.23C863.893 1333.24 863.986 1333.26 864.069 1333.27L863.625 1333.25C863.69 1333.23 863.75 1333.23 863.81 1333.23ZM863.81 1333.23C841.893 1332.25 824.666 1318.82 825.311 1303.13C824.665 1318.88 806.271 1330.91 784.236 1330.02C762.192 1329.12 744.831 1315.63 745.478 1299.89C744.831 1315.63 726.437 1327.67 704.402 1326.78C682.358 1325.87 665.012 1312.38 665.644 1296.64C665.055 1311.18 649.288 1322.42 629.534 1323.38C618.077 1352.86 607.844 1389.43 600.195 1435.12C600.195 1435.12 554.896 1613.87 413.724 1745.77C400.674 1757.96 388.305 1770.97 378.366 1785.82C373.907 1792.48 364.777 1808.49 364.777 1808.49C304.114 1920.98 325.249 2064.35 424.414 2153.77C513.452 2234.07 639.255 2247.37 740.496 2197.13C786.951 2174.07 824.508 2136.58 852.078 2092.66C913.466 1994.89 1016.18 1760.52 894.473 1408.06C894.473 1408.06 887.908 1373.24 872.884 1332.31C869.986 1332.96 866.992 1333.33 863.81 1333.23Z" stroke="#FFA783" stroke-width="26"/>
<path d="M757.746 1176.99C749.988 1181.98 739.657 1179.74 734.664 1171.97C729.671 1164.2 731.93 1153.87 739.688 1148.89C766.697 1131.53 783.657 1108.98 783.959 1090.05C784.166 1076.43 775.658 1063.59 758.634 1051.9C751.045 1046.67 749.113 1036.27 754.348 1028.66C759.578 1021.01 769.97 1019.14 777.573 1024.36C810.953 1047.33 817.639 1073.03 817.366 1090.56C816.892 1121 794.606 1153.31 757.746 1176.99Z" fill="#FFA783" stroke="#FFA783" stroke-width="26"/>
<path d="M624.143 1323.49C603.872 1322.65 588.072 1306.28 588.867 1286.91C589.654 1267.52 606.732 1252.48 627.003 1253.31C629.526 1191.29 685.974 1160.37 750.851 1163.02C815.729 1165.67 866.961 1200.97 864.438 1262.98C884.709 1263.82 900.509 1280.19 899.714 1299.56C898.918 1318.94 883.9 1334.07 863.639 1333.25L864.083 1333.26C842.039 1332.35 824.679 1318.87 825.325 1303.12C824.679 1318.87 806.285 1330.9 784.25 1330.01C762.206 1329.11 744.845 1315.62 745.492 1299.88C744.845 1315.62 726.451 1327.66 704.416 1326.77C682.372 1325.86 665.012 1312.38 665.658 1296.63C665.012 1312.38 646.618 1324.41 624.583 1323.52" fill="white"/>
<path d="M624.143 1323.49C603.872 1322.65 588.072 1306.28 588.867 1286.91C589.654 1267.52 606.732 1252.48 627.003 1253.31C629.526 1191.29 685.974 1160.37 750.851 1163.02C815.729 1165.67 866.961 1200.97 864.438 1262.98C884.709 1263.82 900.509 1280.19 899.714 1299.56C898.918 1318.94 883.9 1334.07 863.639 1333.25L864.083 1333.26C842.039 1332.35 824.679 1318.87 825.325 1303.12C824.679 1318.87 806.285 1330.9 784.25 1330.01C762.206 1329.11 744.845 1315.62 745.492 1299.88C744.845 1315.62 726.451 1327.66 704.416 1326.77C682.372 1325.86 665.012 1312.38 665.658 1296.63C665.012 1312.38 646.618 1324.41 624.583 1323.52" stroke="#FFA783" stroke-width="26"/>
<path d="M1113.62 6204.87C1137.94 6210.72 1164.53 6210.59 1192.88 6198.46C1241.62 6177.63 1276.28 6130.25 1277.36 6076.64C1278.58 6016.6 1240.99 5965.39 1188.33 5946.67C1184.63 5892.16 1139.94 5849.09 1085.22 5849.09C1085.06 5849.09 1084.91 5849.11 1084.75 5849.11C1085.72 5840.86 1085.17 5832.13 1082.54 5823.03C1075.14 5797.44 1052.95 5777.81 1026.82 5774.66C1005.4 5772.09 985.735 5779.86 971.95 5793.67C958.871 5781.7 941.684 5774.2 922.63 5774.2C881.81 5774.2 848.721 5807.74 848.721 5849.11C848.721 5849.23 848.752 5849.36 848.752 5849.49C799.134 5853.3 760.023 5895.23 760.023 5946.48C760.023 5954.32 761.027 5961.9 762.752 5969.19C703.693 5971.69 656.537 6020.84 656.537 6081.3C656.537 6101.79 662.026 6120.92 671.482 6137.47C653.338 6152.58 641.765 6175.5 641.765 6201.15C641.765 6237.02 664.425 6267.45 696.009 6278.77C691.932 6425.25 743.51 6511.68 843.295 6628.1C845.082 6630.18 846.886 6632.27 848.705 6634.36C849.097 6634.8 849.489 6635.25 849.881 6635.69C891.376 6682.88 984.966 6646.74 964.831 6586.92C857.33 6267.31 1188.69 6313.51 1188.69 6313.51C1188.69 6313.51 1198.16 6216.84 1112.68 6212.31C1112.79 6209.89 1112.9 6207.46 1113.01 6205.04C1113.23 6205 1113.4 6204.92 1113.62 6204.87Z" fill="white" stroke="#FFA783" stroke-width="26"/>
<path d="M849.897 6635.69C849.505 6635.25 849.113 6634.8 848.721 6634.36C846.902 6632.28 845.098 6630.19 843.31 6628.1C743.51 6511.68 691.932 6425.25 696.025 6278.77C664.441 6267.45 641.78 6237.02 641.78 6201.15C641.78 6175.48 653.354 6152.58 671.498 6137.47C662.057 6120.92 656.553 6101.79 656.553 6081.3C656.553 6020.84 703.709 5971.67 762.767 5969.19C761.042 5961.9 760.039 5954.32 760.039 5946.48C760.039 5905.76 784.754 5871.02 819.772 5856.5C817.451 5848.79 814.502 5841.02 810.629 5833.25C791.309 5794.45 757.31 5770.09 726.275 5775.2C700.698 5779.42 682.805 5800.57 675.105 5829.02C653.652 5814.38 629.846 5808.69 608.346 5816.37C562.257 5832.82 547.719 5899.98 574.112 5962.18C574.191 5962.38 574.3 5962.53 574.379 5962.72C524.416 5986.91 511.133 6058.83 542.811 6123.7C547.437 6133.16 552.816 6141.85 558.681 6149.88C503.496 6173 488.927 6243.22 523.679 6304.58C534.782 6324.19 549.617 6340.34 566.114 6352.53C558.305 6371.46 559.998 6394.74 572.419 6416.23C589.089 6445.09 620.374 6462.22 649.668 6462.01C701.153 6564.48 764.32 6604.22 859.965 6645.35C860.968 6645.78 861.972 6646.21 862.976 6646.63C858.271 6643.61 853.802 6640.14 849.897 6635.69Z" fill="white" stroke="#FFA783" stroke-width="26"/>
<path d="M887.392 6162.29C888.302 6160.26 888.725 6158.13 888.757 6156.03C900.001 6127.36 913.534 6103.3 927.617 6083.22C997.935 6068.41 1050.99 6090.68 1052.16 6091.19C1054.22 6092.11 1056.35 6092.52 1058.42 6092.52C1064.46 6092.52 1070.21 6088.96 1072.8 6083.02C1076.28 6074.98 1072.66 6065.6 1064.74 6062.07C1062.56 6061.12 1019.29 6042.39 957.084 6046.99C987.475 6014.87 1014.15 6000.29 1018.13 5998.26C1040.92 5987.2 1074.21 6001.5 1085.14 6007.96C1087.64 6009.45 1090.37 6010.15 1093.08 6010.15C1098.44 6010.15 1103.68 6007.35 1106.6 6002.33C1110.99 5994.76 1108.53 5985.04 1101.04 5980.57C1099.26 5979.49 1064 5958.85 1027.89 5962.99C1030.98 5950.11 1037.83 5938.38 1041.33 5933.67C1046.58 5926.71 1045.26 5916.75 1038.38 5911.42C1031.53 5906.1 1021.66 5907.4 1016.41 5914.39C1015.42 5915.68 994.846 5943.33 994.893 5975.17C972.076 5989.33 913.127 6032.26 871.883 6118.52C869.656 6123.16 867.508 6128.15 865.375 6133.16C822.594 6103.52 829.635 6050.79 830.028 6048.23C831.361 6039.58 825.542 6031.46 816.996 6030.08C808.465 6028.7 800.404 6034.61 799.04 6043.27C794.492 6072.11 801.016 6131.55 853.849 6163.48C842.181 6198.26 833.336 6239.77 830.608 6288.77C830.294 6290.31 830.231 6291.8 830.357 6293.33C828.726 6327.67 830.294 6365.77 835.752 6407.49C815.867 6396.39 806.771 6380.17 806.191 6379.07C802.098 6371.36 792.657 6368.42 785.036 6372.49C777.383 6376.57 774.419 6386.19 778.465 6393.96C779.296 6395.57 798.068 6430.74 841.46 6444.33C852.767 6507.2 872.918 6577.79 905.505 6657.02C916.247 6656.3 926.707 6653.43 935.96 6648.76C935.913 6648.63 935.928 6648.49 935.881 6648.34C901.679 6565.87 881.041 6493.23 870.064 6429.04C870.001 6428.65 869.97 6428.29 869.891 6427.92C861.737 6379.77 859.086 6336.49 860.623 6297.73C882.578 6259.79 947.11 6258.27 947.768 6258.25C956.425 6258.11 963.341 6250.91 963.215 6242.14C963.09 6233.43 956.111 6226.47 947.549 6226.47C947.486 6226.47 947.423 6226.47 947.361 6226.47C944.804 6226.5 900.095 6227.48 864.622 6250.02C868.95 6218.55 876.148 6190.68 885.072 6165.91C885.997 6164.82 886.797 6163.63 887.392 6162.29Z" fill="white" stroke="#FFA783" stroke-width="26"/>
<path d="M2272.6 7340.57C2272.6 7340.57 2426.72 7186.72 2580.71 7309.41C2580.71 7309.41 2619.41 7336.36 2604.86 7375.31C2590.54 7413.61 2538.32 7419.55 2504.41 7391.46C2473.82 7366.12 2409.14 7340.55 2272.6 7340.57Z" fill="white" stroke="#FFA783" stroke-width="26"/>
<path d="M2272.6 7340.58C2272.6 7340.58 2337.47 7133.71 2168.72 7064.73C2168.72 7064.73 2111.15 7034.55 2072.65 7060.32C2036.84 7084.27 2049.79 7139.41 2091.29 7150.94C2136.77 7163.59 2205.61 7206.57 2272.6 7340.58Z" fill="white" stroke="#FFA783" stroke-width="26"/>
<path d="M2579.29 7319.74C2579.29 7319.74 2580.59 7320.75 2582.33 7322.17C2585.25 7317.83 2587.99 7313.25 2590.22 7308.14C2610.87 7261.05 2578.57 7236.92 2578.57 7236.92C2452.71 7123.23 2278.83 7325.93 2278.83 7325.93C2289.2 7324.04 2298.97 7322.52 2308.44 7321.14C2363.36 7283.62 2471.32 7233.72 2579.29 7319.74Z" fill="white" stroke="#FFA783" stroke-width="26"/>
<path d="M2168.74 7064.72C2298.91 7117.93 2290.06 7253.13 2279.21 7312.19C2279.56 7313.37 2279.92 7314.42 2280.27 7315.6C2280.27 7315.6 2378.05 7067.7 2228.81 7018.01C2228.81 7018.01 2179.03 6993.46 2137.8 7029.61C2130.72 7035.81 2125.07 7042.95 2120.76 7050.49C2146.68 7053.19 2168.74 7064.72 2168.74 7064.72Z" fill="white" stroke="#FFA783" stroke-width="26"/>
<path d="M2442.12 7036.17C2379.62 7015.08 2324.91 7084.91 2324.91 7084.91C2317.06 7101.32 2310.52 7118.49 2304.87 7135.86C2312.91 7206.63 2287.18 7291.89 2273.5 7330.78C2273.37 7335.73 2273.3 7340.05 2273.27 7343.16C2294.55 7319.38 2357.43 7253.7 2427.84 7222.9C2443 7206.16 2457 7188.45 2468.46 7170.18C2529.9 7072.28 2442.12 7036.17 2442.12 7036.17Z" fill="white" stroke="#FFA783" stroke-width="26"/>
<path d="M2272.6 7340.57C2272.6 7340.57 2426.72 7186.72 2580.71 7309.41C2580.71 7309.41 2619.41 7336.36 2604.86 7375.31C2590.54 7413.61 2538.32 7419.55 2504.41 7391.46C2473.82 7366.12 2409.14 7340.55 2272.6 7340.57Z" fill="white" stroke="#FFA783" stroke-width="26"/>
<path d="M2278.62 7321.7C2276.53 7330.8 2274.88 7336.08 2274.88 7336.08C2274.88 7336.08 2280.73 7330.26 2291.18 7321.85C2287.08 7321.77 2282.94 7321.71 2278.62 7321.7Z" fill="white" stroke="#FFA783" stroke-width="26"/>
<path d="M2397.88 7394.32C2399.68 7375.51 2394.94 7358.51 2386.97 7343.39C2356.37 7338.83 2319.53 7336.06 2274.88 7336.08C2252.82 7291.94 2230.58 7257.83 2209.01 7231.28C2188.15 7229.5 2166.59 7232.47 2147.32 7245.5C2086.85 7286.37 1901.46 7782.02 1884.14 7942.78C1882.51 7957.91 1896.1 7965.97 1908.59 7957.31C2041.47 7865.17 2390.91 7466.96 2397.88 7394.32Z" fill="white" stroke="#FFA783" stroke-width="26"/>
<path d="M1973.69 7793.41C1962.57 7791.2 1951.46 7787.88 1940.67 7783.53C1932.89 7780.38 1924.06 7784.16 1920.93 7791.93C1917.81 7799.69 1921.56 7808.54 1929.33 7811.67C1941.87 7816.73 1954.8 7820.61 1967.77 7823.18C1970.06 7823.63 1972.34 7823.55 1974.48 7823C1979.96 7821.61 1984.44 7817.18 1985.63 7811.25C1987.25 7803.04 1981.9 7795.03 1973.69 7793.41Z" fill="white" stroke="#FFA783" stroke-width="26"/>
<path d="M2357.23 7397.58C2324.21 7393.78 2291.03 7380.27 2258.63 7357.43C2251.78 7352.6 2242.31 7354.25 2237.48 7361.1C2232.65 7367.95 2234.29 7377.42 2241.15 7382.25C2277.74 7408.04 2315.63 7423.36 2353.77 7427.76C2355.65 7427.96 2357.5 7427.84 2359.25 7427.39C2365.18 7425.88 2369.83 7420.84 2370.59 7414.4C2371.53 7406.08 2365.56 7398.55 2357.23 7397.58Z" fill="white" stroke="#FFA783" stroke-width="26"/>
<path d="M2085.92 7343.34C2092.02 7343.37 2097.84 7347.01 2100.13 7353.1C2108.87 7376.43 2129.2 7404.38 2154.93 7414.19C2162.75 7417.18 2166.68 7425.95 2163.68 7433.8C2161.86 7438.58 2157.85 7441.91 2153.23 7443.09C2150.31 7443.83 2147.13 7443.72 2144.08 7442.55C2109.36 7429.3 2085.22 7395.72 2073.86 7368.86" fill="white"/>
<path d="M2085.92 7343.34C2092.02 7343.37 2097.84 7347.01 2100.13 7353.1C2108.87 7376.43 2129.2 7404.38 2154.93 7414.19C2162.75 7417.18 2166.68 7425.95 2163.68 7433.8C2161.86 7438.58 2157.85 7441.91 2153.23 7443.09C2150.31 7443.83 2147.13 7443.72 2144.08 7442.55C2109.36 7429.3 2085.22 7395.72 2073.86 7368.86" stroke="#FFA783" stroke-width="26"/>
<path d="M2144.08 7442.55C2147.12 7443.72 2150.29 7443.83 2153.23 7443.09C2157.85 7441.91 2161.86 7438.58 2163.68 7433.8C2166.66 7425.96 2162.76 7417.2 2154.93 7414.19C2129.21 7404.36 2108.87 7376.42 2100.13 7353.1C2097.84 7347.02 2092.02 7343.37 2085.92 7343.34C2081.97 7351.5 2077.95 7359.95 2073.86 7368.84C2085.22 7395.72 2109.36 7429.3 2144.08 7442.55Z" fill="white" stroke="#FFA783" stroke-width="26"/>
<path d="M2267.9 7588.78C2238.96 7591.36 2198.76 7586 2170.95 7562.25C2164.58 7556.8 2163.84 7547.22 2169.27 7540.84C2174.7 7534.48 2184.3 7533.72 2190.68 7539.16C2211.6 7557.03 2245.88 7561.53 2270.55 7558.05C2277.17 7557.11 2283.22 7560.69 2286.07 7566.34" fill="white"/>
<path d="M2267.9 7588.78C2238.96 7591.36 2198.76 7586 2170.95 7562.25C2164.58 7556.8 2163.84 7547.22 2169.27 7540.84C2174.7 7534.48 2184.3 7533.72 2190.68 7539.16C2211.6 7557.03 2245.88 7561.53 2270.55 7558.05C2277.17 7557.11 2283.22 7560.69 2286.07 7566.34" stroke="#FFA783" stroke-width="26"/>
<path d="M2270.56 7558.05C2245.87 7561.53 2211.6 7557.05 2190.69 7539.16C2184.33 7533.72 2174.71 7534.46 2169.29 7540.84C2163.83 7547.21 2164.58 7556.79 2170.97 7562.25C2198.77 7586 2238.97 7591.36 2267.91 7588.78C2274.11 7581.2 2280.18 7573.74 2286.09 7566.36C2283.24 7560.69 2277.17 7557.12 2270.56 7558.05Z" fill="white" stroke="#FFA783" stroke-width="26"/>
<path d="M2007.96 7527.07C2014.18 7526.96 2020.14 7530.61 2022.46 7536.78C2027.95 7551.44 2040.6 7568.95 2056.47 7575.03C2064.29 7578.02 2068.22 7586.79 2065.22 7594.63C2063.39 7599.42 2059.39 7602.74 2054.78 7603.92C2051.85 7604.67 2048.67 7604.55 2045.62 7603.39C2022.57 7594.58 2006.02 7573.38 1997.32 7555.15" fill="white"/>
<path d="M2007.96 7527.07C2014.18 7526.96 2020.14 7530.61 2022.46 7536.78C2027.95 7551.44 2040.6 7568.95 2056.47 7575.03C2064.29 7578.02 2068.22 7586.79 2065.22 7594.63C2063.39 7599.42 2059.39 7602.74 2054.78 7603.92C2051.85 7604.67 2048.67 7604.55 2045.62 7603.39C2022.57 7594.58 2006.02 7573.38 1997.32 7555.15" stroke="#FFA783" stroke-width="26"/>
<path d="M2045.63 7603.38C2048.67 7604.55 2051.85 7604.67 2054.79 7603.92C2059.41 7602.74 2063.4 7599.42 2065.24 7594.63C2068.22 7586.81 2064.31 7578.03 2056.48 7575.03C2040.6 7568.95 2027.97 7551.45 2022.48 7536.78C2020.16 7530.59 2014.21 7526.93 2007.97 7527.07C2004.4 7536.35 2000.87 7545.71 1997.34 7555.15C2006.03 7573.37 2022.59 7594.58 2045.63 7603.38Z" fill="white" stroke="#FFA783" stroke-width="26"/>
<path d="M2118.36 7759.53C2097.74 7762.01 2067.32 7758.62 2046.48 7740.8C2040.11 7735.34 2039.34 7725.78 2044.78 7719.4C2050.23 7713 2059.82 7712.28 2066.19 7717.7C2079.12 7728.74 2100.53 7731.46 2116.03 7729.27C2124.33 7728.09 2132 7733.88 2133.18 7742.18C2133.25 7742.64 2133.1 7743.09 2133.12 7743.55" fill="white"/>
<path d="M2118.36 7759.53C2097.74 7762.01 2067.32 7758.62 2046.48 7740.8C2040.11 7735.34 2039.34 7725.78 2044.78 7719.4C2050.23 7713 2059.82 7712.28 2066.19 7717.7C2079.12 7728.74 2100.53 7731.46 2116.03 7729.27C2124.33 7728.09 2132 7733.88 2133.18 7742.18C2133.25 7742.64 2133.1 7743.09 2133.12 7743.55" stroke="#FFA783" stroke-width="26"/>
<path d="M2116.04 7729.28C2100.54 7731.48 2079.11 7728.75 2066.19 7717.72C2059.83 7712.28 2050.25 7713.01 2044.79 7719.41C2039.35 7725.78 2040.1 7735.36 2046.48 7740.82C2067.35 7758.64 2097.75 7762.03 2118.37 7759.54C2123.29 7754.27 2128.21 7748.92 2133.13 7743.58C2133.11 7743.12 2133.26 7742.67 2133.19 7742.21C2132.03 7733.9 2124.34 7728.11 2116.04 7729.28Z" fill="white" stroke="#FFA783" stroke-width="26"/>
<path d="M2627.74 5088.15L2049.11 5105.61C2053.93 5265.39 2187.37 5391.01 2347.15 5386.19C2506.94 5381.37 2632.56 5247.92 2627.74 5088.15Z" fill="white" stroke="#FFA783" stroke-width="26"/>
<path d="M2572.63 5089.81L2104.22 5103.94C2108.12 5233.29 2216.14 5334.99 2345.49 5331.08C2474.84 5327.18 2576.53 5219.15 2572.63 5089.81Z" fill="white" stroke="#FFA783" stroke-width="26"/>
<path d="M2352.2 5096.47L2324.65 5097.3L2331.71 5331.5L2359.26 5330.67L2352.2 5096.47Z" fill="white" stroke="#FFA783" stroke-width="26"/>
<path d="M2518.18 5247.17L2347.87 5086.83L2328.98 5106.91L2499.29 5267.24L2518.18 5247.17Z" fill="white" stroke="#FFA783" stroke-width="26"/>
<path d="M2348.47 5106.31L2328.4 5087.42L2168.06 5257.73L2188.13 5276.62L2348.47 5106.31Z" fill="white" stroke="#FFA783" stroke-width="26"/>
<path d="M2522.87 4819.37L2528.17 4813.74C2548.96 4791.66 2547.91 4756.59 2525.82 4735.8C2503.74 4715.01 2468.68 4716.07 2447.89 4738.16L2444.68 4741.56C2316.89 4660.86 2124.78 4699.32 1992.67 4839.64C1860.57 4979.96 1833.76 5174.06 1922.01 5296.76L1918.81 5300.16C1898.02 5322.25 1899.08 5357.31 1921.16 5378.1C1943.24 5398.89 1978.3 5397.83 1999.09 5375.75L2004.4 5370.11C2082.21 5413.41 2181.12 5415.07 2275.48 5379.1C2149.33 5351.04 2053.18 5240.7 2049.11 5105.61L2547.86 5090.56C2578.49 4993.83 2570.97 4894.73 2522.87 4819.37ZM2313.93 4794.51C2308.44 4811.29 2292.36 4816.55 2276.51 4813.47C2284.67 4815.06 2275.29 4813.56 2273.61 4813.46C2271.47 4813.33 2269.33 4813.22 2267.2 4813.26C2266.49 4813.26 2265.8 4813.3 2265.1 4813.32C2264.74 4813.36 2264.4 4813.4 2263.81 4813.45C2261.52 4813.77 2259.24 4814.13 2256.96 4814.54C2241.07 4817.44 2225.27 4807.45 2222 4791.36C2218.82 4775.77 2229.27 4759.28 2245.18 4756.39C2262.24 4753.28 2278.09 4753.81 2294.97 4757.1C2310.88 4760.19 2318.49 4780.59 2313.93 4794.51Z" fill="white" stroke="#FFA783" stroke-width="26"/>
<path d="M3710.56 6408.07L3666.95 6414.55L3632.26 6286.67L3706.89 6269.64L3710.56 6408.07Z" fill="white" stroke="#FFA783" stroke-width="26"/>
<path d="M3803.85 6400C3820.48 6386.57 3833.49 6369.93 3840.8 6349.84C3762.47 6315.32 3735.26 6352.49 3735.26 6352.49C3735.03 6336.74 3723.55 6329.39 3708.42 6326.94L3710.58 6408.06L3666.95 6414.55L3666.93 6414.52L3645.69 6336.19C3637.77 6339.61 3632.35 6343.33 3631.93 6346.41C3631.93 6346.41 3609.26 6306.3 3527.44 6331.39C3532.5 6352.78 3543.72 6371.43 3559.35 6386.98C3494.43 6392.3 3433.95 6410.98 3400.95 6463.71C3549.11 6517.72 3598.29 6447.62 3598.29 6447.62C3601.61 6547.01 3676.47 6580.71 3687.81 6585.42C3699.63 6582.07 3777.92 6557.39 3792.89 6459.07C3792.89 6459.07 3805.14 6532.79 3958.63 6496.55C3928.62 6439.72 3867.88 6412.86 3803.85 6400Z" fill="white" stroke="#FFA783" stroke-width="26"/>
<path d="M3933.03 6502.71C3932.83 6502.43 3932.67 6502.13 3932.46 6501.85C3803.82 6524.07 3792.87 6459.07 3792.87 6459.07C3777.91 6557.39 3699.61 6582.07 3687.8 6585.42C3676.46 6580.71 3601.6 6547.01 3598.28 6447.62C3598.28 6447.62 3557.27 6504.99 3438.71 6475.05C3438.43 6475.29 3438.15 6475.53 3437.85 6475.77C3438.2 6475.85 3438.58 6475.97 3438.91 6476.05C3401.2 6509.76 3379.16 6564.25 3374.2 6648.43C3363.14 6836.6 3537.45 7099.06 3649.74 7105.67C3762.04 7112.28 3965.95 6872.09 3977.03 6683.9C3982.08 6598.15 3965.89 6540.93 3931.1 6503.03C3931.72 6502.94 3932.41 6502.81 3933.03 6502.71Z" fill="white" stroke="#FFA783" stroke-width="26"/>
<path d="M3516.7 6562.86C3515.24 6557.02 3507.13 6556.54 3505.01 6562.17C3505.01 6562.17 3478.19 6638.56 3477.75 6646.06C3477.31 6653.55 3479.81 6660.79 3484.81 6666.41C3489.8 6672.03 3496.68 6675.37 3504.18 6675.81C3511.68 6676.25 3518.91 6673.75 3524.52 6668.75C3530.15 6663.75 3533.49 6656.88 3533.93 6649.36C3534.37 6641.85 3516.7 6562.86 3516.7 6562.86Z" fill="white" stroke="#FFA783" stroke-width="26"/>
<path d="M3686.82 6631.78C3685.37 6625.94 3677.25 6625.46 3675.14 6631.1C3675.14 6631.1 3648.32 6707.48 3647.87 6714.98C3647.43 6722.48 3649.94 6729.71 3654.94 6735.33C3659.92 6740.96 3666.81 6744.29 3674.31 6744.73C3681.81 6745.18 3689.04 6742.67 3694.65 6737.67C3700.28 6732.67 3703.61 6725.8 3704.05 6718.28C3704.49 6710.77 3686.82 6631.78 3686.82 6631.78Z" fill="white" stroke="#FFA783" stroke-width="26"/>
<path d="M3854.24 6582.56C3852.79 6576.72 3844.67 6576.24 3842.56 6581.87C3842.56 6581.87 3815.74 6658.25 3815.3 6665.75C3814.85 6673.25 3817.36 6680.48 3822.36 6686.11C3827.34 6691.73 3834.23 6695.07 3841.73 6695.51C3849.23 6695.95 3856.46 6693.45 3862.07 6688.45C3867.7 6683.45 3871.03 6676.57 3871.47 6669.06C3871.92 6661.55 3854.24 6582.56 3854.24 6582.56Z" fill="white" stroke="#FFA783" stroke-width="26"/>
<path d="M3576.3 6758.01C3574.85 6752.16 3566.74 6751.68 3564.62 6757.32C3564.62 6757.32 3537.8 6833.7 3537.36 6841.2C3536.92 6848.7 3539.42 6855.93 3544.42 6861.55C3549.41 6867.18 3556.29 6870.52 3563.79 6870.96C3571.29 6871.4 3578.52 6868.89 3584.13 6863.89C3589.76 6858.89 3593.09 6852.02 3593.54 6844.51C3593.98 6836.99 3576.3 6758.01 3576.3 6758.01Z" fill="white" stroke="#FFA783" stroke-width="26"/>
<path d="M3671.28 6895.77C3669.83 6889.92 3661.71 6889.44 3659.6 6895.08C3659.6 6895.08 3632.77 6971.46 3632.33 6978.96C3631.89 6986.46 3634.4 6993.69 3639.4 6999.31C3644.38 7004.94 3651.27 7008.28 3658.77 7008.72C3666.27 7009.16 3673.5 7006.65 3679.11 7001.65C3684.73 6996.65 3688.07 6989.78 3688.51 6982.27C3688.95 6974.75 3671.28 6895.77 3671.28 6895.77Z" fill="white" stroke="#FFA783" stroke-width="26"/>
<path d="M3781.77 6769.91C3780.32 6764.07 3772.2 6763.59 3770.09 6769.22C3770.09 6769.22 3743.27 6845.6 3742.83 6853.1C3742.39 6860.6 3744.89 6867.83 3749.89 6873.46C3754.87 6879.08 3761.76 6882.42 3769.26 6882.86C3776.76 6883.3 3783.99 6880.8 3789.6 6875.8C3795.23 6870.8 3798.56 6863.93 3799 6856.41C3799.45 6848.9 3781.77 6769.91 3781.77 6769.91Z" fill="white" stroke="#FFA783" stroke-width="26"/>
<defs>
<clipPath id="clip0">
<rect width="866.524" height="866.524" fill="white" transform="translate(427 3378.09) rotate(-0.931857)"/>
</clipPath>
</defs>
</svg>
