<svg width="4903" height="12348" viewBox="0 0 4903 12348" fill="none" xmlns="http://www.w3.org/2000/svg">
<path d="M4750.39 3999.74V4004.74H4755.39H4898V5339.07H4014.37H4011.76L4010.27 5341.2C3958.94 5414.5 3862.83 5461.28 3759 5461.28C3655.17 5461.28 3559.06 5414.5 3507.73 5341.2L3506.24 5339.07H3503.63H2620V4004.74H2762.61H2767.61V3999.74V3577H3463.77C3574.41 3577 3680.57 3615.49 3755.71 3681.24L3759 3684.12L3762.29 3681.24C3837.43 3615.49 3943.59 3577 4054.23 3577H4750.39V3999.74ZM2836.42 3628.11H2831.42V3633.11V4916.33V4921.33H2836.42H2991.15C3267.55 4921.33 3528.39 5013.28 3718.85 5175.49L3727.1 5182.51V5171.69V4463.03H3790.9V5171.69V5182.51L3799.14 5175.49C3989.65 5013.28 4250.52 4921.33 4526.85 4921.33H4681.58H4686.58V4916.33V3633.11V3628.11H4681.58H4054.23C3952.87 3628.11 3856.07 3666.98 3792.32 3732.39L3790.9 3733.85V3735.88V4391.93H3727.1V3735.88V3733.85L3725.68 3732.39C3661.93 3666.98 3565.13 3628.11 3463.77 3628.11H2836.42ZM2910.23 4972.43H2905.23V4977.43V5099.65V5104.65H2910.23H3133.72C3294.18 5104.65 3454.71 5127.49 3606.27 5171.27L3610.56 5162.39C3439.42 5040.44 3220.96 4972.43 2991.15 4972.43H2910.23ZM4612.77 4977.43V4972.43H4607.77H4526.85C4297.08 4972.43 4078.54 5040.44 3907.37 5162.42L3911.66 5171.3C4063.2 5127.49 4223.82 5104.65 4384.28 5104.65H4607.77H4612.77V5099.65V4977.43ZM4829.19 5287.96H4834.19V5282.96V4060.85V4055.85H4829.19H4755.39H4750.39V4060.85V4972.43H4681.58H4676.58V4977.43V5155.75H4384.28C4173.38 5155.75 3962.23 5197.03 3773.58 5275.11L3773.57 5275.11L3759 5281.16L3744.43 5275.14C3744.42 5275.14 3744.42 5275.13 3744.42 5275.13C3555.77 5197.03 3344.62 5155.75 3133.72 5155.75H2841.42V4977.43V4972.43H2836.42H2767.61V4060.85V4055.85H2762.61H2688.81H2683.81V4060.85V5282.96V5287.96H2688.81H3546.28L3554.87 5302.86C3592.46 5368.36 3672.74 5410.17 3759 5410.17C3845.26 5410.17 3925.54 5368.36 3963.17 5302.86L3971.73 5287.96H4829.19Z" fill="#FFA783" stroke="#FFA783" stroke-width="10"/>
<path d="M3155.56 4741.42L3155.56 4741.41L3034.4 4365.4C3028.77 4347.82 3025.94 4329.79 3025.94 4311.8V4305.27C3025.94 4235.69 3067.65 4173.75 3132.08 4135.61L3134.81 4134L3134.52 4130.84L3105.67 3820.45C3105.67 3820.45 3105.67 3820.45 3105.67 3820.45C3103.54 3797.48 3113.14 3774.37 3132.44 3757.12L3132.44 3757.12C3151.79 3739.81 3179.43 3729.76 3208.3 3729.76C3265.91 3729.76 3311.16 3768.45 3311.16 3814.07V3816.42V3821.42H3316.16H3334.87C3367.41 3821.42 3397.57 3833.49 3417.64 3854.18C3437.63 3874.82 3444.94 3901.21 3438.13 3926.65L3388.31 4112.29L3387.17 4116.54L3391.25 4118.21C3475.27 4152.6 3532.58 4223.71 3532.58 4305.27V4311.8C3532.58 4329.32 3529.89 4346.87 3524.56 4363.95L3524.53 4363.98L3524.08 4365.36L3402.96 4741.41L3402.96 4741.42C3388.31 4786.98 3337.78 4819.67 3279.26 4819.67C3220.74 4819.67 3170.2 4786.98 3155.56 4741.42ZM3462.34 4352.69L3462.34 4352.68L3462.34 4352.67C3466.58 4339.34 3468.78 4325.57 3468.78 4311.8V4305.27C3468.78 4217.44 3382.83 4147.51 3279.26 4147.51C3188.4 4147.51 3111.45 4201.16 3093.62 4273.52L3092.09 4279.72H3098.47H3274.26V4330.82H3097.32H3091.28L3092.41 4336.75C3093.39 4341.91 3094.49 4347.33 3096.22 4352.71L3096.22 4352.72L3110.94 4398.46L3112.06 4401.93H3115.7H3200.45V4453.03H3135.41H3128.55L3130.65 4459.57L3150.31 4520.67L3151.43 4524.14H3155.07H3274.26V4575.25H3174.75H3167.89L3169.99 4581.78L3217.31 4728.74L3217.31 4728.75C3225.07 4752.7 3250.83 4768.56 3279.26 4768.56C3307.69 4768.56 3333.45 4752.7 3341.21 4728.75L3341.21 4728.74L3462.34 4352.69ZM3321.85 4099.59L3326.22 4100.2L3327.37 4095.93L3375.68 3916.01C3375.68 3916.01 3375.68 3916.01 3375.68 3916C3378.65 3905.05 3375.37 3893.89 3367.22 3885.48C3359.15 3877.12 3347.31 3872.53 3334.87 3872.53H3316.13H3311.13V3877.53V4093.82V4098.23L3315.5 4098.78C3316.04 4098.84 3316.57 4098.91 3317.09 4098.97C3318.71 4099.17 3320.28 4099.37 3321.85 4099.59ZM3169.32 3816.7L3169.32 3816.71L3195.86 4102.01L3196.41 4107.9L3202.12 4106.38C3215.19 4102.9 3228.92 4100.51 3242.96 4098.81L3247.36 4098.28V4093.85V3814.07C3247.36 3794.92 3228.91 3780.87 3208.3 3780.87C3197.56 3780.87 3187.49 3784.45 3179.94 3791.18L3179.94 3791.18C3172.36 3797.96 3168.44 3807.04 3169.32 3816.7Z" fill="#FFA783" stroke="#FFA783" stroke-width="10"/>
<path d="M4174.93 4254.32C4193 4251.37 4206.84 4237.23 4206.84 4219.91V3943.63H4270.64V4061.64V4070.68L4278.3 4065.87C4308.44 4046.97 4345.62 4035.29 4386.35 4035.29H4492.06V4060.85C4492.06 4141.47 4412.45 4208.61 4312.55 4208.61H4275.64H4270.64V4213.61V4219.88C4270.64 4260.41 4236.35 4296.41 4187.61 4304.36L4187.61 4304.36C4065.35 4324.35 3975.42 4414.16 3975.42 4519.14C3975.42 4581.77 4007.83 4641.35 4063.72 4682.68C4120.32 4724.56 4193.43 4743.87 4269.39 4736.53C4387.1 4725.55 4484.56 4646.93 4499.79 4548.29C4515.02 4449.93 4449.88 4356.2 4342.58 4317.91L4365.85 4270.3C4501.43 4317.54 4581.74 4434.13 4563.15 4554.52C4544.49 4675.07 4424.53 4773.52 4276.76 4787.33C4264.34 4788.48 4251.9 4789.06 4239.52 4789.06H4239.51C4158.82 4789.09 4080.62 4764.71 4020.51 4720.25M4174.93 4254.32L4174.12 4249.39L4174.93 4254.32C4174.93 4254.32 4174.93 4254.32 4174.93 4254.32ZM4174.93 4254.32C4021.66 4279.34 3911.61 4391.22 3911.61 4519.14C3911.61 4595.56 3951.14 4668.9 4020.51 4720.25M4020.51 4720.25C4020.51 4720.25 4020.51 4720.25 4020.51 4720.25L4017.58 4724.22L4020.51 4720.25ZM4421.55 4093.37L4424.53 4086.4H4416.95H4386.35C4336.6 4086.4 4293.53 4112.81 4277.36 4150.54L4274.37 4157.51H4281.95H4312.55C4362.3 4157.51 4405.38 4131.1 4421.55 4093.37Z" fill="#FFA783" stroke="#FFA783" stroke-width="10"/>
<path d="M4243.74 4422.57V4371.43C4339.23 4373.58 4415 4437.1 4418.16 4514.14H4354.3C4351.25 4463.83 4302.45 4424.68 4243.74 4422.57Z" fill="#FFA783" stroke="#FFA783" stroke-width="10"/>
<path d="M4317.55 3699.21H4602.77V3750.32H4317.55V3699.21Z" fill="#FFA783" stroke="#FFA783" stroke-width="10"/>
<path d="M4317.55 3821.42H4602.77V3872.53H4317.55V3821.42Z" fill="#FFA783" stroke="#FFA783" stroke-width="10"/>
<path d="M2026.1 11784.8H1800.98V10976.5C1800.98 10791.5 1724.59 10610 1591.32 10478.6C1461.72 10350.8 1293.48 10282.1 1116.5 10284C749.144 10289 450.259 10591.9 450.259 10959.3V11120.7C348.242 11046.8 209.493 11044.5 110.553 11120.3C46.0186 11169.7 5.98478 11244.5 0.61942 11325.4C-4.74594 11406.6 24.9324 11486 82.338 11543.4C84.3641 11545.4 284.796 11742.5 393.529 11845.1C429.586 11879.1 450.259 11927.2 450.259 11977.1V12047.4V12347.6H1800.98V12047.4V12009.9H2026.1V11784.8V11784.8ZM1725.94 12272.5H525.299V12122.4H1725.94V12272.5ZM1725.94 12047.4H525.299V11977C525.299 11906.7 496.071 11838.6 445.044 11790.5C336.874 11688.4 136.967 11491.8 135.166 11490.1C93.3314 11448.2 71.5698 11390 75.5094 11330.4C79.449 11270.1 108.114 11216.7 156.177 11179.8C237.671 11117.4 356.872 11128.1 433.488 11204.7C438.966 11210.2 445.569 11213.7 452.473 11216.4L583.568 11335.3C590.734 11341.8 599.777 11345 608.781 11345C618.987 11345 629.155 11340.9 636.584 11332.7C650.466 11317.4 649.34 11293.6 633.995 11279.7L523.386 11179.4C524.399 11175.3 525.262 11171.1 525.262 11166.7V10959.3C525.262 10632.7 790.941 10363.4 1117.48 10359.1C1273.11 10356.2 1423.42 10418.4 1538.6 10532C1657.65 10649.4 1725.9 10811.5 1725.9 10976.5V11784.8V12009.9V12047.4H1725.94ZM1951.06 11934.8H1800.98V11859.8H1951.06V11934.8Z" fill="#FFA783"/>
<path d="M1039.58 11645.7L972.348 11578.4L1039.58 11511.1L986.53 11458.1L919.257 11525.3L851.983 11458.1L798.93 11511.1L866.204 11578.4L798.93 11645.7L851.983 11698.7L919.257 11631.5L986.53 11698.7L1039.58 11645.7Z" fill="#FFA783"/>
<path d="M1399.26 11698.7L1452.31 11645.7L1385.07 11578.4L1452.31 11511.1L1399.26 11458.1L1331.98 11525.3L1264.71 11458.1L1211.66 11511.1L1278.93 11578.4L1211.66 11645.7L1264.71 11698.7L1331.98 11631.5L1399.26 11698.7Z" fill="#FFA783"/>
<path d="M836.451 11758.2L769.177 11825.5L701.904 11758.2L648.851 11811.3L716.124 11878.6L648.851 11945.8L701.904 11998.9L769.177 11931.6L836.451 11998.9L889.504 11945.8L822.268 11878.6L889.504 11811.3L836.451 11758.2Z" fill="#FFA783"/>
<path d="M1211.66 11758.2L1144.38 11825.5L1077.11 11758.2L1024.06 11811.3L1091.33 11878.6L1024.06 11945.8L1077.11 11998.9L1144.38 11931.6L1211.66 11998.9L1264.71 11945.8L1197.47 11878.6L1264.71 11811.3L1211.66 11758.2Z" fill="#FFA783"/>
<path d="M1586.85 11758.2L1519.58 11825.5L1452.31 11758.2L1399.25 11811.3L1466.53 11878.6L1399.25 11945.8L1452.31 11998.9L1519.58 11931.6L1586.85 11998.9L1639.91 11945.8L1572.67 11878.6L1639.91 11811.3L1586.85 11758.2Z" fill="#FFA783"/>
<path d="M4692.08 46.8636C4629.66 -15.6337 4527.98 -15.5962 4465.57 46.8261C4443.67 68.7285 4428.81 96.2999 4422.63 126.571C4414.41 166.37 4400.85 216.763 4370.43 256.014C4299.42 204.25 4221.26 177.843 4176.33 222.86L3199.91 1199.32C3154.99 1244.27 3181.34 1322.48 3233.05 1393.47C3193.76 1423.93 3143.43 1437.46 3103.55 1445.64C3073.29 1451.9 3045.75 1466.76 3023.93 1488.62C2993.66 1518.86 2977 1559.1 2977 1601.89C2977 1644.67 2993.66 1684.92 3023.93 1715.15C3055.14 1746.4 3096.2 1762 3137.18 1762C3178.17 1762 3219.23 1746.4 3250.44 1715.19C3272.34 1693.28 3287.2 1665.71 3293.38 1635.44C3301.6 1595.64 3315.16 1545.25 3345.58 1506C3391.23 1539.26 3439.81 1562.19 3480.7 1562.19C3503.39 1562.19 3523.64 1555.19 3539.68 1539.15L4516.09 562.689C4561.01 517.743 4534.67 439.534 4482.96 368.545C4522.25 338.079 4572.57 324.556 4612.45 316.372C4642.72 310.113 4670.25 295.254 4692.07 273.389C4722.34 243.118 4739 202.914 4739 160.126C4739 117.301 4722.35 77.0968 4692.08 46.8636ZM3214.93 1619.3C3211.95 1634.12 3204.6 1647.66 3193.81 1658.45C3162.52 1689.66 3111.84 1689.66 3080.55 1658.45C3065.38 1643.32 3057.09 1623.21 3057.09 1601.82C3057.09 1580.43 3065.38 1560.33 3080.55 1545.2C3091.35 1534.44 3104.88 1527.13 3119.74 1524.04C3167.84 1514.15 3229.39 1497.65 3281.48 1457.48C3241.36 1509.53 3224.86 1571.08 3214.93 1619.3ZM4459.47 506.082L3484.84 1481.18C3471.94 1486.34 3411.71 1467.76 3341.48 1397.53C3271.08 1327.17 3253.09 1266.44 3256.54 1255.92L4231.16 280.826C4232.41 280.357 4234.06 280.12 4236.09 280.12C4255.33 280.12 4311.02 300.964 4374.53 364.475C4444.92 434.83 4462.91 495.563 4459.47 506.082ZM4635.45 216.808C4624.66 227.564 4611.13 234.878 4596.26 237.964C4548.16 247.856 4486.68 264.36 4434.59 304.444C4474.64 252.391 4491.14 190.878 4501.07 142.699C4504.05 127.877 4511.4 114.347 4522.19 103.553C4537.83 87.9504 4558.33 80.1265 4578.82 80.1265C4599.31 80.1265 4619.8 87.9466 4635.44 103.553C4650.62 118.687 4658.91 138.787 4658.91 160.179C4658.91 181.571 4650.55 201.675 4635.45 216.808Z" fill="#FFA783"/>
<path d="M1055.75 6170C676.117 6170 367.249 6478.87 367.249 6858.5C367.249 7238.13 676.117 7547 1055.75 7547C1435.38 7547 1744.25 7238.13 1744.25 6858.5C1744.25 6478.87 1435.38 6170 1055.75 6170ZM1055.75 7460.94C723.603 7460.94 453.314 7190.69 453.314 6858.5C453.314 6526.31 723.603 6256.07 1055.75 6256.07C1387.89 6256.07 1658.18 6526.31 1658.18 6858.5C1658.18 7190.69 1387.89 7460.94 1055.75 7460.94Z" fill="#FFA783"/>
<path d="M1098.78 6385.16C1098.78 6361.37 1079.53 6342.13 1055.75 6342.13C771.004 6342.13 539.374 6573.76 539.374 6858.5C539.374 6882.29 558.621 6901.53 582.406 6901.53C606.192 6901.53 625.439 6882.29 625.439 6858.5C625.439 6621.24 818.49 6428.19 1055.75 6428.19C1079.53 6428.19 1098.78 6408.94 1098.78 6385.16Z" fill="#FFA783"/>
<path d="M1055.75 7288.81C1031.96 7288.81 1012.71 7308.06 1012.71 7331.85C1012.71 7355.63 1031.96 7374.88 1055.75 7374.88C1340.49 7374.88 1572.12 7143.25 1572.12 6858.5C1572.12 6834.72 1552.87 6815.47 1529.09 6815.47C1505.3 6815.47 1486.06 6834.72 1486.06 6858.5C1486.06 7095.76 1293.01 7288.81 1055.75 7288.81Z" fill="#FFA783"/>
<path d="M2045.46 6170C1926.79 6170 1830.31 6266.53 1830.31 6385.15V6858.5C1830.31 6929.69 1888.22 6987.59 1959.4 6987.59H2002.43V7503.97C2002.43 7527.75 2021.68 7547 2045.47 7547C2069.25 7547 2088.5 7527.75 2088.5 7503.97V6213.03C2088.5 6189.25 2069.25 6170 2045.46 6170ZM2002.43 6901.53H1959.4C1935.7 6901.53 1916.37 6882.25 1916.37 6858.5V6385.16C1916.37 6329.06 1952.34 6281.19 2002.43 6263.42V6901.53H2002.43Z" fill="#FFA783"/>
<path d="M367.248 6213.03C367.248 6189.25 348.001 6170 324.215 6170C300.434 6170 281.187 6189.25 281.187 6213.03V6600.31C281.187 6631.76 263.404 6658.13 238.154 6673.15V6213.03C238.154 6189.25 218.907 6170 195.122 6170C171.341 6170 152.094 6189.25 152.094 6213.03V6673.15C126.844 6658.13 109.061 6631.76 109.061 6600.31V6213.03C109.061 6189.25 89.814 6170 66.0285 6170C42.247 6170 23 6189.25 23 6213.03V6600.31C23 6680.29 78.0826 6747.08 152.094 6766.32V7503.97C152.094 7527.75 171.341 7547 195.126 7547C218.911 7547 238.159 7527.75 238.159 7503.97V6766.32C312.169 6747.08 367.252 6680.29 367.252 6600.31V6213.03H367.248Z" fill="#FFA783"/>
<path d="M4356 8539.96C4356 8485.45 4320.53 8439.53 4271.64 8422.77C4272.07 8420.35 4273.08 8418.13 4273.08 8415.58C4273.08 8187 4087.09 8001 3858.5 8001C3629.92 8001 3443.92 8187 3443.92 8415.58C3443.92 8418.13 3444.93 8420.35 3445.36 8422.77C3396.47 8439.53 3361 8485.45 3361 8539.96C3361 8592.92 3394.41 8637.92 3441.14 8655.83L3361 9659.34C3361 9750.8 3435.37 9825.17 3526.83 9825.17H4190.17C4281.62 9825.17 4356 9750.8 4355.88 9656.02L4275.86 8655.84C4322.59 8637.92 4356 8592.92 4356 8539.96ZM3817.87 8088.03C3820.03 8108.9 3837.07 8125.38 3858.5 8125.38C3879.94 8125.38 3896.97 8108.9 3899.13 8088.03C4062.69 8108.34 4190.17 8246.62 4190.17 8415.58H3526.83C3526.83 8246.62 3654.31 8108.34 3817.87 8088.03ZM4190.17 9742.25H3526.83C3481.13 9742.25 3443.92 9705.04 3443.79 9662.65L3523.66 8664.33H4193.34L4273.08 9659.34C4273.08 9705.04 4235.87 9742.25 4190.17 9742.25ZM4231.63 8581.42H3485.38C3462.51 8581.42 3443.92 8562.83 3443.92 8539.96C3443.92 8517.08 3462.5 8498.5 3485.38 8498.5H4231.63C4254.5 8498.5 4273.09 8517.08 4273.09 8539.96C4273.09 8562.84 4254.5 8581.42 4231.63 8581.42Z" fill="#FFA783"/>
<path d="M3775.58 8249.75C3798.48 8249.75 3817.04 8231.19 3817.04 8208.29C3817.04 8185.39 3798.48 8166.83 3775.58 8166.83C3752.69 8166.83 3734.12 8185.39 3734.12 8208.29C3734.12 8231.19 3752.69 8249.75 3775.58 8249.75Z" fill="#FFA783"/>
<path d="M3941.42 8249.75C3964.31 8249.75 3982.88 8231.19 3982.88 8208.29C3982.88 8185.39 3964.31 8166.83 3941.42 8166.83C3918.52 8166.83 3899.96 8185.39 3899.96 8208.29C3899.96 8231.19 3918.52 8249.75 3941.42 8249.75Z" fill="#FFA783"/>
<path d="M3858.5 8913.09H3734.13C3711.21 8913.09 3692.67 8931.63 3692.67 8954.55V9452.05C3692.67 9474.96 3711.21 9493.51 3734.13 9493.51C3757.04 9493.51 3775.59 9474.96 3775.59 9452.05V9244.75H3858.5C3949.96 9244.75 4024.34 9170.38 4024.34 9078.92C4024.34 8987.45 3949.96 8913.09 3858.5 8913.09ZM3858.5 9161.84H3775.59V8996H3858.5C3904.21 8996 3941.42 9033.21 3941.42 9078.92C3941.42 9124.63 3904.21 9161.84 3858.5 9161.84Z" fill="#FFA783"/>
<path d="M671.828 3041.55H710.245C731.48 3041.55 748.663 3023.28 748.663 3000.69C748.663 2978.11 731.48 2959.83 710.245 2959.83H671.828C629.438 2959.83 594.996 2923.16 594.996 2878.11V2837.25C594.996 2814.66 577.813 2796.39 556.579 2796.39C535.344 2796.39 518.161 2814.66 518.161 2837.25V2878.11C518.165 2968.25 587.12 3041.55 671.828 3041.55Z" fill="#FFA783"/>
<path d="M671.828 3041.55H710.245C731.48 3041.55 748.663 3023.28 748.663 3000.69C748.663 2978.11 731.48 2959.83 710.245 2959.83H671.828C629.438 2959.83 594.996 2923.16 594.996 2878.11V2837.25C594.996 2814.66 577.813 2796.39 556.579 2796.39C535.344 2796.39 518.161 2814.66 518.161 2837.25V2878.11C518.165 2968.25 587.12 3041.55 671.828 3041.55Z" stroke="black"/>
<path d="M1901.15 2224.33H1747.49V2183.47C1747.49 2025.77 1626.83 1897.44 1478.57 1897.44H1164.16C1168.47 1884.6 1171.24 1870.98 1171.24 1856.58C1171.24 1788.99 1119.54 1734 1055.99 1734C992.439 1734 940.743 1788.99 940.743 1856.58C940.743 1870.98 943.516 1884.6 947.82 1897.45H633.414C485.149 1897.45 364.498 2025.78 364.498 2183.47V2224.33H210.831C168.441 2224.33 134 2261 134 2306.05V2341.17C134 2409.64 165.964 2473.17 219.536 2511.16L364.498 2613.95V2918.97C364.498 3076.67 485.149 3205 633.414 3205H1478.57C1626.83 3205 1747.49 3076.67 1747.49 2918.97V2613.95L1892.45 2511.16C1946.02 2473.17 1977.98 2409.64 1977.98 2341.17V2306.05C1977.98 2261 1943.55 2224.33 1901.15 2224.33ZM364.498 2515.73L262.153 2443.16C230.038 2420.38 210.831 2382.23 210.831 2341.17V2306.05H364.498V2515.73ZM1055.99 1815.72C1077.15 1815.72 1094.41 1834.04 1094.41 1856.58C1094.41 1879.13 1077.15 1897.45 1055.99 1897.45C1034.83 1897.45 1017.57 1879.13 1017.57 1856.58C1017.57 1834.04 1034.83 1815.72 1055.99 1815.72ZM633.414 1979.17H1478.57C1571.36 1979.17 1648.92 2049.47 1666.77 2142.61H445.212C463.061 2049.47 540.627 1979.17 633.414 1979.17ZM1670.65 2918.97C1670.65 3031.62 1584.52 3123.28 1478.57 3123.28H633.414C527.467 3123.28 441.333 3031.62 441.333 2918.97V2224.33H1670.65V2918.97ZM1901.15 2341.17C1901.15 2382.23 1881.95 2420.38 1849.83 2443.16L1747.49 2515.73V2306.05H1901.15V2341.17Z" fill="#FFA783"/>
<path d="M1901.15 2224.33H1747.49V2183.47C1747.49 2025.77 1626.83 1897.44 1478.57 1897.44H1164.16C1168.47 1884.6 1171.24 1870.98 1171.24 1856.58C1171.24 1788.99 1119.54 1734 1055.99 1734C992.439 1734 940.743 1788.99 940.743 1856.58C940.743 1870.98 943.516 1884.6 947.82 1897.45H633.414C485.149 1897.45 364.498 2025.78 364.498 2183.47V2224.33H210.831C168.441 2224.33 134 2261 134 2306.05V2341.17C134 2409.64 165.964 2473.17 219.536 2511.16L364.498 2613.95V2918.97C364.498 3076.67 485.149 3205 633.414 3205H1478.57C1626.83 3205 1747.49 3076.67 1747.49 2918.97V2613.95L1892.45 2511.16C1946.02 2473.17 1977.98 2409.64 1977.98 2341.17V2306.05C1977.98 2261 1943.55 2224.33 1901.15 2224.33ZM364.498 2515.73L262.153 2443.16C230.038 2420.38 210.831 2382.23 210.831 2341.17V2306.05H364.498V2515.73ZM1055.99 1815.72C1077.15 1815.72 1094.41 1834.04 1094.41 1856.58C1094.41 1879.13 1077.15 1897.45 1055.99 1897.45C1034.83 1897.45 1017.57 1879.13 1017.57 1856.58C1017.57 1834.04 1034.83 1815.72 1055.99 1815.72ZM633.414 1979.17H1478.57C1571.36 1979.17 1648.92 2049.47 1666.77 2142.61H445.212C463.061 2049.47 540.627 1979.17 633.414 1979.17ZM1670.65 2918.97C1670.65 3031.62 1584.52 3123.28 1478.57 3123.28H633.414C527.467 3123.28 441.333 3031.62 441.333 2918.97V2224.33H1670.65V2918.97ZM1901.15 2341.17C1901.15 2382.23 1881.95 2420.38 1849.83 2443.16L1747.49 2515.73V2306.05H1901.15V2341.17Z" stroke="black"/>
</svg>
