<svg width="300" height="500" viewBox="0 0 4427 11634" fill="none" xmlns="http://www.w3.org/2000/svg">
<path d="M3931.57 5546.62C3931.78 5525.68 3919.32 5507.54 3900.9 5497.75C3909.84 5481.1 3915.08 5462.46 3915.29 5442.64C3916.01 5372.08 3854.43 5314.25 3777.76 5313.47C3757.72 5313.26 3738.67 5317.04 3721.39 5323.91C3701.14 5297.72 3668.14 5280.4 3630.57 5280.01C3588 5279.57 3550.75 5300.91 3531.22 5332.74C3510.19 5318.82 3484.53 5310.46 3456.7 5310.17C3384.81 5309.43 3325.98 5362.45 3325.3 5428.61C3325.25 5433.55 3325.63 5438.42 3326.21 5443.2C3274.95 5458.86 3237.74 5502.96 3237.2 5555.46C3236.78 5596.41 3258.77 5632.75 3292.6 5654.69C3278.84 5671.7 3270.51 5692.66 3270.28 5715.51C3269.69 5772.83 3319.71 5819.83 3382.01 5820.47C3408.1 5820.74 3432.11 5812.75 3451.36 5799.29C3476.19 5832.08 3517.2 5853.8 3563.93 5854.28C3613.31 5854.79 3656.8 5831.43 3681.79 5795.96C3698.08 5822.16 3728.54 5840 3763.68 5840.36C3816.41 5840.9 3859.54 5802.01 3860.04 5753.51C3860.15 5742.63 3858.01 5732.23 3854.18 5722.58C3888.55 5709.59 3912.89 5678.63 3913.26 5642.27C3913.44 5625.06 3908.14 5608.97 3898.96 5595.32C3918.06 5586.07 3931.35 5567.91 3931.57 5546.62Z" fill="white" stroke="#FFA783" stroke-width="27"/>
<path d="M3427.48 5811.74C3413.49 5817.3 3398.23 5820.63 3381.98 5820.47C3319.69 5819.83 3269.66 5772.83 3270.25 5715.51C3270.48 5692.66 3278.81 5671.7 3292.58 5654.69C3258.74 5632.75 3236.76 5596.41 3237.18 5555.46C3237.38 5535.64 3242.85 5517.01 3252.3 5500.67C3215.29 5479.56 3166.24 5483.25 3133.79 5512.48C3130.93 5515.06 3128.37 5517.79 3125.94 5520.59C3090 5504.01 3045.19 5509.17 3014.91 5536.45C2991.31 5557.74 2982.13 5587.44 2987.39 5615.34C2970.4 5617.58 2954.04 5624.57 2940.87 5636.45C2907.8 5666.25 2907.3 5715.13 2939.75 5745.6C2953.32 5758.36 2970.54 5765.8 2988.38 5768.03C2982.71 5797.26 2991.92 5828.5 3016.24 5851.35C3041.97 5875.5 3078.21 5884.29 3111.64 5877.75C3105.26 5899.39 3111.11 5923.48 3129.4 5940.69C3156.86 5966.48 3201.79 5966.94 3229.78 5941.72C3236.06 5936.06 3240.86 5929.57 3244.37 5922.64C3269.91 5932.45 3300.4 5927.97 3321.38 5909.07C3331.31 5900.13 3337.69 5889.12 3340.66 5877.52C3356.03 5881.92 3373.39 5878.82 3385.68 5867.75C3397.74 5856.87 3401.56 5841.31 3397.44 5827.28C3408.19 5823.91 3418.16 5818.4 3427.48 5811.74Z" fill="white" stroke="#FFA783" stroke-width="27"/>
<path d="M4162.62 5665.78C4159.81 5663.14 4156.85 5660.77 4153.79 5658.53C4171.75 5625.49 4166.06 5584.25 4136.35 5556.35C4113.19 5534.59 4080.87 5526.09 4050.56 5530.89C4048.07 5515.27 4040.47 5500.19 4027.54 5488.06C3995.1 5457.57 3941.99 5457.03 3908.9 5486.84C3906.74 5488.8 3904.95 5490.97 3903.08 5493.08C3902.33 5494.63 3901.7 5496.26 3900.9 5497.77C3919.31 5507.53 3931.78 5525.7 3931.56 5546.63C3931.34 5567.93 3918.06 5586.08 3898.93 5595.31C3908.1 5608.96 3913.41 5625.03 3913.24 5642.26C3912.86 5678.62 3888.53 5709.58 3854.15 5722.57C3857.98 5732.23 3860.12 5742.62 3860.01 5753.5C3859.51 5802 3816.38 5840.89 3763.65 5840.35C3751.32 5840.23 3739.62 5837.83 3728.83 5833.79C3729.98 5835.04 3730.64 5836.52 3731.89 5837.69C3741.63 5846.84 3753.59 5852.75 3766.22 5855.51C3761.44 5869.65 3764.85 5885.63 3776.91 5896.95C3788.75 5908.08 3805.68 5911.62 3820.93 5907.84C3825.76 5920.94 3833.65 5933.29 3844.89 5943.82C3884.84 5981.33 3950.19 5982 3990.9 5945.32C4001.53 5935.73 4009.36 5924.53 4014.51 5912.54C4040.11 5916.55 4067.32 5909.7 4087.28 5891.72C4109.86 5871.35 4117.24 5842.09 4109.31 5815.87C4128.28 5813.03 4146.54 5805.03 4161.32 5791.7C4199.47 5757.32 4200.05 5700.95 4162.62 5665.78Z" fill="white" stroke="#FFA783" stroke-width="27"/>
<path d="M3820.93 5907.84C3805.68 5911.6 3788.77 5908.08 3776.91 5896.95C3769.86 5890.33 3765.76 5882.11 3764.55 5873.59C3763.85 5868.85 3762.19 5864.27 3759.7 5860.18C3670.8 5944.37 3607.7 6100.5 3607.7 6100.5C3637.93 6003.46 3634.32 5906.28 3625.93 5841.4C3607.22 5849.82 3586.16 5854.5 3563.88 5854.28C3542.18 5854.05 3521.8 5849.09 3503.62 5840.71C3541.62 5971.39 3516.98 6183.75 3516.98 6183.75C3476.49 6025.61 3384.94 5926.05 3341.61 5886.11C3338.46 5888.37 3335.63 5890.99 3333.62 5894.3C3330.42 5899.61 3326.32 5904.6 3321.35 5909.09C3300.38 5928.01 3269.86 5932.47 3244.35 5922.65C3240.84 5929.58 3236.03 5936.08 3229.75 5941.74C3222.27 5948.48 3213.52 5953.25 3204.28 5956.33C3317.08 5957.49 3444.31 6169.12 3458.7 6393.62C3459.76 6410.13 3474.39 6423.07 3492.05 6423.26L3604.38 6424.41C3621.68 6424.59 3636.22 6412.59 3638.34 6396.54C3649.53 6311.29 3685.03 5954.83 3861.84 5956.64C3855.83 5952.98 3850.12 5948.78 3844.87 5943.86C3833.68 5933.29 3825.76 5920.94 3820.93 5907.84Z" fill="white" stroke="#FFA783" stroke-width="27"/>
<path d="M3246.16 1605.39C3213.86 1614.08 3179.87 1614.76 3147.24 1607.38C2977.29 1568.95 2836.01 1587.84 2844.05 1906.7C2848.17 2070.04 3005.4 2278.78 3165.45 2239.31C3194.16 2232.24 3224.36 2231.63 3253.33 2237.55C3414.83 2270.56 3563.56 2055.67 3561.11 1892.3C3556.34 1573.38 3414.44 1560.17 3246.16 1605.39Z" fill="white" stroke="#FFA783" stroke-width="27"/>
<path d="M3196.76 1665.93C3188.32 1666.1 3181.21 1659.53 3180.77 1651.03C3177.31 1584.53 3150.07 1501.51 3083.94 1467.94C3076.2 1464.01 3073.1 1454.55 3077.04 1446.8C3080.99 1439.06 3090.41 1435.96 3098.2 1439.89C3176.28 1479.53 3208.27 1574.1 3212.18 1649.39C3212.63 1658.06 3205.97 1665.47 3197.28 1665.91C3197.09 1665.93 3196.94 1665.93 3196.76 1665.93Z" fill="white" stroke="#FFA783" stroke-width="27"/>
<path d="M3196.5 1722.45C3170.09 1722.98 3145.02 1713.18 3125.95 1694.85C3119.68 1688.84 3119.48 1678.89 3125.51 1672.62C3131.53 1666.35 3141.47 1666.15 3147.74 1672.17C3160.76 1684.68 3177.87 1691.37 3195.87 1691.01C3213.87 1690.65 3230.69 1683.28 3243.19 1670.25C3249.21 1663.98 3259.15 1663.78 3265.42 1669.81C3271.69 1675.82 3271.89 1685.77 3265.87 1692.04C3247.55 1711.12 3222.91 1721.92 3196.5 1722.45Z" fill="white" stroke="#FFA783" stroke-width="27"/>
<path d="M3179.47 1556.82L3187.76 1492.39C3196.5 1424.34 3248.7 1370.01 3316.34 1358.53L3380.38 1347.68L3372.09 1412.12C3363.34 1480.16 3311.15 1534.5 3243.51 1545.97L3179.47 1556.82Z" fill="white" stroke="#FFA783" stroke-width="27"/>
<path d="M2261.13 165.866C2256.35 166.113 2251.46 164.578 2247.58 161.201C2239.56 154.269 2238.68 142.121 2245.64 134.106C2264.47 112.36 2273.86 88.6017 2269.57 73.5914C2266.8 63.945 2257.61 56.6693 2242.25 51.9444C2232.11 48.8342 2226.43 38.0687 2229.54 27.9258C2232.65 17.7828 2243.44 12.1471 2253.56 15.2199C2289.11 26.1702 2301.98 47.2573 2306.48 63.0068C2314.51 91.018 2302.6 126.985 2274.65 159.281C2271.08 163.37 2266.17 165.605 2261.13 165.866Z" fill="white" stroke="#FFA783" stroke-width="27"/>
<path d="M2056.24 318.581C2054.08 327.675 2051.98 337.323 2050.08 348.25C1998.25 647.449 1759.42 816.231 1488.97 984.841C1476.6 992.559 1475.98 1014.42 1488.39 1011.89C1666.38 975.641 2136.96 996.892 2338.2 448.373C2338.2 448.373 2443.66 195.655 2290.49 162.711C2290.51 162.71 2076.58 75.4025 2056.24 318.581Z" fill="white" stroke="#FFA783" stroke-width="27"/>
<path d="M2379.55 346.185C2392.65 267.901 2387.24 175.227 2295.85 155.569C2295.85 155.569 2086.9 70.4657 2049.11 289.794C2096.68 283.697 2160.19 270.775 2176.78 244.163C2176.78 244.163 2221.37 284.361 2202.66 345.875C2202.66 345.875 2292.05 330.94 2280.62 259.408C2280.62 259.408 2338.32 304.081 2328.11 380.6C2328.09 380.601 2354.33 371.146 2379.55 346.185Z" fill="white" stroke="#FFA783" stroke-width="27"/>
<g clip-path="url(#clip0)">
<path d="M1442.3 2401.06C1455.99 2395.43 1458.79 2377.02 1448.13 2366.19C1423.3 2340.98 1453.18 2304.62 1427.08 2296.21C1397.15 2286.55 1384.3 2257.83 1398.38 2232.02C1412.45 2206.21 1399.61 2177.48 1369.68 2167.84C1339.75 2158.18 1385.55 2128.15 1340.98 2103.65C1340.98 2103.65 1313.36 2078.17 1297.99 2105.98L1249.64 2219.24L1061.99 2140.09C877.171 2062.13 668.34 2138.83 595.55 2311.39L483.352 2577.38L765.921 2696.57C952.012 2775.07 1162.29 2697.84 1235.58 2524.09L1309.17 2349.63L1430.02 2401.84C1434.57 2403.03 1438.66 2402.54 1442.3 2401.06Z" fill="white" stroke="#FFA783" stroke-width="27"/>
<path d="M967.677 2113.99C974.137 2080.26 974.655 2040.83 962.743 1996.17C962.743 1996.17 798.149 2001.84 813.391 2123.42C862.275 2109.7 914.821 2106.23 967.677 2113.99Z" fill="white" stroke="#FFA783" stroke-width="27"/>
<path d="M1204.94 2579.95C1173.57 2626.03 1131.15 2662.34 1082.25 2687.43C1128.03 2712.75 1200.23 2738.03 1290.07 2720.22C1290.07 2720.22 1280.42 2612.16 1204.94 2579.95Z" fill="white" stroke="#FFA783" stroke-width="27"/>
<path d="M646.856 2459.69C665.351 2467.49 686.248 2459.82 693.532 2442.55C700.816 2425.28 691.728 2404.96 673.234 2397.16C654.739 2389.36 633.841 2397.03 626.557 2414.3C619.273 2431.57 628.361 2451.89 646.856 2459.69Z" fill="white" stroke="#FFA783" stroke-width="27"/>
</g>
<path d="M3431.55 3754.67C3431.55 3635.45 3514.24 3538.97 3616.44 3538.97H3647.25C3749.45 3538.97 3832.14 3635.45 3832.14 3754.67C3832.14 3865.3 3742.47 3954.97 3631.85 3954.97C3521.22 3954.97 3431.55 3865.28 3431.55 3754.67Z" fill="white" stroke="#FFA783" stroke-width="27"/>
<path d="M3832.14 3862.52C3832.14 3743.3 3914.83 3646.82 4017.02 3646.82H4047.84C4150.03 3646.82 4232.72 3743.3 4232.72 3862.52C4232.72 3973.15 4143.05 4062.82 4032.43 4062.82C3921.81 4062.82 3832.14 3973.13 3832.14 3862.52Z" fill="white" stroke="#FFA783" stroke-width="27"/>
<path d="M4094.05 3739.26C4091.52 3739.26 4088.95 3738.63 4086.57 3737.32C4079.15 3733.19 4076.45 3723.81 4080.59 3716.37C4145.74 3599.12 4135.11 3500.41 4035.02 3339.5C4010.63 3509.17 3859.07 3646.39 3733.1 3646.39C3724.6 3646.39 3717.7 3639.49 3717.7 3630.98C3717.7 3622.48 3724.6 3615.58 3733.1 3615.58C3854.09 3615.58 4007.6 3463.43 4007.6 3292.46C4007.6 3285.68 4012.05 3279.67 4018.53 3277.71C4025.02 3275.74 4032.05 3278.27 4035.82 3283.91C4146.46 3449.87 4193.67 3576.29 4107.53 3731.34C4104.71 3736.4 4099.45 3739.26 4094.05 3739.26Z" fill="white" stroke="#FFA783" stroke-width="27"/>
<path d="M4017.02 3284.42C4078.84 3329.73 4173.38 3305.68 4218.69 3243.86C4156.87 3198.54 4062.34 3222.6 4017.02 3284.42Z" fill="white" stroke="#FFA783" stroke-width="27"/>
<path d="M3847.55 3176.84C3859.21 3252.6 3943.07 3302.43 4018.83 3290.76C4007.15 3215.01 3923.29 3165.18 3847.55 3176.84Z" fill="white" stroke="#FFA783" stroke-width="27"/>
<path d="M2186.98 4360.94C2182.34 4361.02 2177.7 4359.34 2174.1 4355.87C2166.91 4348.93 2166.7 4337.47 2173.66 4330.29L2244.27 4257.22C2251.19 4250.01 2262.66 4249.81 2269.85 4256.79C2277.04 4263.73 2277.24 4275.18 2270.28 4282.37L2199.68 4355.43C2196.23 4359.04 2191.62 4360.87 2186.98 4360.94Z" fill="white" stroke="#FFA783" stroke-width="27"/>
<path d="M2259.14 4383.75C2249.15 4383.91 2240.91 4375.94 2240.75 4365.95L2239.19 4270.08C2239.03 4260.09 2247 4251.86 2256.99 4251.69C2266.98 4251.53 2275.21 4259.5 2275.37 4269.49L2276.93 4365.36C2277.1 4375.35 2269.12 4383.58 2259.14 4383.75Z" fill="white" stroke="#FFA783" stroke-width="27"/>
<path d="M2330.52 4358.61C2325.89 4358.68 2321.23 4356.99 2317.62 4353.52L2244.68 4282.79C2237.49 4275.83 2237.32 4264.38 2244.28 4257.2C2251.24 4250.02 2262.68 4249.85 2269.87 4256.81L2342.81 4327.54C2350 4334.5 2350.16 4345.95 2343.2 4353.12C2339.73 4356.7 2335.15 4358.53 2330.52 4358.61Z" fill="white" stroke="#FFA783" stroke-width="27"/>
<path d="M2377.59 4309.9C2376.41 4309.92 2375.22 4309.83 2374.02 4309.6L2254.02 4287.57C2244.19 4285.78 2237.68 4276.35 2239.49 4266.51C2241.29 4256.67 2250.74 4250.13 2260.56 4251.98L2380.55 4274.01C2390.39 4275.8 2396.9 4285.23 2395.08 4295.07C2393.51 4303.71 2386.04 4309.77 2377.59 4309.9Z" fill="white" stroke="#FFA783" stroke-width="27"/>
<path d="M2138.31 4311.81C2129.63 4311.95 2121.85 4305.81 2120.24 4296.99C2118.44 4287.17 2124.94 4277.73 2134.78 4275.92L2254.06 4254C2263.87 4252.25 2273.32 4258.7 2275.12 4268.54C2276.93 4278.35 2270.42 4287.8 2260.59 4289.6L2141.31 4311.52C2140.3 4311.68 2139.29 4311.79 2138.31 4311.81Z" fill="white" stroke="#FFA783" stroke-width="27"/>
<path d="M2266.25 3362.29L2235.71 3377.5C2235.71 3377.5 2313.87 3726.99 2170.02 3931.84C2042.8 4113.01 2171.12 4290.48 2300 4288.38L2359.35 4287.42C2363.14 4287.35 2366.93 4286.33 2370.68 4286.8C2533.46 4306.64 2691.3 3981.72 2453.32 3756.39C2343.53 3645.62 2325.27 3561.24 2272.81 3384.42L2266.25 3362.29Z" fill="white" stroke="#FFA783" stroke-width="27"/>
<path d="M2170.01 3931.84C2274.93 3782.44 2261.75 3556.27 2246.94 3444.67C2184.55 3586.68 2180.18 3640.44 2070 3724.7C1945.48 3813.61 1904.89 3943.03 1913.77 4052.53C1913.41 4058.6 1925.79 4296.46 2122.47 4290.04C2156.09 4288.95 2187.63 4279.86 2215.37 4264.04C2126.06 4209.67 2071.65 4071.89 2170.01 3931.84Z" fill="white" stroke="#FFA783" stroke-width="27"/>
<path d="M2530.37 3717.21C2440.12 3652.75 2375.96 3619.83 2319.61 3537.77C2348.43 3621.78 2381.01 3683.43 2453.32 3756.38C2657.41 3949.61 2570.35 4215.89 2438.77 4275.36C2457.12 4280.8 2476.34 4283.96 2496.34 4283.96C2693.14 4283.96 2697.75 4045.82 2697.2 4039.79C2702.49 3930.03 2657.72 3802.02 2530.37 3717.21Z" fill="white" stroke="#FFA783" stroke-width="27"/>
<path d="M1912.66 4052.55C1903.79 3943.03 1944.37 3813.63 2068.9 3724.72C2123.91 3682.65 2152.54 3648.18 2175.19 3606.55C2113.14 3648.72 2032.54 3680.19 1972.23 3726.29C1847.71 3815.2 1766.34 3945.26 1775.22 4054.78C1774.86 4060.85 1773.44 4295.72 2024.7 4291.63C2039.8 4291.38 2054.39 4288.98 2068.44 4285.2C1922.42 4251.73 1912.33 4058 1912.66 4052.55Z" fill="white" stroke="#FFA783" stroke-width="27"/>
<path d="M1151.6 9247.72C1151.68 9247.73 1151.77 9247.75 1151.85 9247.75L1151.41 9247.74C1151.48 9247.72 1151.54 9247.72 1151.6 9247.72C1130.05 9246.75 1113.11 9233.55 1113.74 9218.13C1113.11 9233.61 1095.02 9245.44 1073.36 9244.56C1051.68 9243.67 1034.61 9230.41 1035.25 9214.94C1034.61 9230.41 1016.53 9242.25 994.86 9241.37C973.185 9240.48 956.13 9227.21 956.752 9211.74C956.173 9226.03 940.669 9237.09 921.246 9238.03C909.981 9267.02 899.92 9302.98 892.399 9347.91C892.399 9347.91 847.859 9523.65 709.053 9653.34C696.222 9665.34 684.06 9678.13 674.287 9692.72C669.903 9699.27 660.927 9715.01 660.927 9715.01C601.28 9825.62 622.061 9966.58 719.564 10054.5C807.11 10133.5 930.804 10146.5 1030.35 10097.1C1076.03 10074.5 1112.95 10037.6 1140.06 9994.42C1200.42 9898.29 1301.41 9667.84 1181.75 9321.29C1181.75 9321.29 1175.29 9287.06 1160.52 9246.81C1157.67 9247.45 1154.72 9247.82 1151.6 9247.72Z" fill="white"/>
<path d="M1151.6 9247.72C1151.68 9247.73 1151.77 9247.75 1151.85 9247.75L1151.41 9247.74C1151.48 9247.72 1151.54 9247.72 1151.6 9247.72ZM1151.6 9247.72C1130.05 9246.75 1113.11 9233.55 1113.74 9218.13C1113.11 9233.61 1095.02 9245.44 1073.36 9244.56C1051.68 9243.67 1034.61 9230.41 1035.25 9214.94C1034.61 9230.41 1016.53 9242.25 994.86 9241.37C973.185 9240.48 956.13 9227.21 956.752 9211.74C956.173 9226.03 940.669 9237.09 921.246 9238.03C909.981 9267.02 899.92 9302.98 892.399 9347.91C892.399 9347.91 847.859 9523.65 709.053 9653.34C696.222 9665.34 684.06 9678.13 674.287 9692.72C669.903 9699.27 660.927 9715.01 660.927 9715.01C601.28 9825.62 622.061 9966.58 719.564 10054.5C807.11 10133.5 930.804 10146.5 1030.35 10097.1C1076.03 10074.5 1112.95 10037.6 1140.06 9994.42C1200.42 9898.29 1301.41 9667.84 1181.75 9321.29C1181.75 9321.29 1175.29 9287.06 1160.52 9246.81C1157.67 9247.45 1154.72 9247.82 1151.6 9247.72Z" stroke="#FFA783" stroke-width="27"/>
<path d="M1047.31 9094.1C1039.68 9099 1029.52 9096.8 1024.61 9089.16C1019.71 9081.52 1021.93 9071.37 1029.55 9066.46C1056.11 9049.4 1072.79 9027.23 1073.08 9008.61C1073.29 8995.22 1064.92 8982.6 1048.18 8971.1C1040.72 8965.96 1038.82 8955.74 1043.97 8948.26C1049.11 8940.73 1059.33 8938.89 1066.8 8944.03C1099.62 8966.61 1106.2 8991.88 1105.93 9009.12C1105.47 9039.05 1083.55 9070.81 1047.31 9094.1Z" fill="#FFA783" stroke="#FFA783" stroke-width="27"/>
<path d="M915.946 9238.14C896.015 9237.32 880.479 9221.22 881.261 9202.17C882.035 9183.11 898.827 9168.32 918.758 9169.14C921.238 9108.16 976.74 9077.75 1040.53 9080.36C1104.32 9082.96 1154.69 9117.67 1152.21 9178.65C1172.14 9179.47 1187.68 9195.57 1186.9 9214.62C1186.12 9233.67 1171.35 9248.54 1151.43 9247.73L1151.86 9247.75C1130.19 9246.86 1113.12 9233.6 1113.76 9218.12C1113.12 9233.6 1095.03 9245.43 1073.37 9244.56C1051.69 9243.66 1034.63 9230.41 1035.26 9214.93C1034.63 9230.41 1016.54 9242.24 994.874 9241.36C973.199 9240.47 956.13 9227.21 956.765 9211.74C956.13 9227.21 938.044 9239.05 916.378 9238.17" fill="white"/>
<path d="M915.946 9238.14C896.015 9237.32 880.479 9221.22 881.261 9202.17C882.035 9183.11 898.827 9168.32 918.758 9169.14C921.238 9108.16 976.74 9077.75 1040.53 9080.36C1104.32 9082.96 1154.69 9117.67 1152.21 9178.65C1172.14 9179.47 1187.68 9195.57 1186.9 9214.62C1186.12 9233.67 1171.35 9248.54 1151.43 9247.73L1151.86 9247.75C1130.19 9246.86 1113.12 9233.6 1113.76 9218.12C1113.12 9233.6 1095.03 9245.43 1073.37 9244.56C1051.69 9243.66 1034.63 9230.41 1035.26 9214.93C1034.63 9230.41 1016.54 9242.24 994.874 9241.36C973.199 9240.47 956.13 9227.21 956.765 9211.74C956.13 9227.21 938.044 9239.05 916.378 9238.17" stroke="#FFA783" stroke-width="27"/>
<g clip-path="url(#clip1)">
<path d="M3299.13 10849.4C3267.34 10815 3204.58 10762.4 3127.64 10776.1C3120.23 10777.4 3113.92 10770.6 3115.81 10763.3L3132.21 10700.1C3136.01 10685.5 3129.19 10671 3117.07 10667.8L3083.99 10659.3C3071.86 10656.1 3058.84 10665.5 3055.05 10680.1L3037.68 10747.1C3036.04 10753.4 3029.07 10756.7 3023.2 10753.8C2996.77 10740.8 2926.57 10713.1 2846.48 10736.5C2835.52 10739.7 2837.17 10756 2848.57 10756.8C2882.39 10759.3 2925.94 10766.3 2951.71 10785.1C2958.47 10790 2956.89 10800.5 2948.97 10803.2C2925.12 10811.2 2879.55 10832.1 2840.3 10882C2833.62 10890.5 2843.17 10902.2 2852.98 10897.6C2891.2 10879.8 2952.14 10858.1 2994.62 10875.2C2999.63 10877.2 3002.46 10882.4 3001.03 10887.6C2992.94 10917 2967.33 11017.3 2981.85 11061.5C2984.14 11068.5 2992.66 11071 2998.33 11066.4C3019.38 11049.1 3067.68 11001.2 3089.19 10912.6C3090.61 10906.8 3096.49 10903.3 3102.24 10905C3124.23 10911.4 3174.94 10931.3 3205.94 10982.6C3211.01 10991 3223.77 10988.2 3225.02 10978.4C3228.46 10951.8 3224.37 10909 3180.79 10865.4C3174.17 10858.8 3178.53 10847.4 3187.88 10847.6C3206.78 10847.8 3238.47 10851.6 3288.51 10866.4C3298.68 10869.3 3306.31 10857.1 3299.13 10849.4Z" fill="white" stroke="#FFA783" stroke-width="27"/>
<path d="M3304.79 10875.2C3303.66 10873.8 3302.21 10872.8 3300.58 10872.2C3294.82 10869.9 3289.03 10867.7 3283.29 10865.3C3281.21 10864.5 3279.11 10863.8 3277.06 10863.1C3233.89 10851.1 3205.69 10847.8 3188.25 10847.6C3178.77 10847.4 3174.14 10858.7 3180.84 10865.4C3224.43 10909 3228.5 10951.7 3225.06 10978.4C3223.81 10988.1 3211.06 10990.9 3205.98 10982.5C3174.98 10931.2 3124.26 10911.4 3102.28 10904.9C3096.53 10903.2 3090.64 10906.7 3089.24 10912.6C3067.71 11001.2 3019.42 11049 2998.37 11066.3C2992.69 11071 2984.18 11068.5 2981.89 11061.5C2967.37 11017.2 2992.98 10917 3001.07 10887.6C3002.5 10882.4 2999.67 10877.1 2994.67 10875.1C2952.19 10858 2891.25 10879.8 2853.02 10897.6C2843.22 10902.1 2833.66 10890.5 2840.34 10882C2879.54 10832.1 2925.05 10811.3 2948.92 10803.2C2956.88 10800.5 2958.43 10789.9 2951.61 10785C2946.64 10781.5 2941.03 10778.3 2934.96 10775.6C2933.88 10775.1 2932.68 10774.7 2931.5 10774.6C2894.14 10770.2 2856.92 10767.8 2820.13 10768.1C2818.51 10768.1 2816.91 10768.5 2815.44 10769.2C2723.13 10812.7 2651.88 10891.3 2625.65 10992.4C2576.18 11183.2 2705.59 11381.7 2914.68 11436C3123.76 11490.2 3333.37 11379.5 3382.84 11188.8C3411.94 11076.6 3379.19 10961.8 3304.79 10875.2Z" fill="white" stroke="#FFA783" stroke-width="27"/>
</g>
<path d="M1982.52 7418.8C2014.57 7426.51 2049.6 7426.34 2086.96 7410.35C2151.19 7382.89 2196.85 7320.43 2198.28 7249.76C2199.89 7170.6 2150.36 7103.09 2080.97 7078.41C2076.09 7006.54 2017.2 6949.76 1945.1 6949.76C1944.89 6949.76 1944.68 6949.78 1944.48 6949.78C1945.76 6938.91 1945.03 6927.41 1941.56 6915.4C1931.81 6881.67 1902.57 6855.79 1868.14 6851.64C1839.91 6848.25 1814 6858.5 1795.83 6876.7C1778.6 6860.93 1755.95 6851.04 1730.84 6851.04C1677.05 6851.04 1633.45 6895.25 1633.45 6949.78C1633.45 6949.95 1633.49 6950.12 1633.49 6950.29C1568.11 6955.32 1516.57 7010.59 1516.57 7078.16C1516.57 7088.49 1517.89 7098.48 1520.17 7108.1C1442.34 7111.39 1380.2 7176.19 1380.2 7255.89C1380.2 7282.9 1387.44 7308.13 1399.9 7329.94C1375.99 7349.86 1360.74 7380.08 1360.74 7413.89C1360.74 7461.18 1390.6 7501.31 1432.22 7516.22C1426.84 7709.34 1494.81 7823.28 1626.3 7976.75C1628.66 7979.5 1631.03 7982.26 1633.43 7985.01C1633.95 7985.59 1634.46 7986.18 1634.98 7986.77C1689.66 8048.97 1812.99 8001.33 1786.45 7922.47C1644.8 7501.12 2081.44 7562.03 2081.44 7562.03C2081.44 7562.03 2093.92 7434.57 1981.28 7428.6C1981.42 7425.42 1981.57 7422.21 1981.71 7419.03C1982 7418.96 1982.23 7418.86 1982.52 7418.8Z" fill="white" stroke="#FFA783" stroke-width="27"/>
<path d="M1635 7986.77C1634.49 7986.18 1633.97 7985.59 1633.45 7985.01C1631.05 7982.26 1628.68 7979.52 1626.32 7976.75C1494.81 7823.28 1426.85 7709.34 1432.24 7516.22C1390.62 7501.31 1360.76 7461.18 1360.76 7413.89C1360.76 7380.06 1376.01 7349.86 1399.92 7329.94C1387.48 7308.13 1380.23 7282.9 1380.23 7255.89C1380.23 7176.19 1442.36 7111.37 1520.19 7108.1C1517.92 7098.48 1516.59 7088.49 1516.59 7078.16C1516.59 7024.48 1549.16 6978.68 1595.3 6959.53C1592.25 6949.36 1588.36 6939.12 1583.26 6928.87C1557.8 6877.73 1513 6845.61 1472.1 6852.36C1438.4 6857.91 1414.82 6885.8 1404.67 6923.3C1376.4 6904 1345.03 6896.5 1316.7 6906.62C1255.97 6928.31 1236.81 7016.85 1271.59 7098.86C1271.69 7099.11 1271.84 7099.32 1271.94 7099.57C1206.1 7131.46 1188.6 7226.27 1230.34 7311.79C1236.44 7324.26 1243.53 7335.72 1251.26 7346.3C1178.54 7376.79 1159.34 7469.35 1205.13 7550.25C1219.76 7576.11 1239.31 7597.39 1261.05 7613.46C1250.76 7638.42 1252.99 7669.11 1269.36 7697.44C1291.33 7735.49 1332.55 7758.07 1371.15 7757.8C1439 7892.88 1522.23 7945.28 1648.27 7999.51C1649.59 8000.07 1650.91 8000.64 1652.24 8001.18C1646.04 7997.2 1640.15 7992.63 1635 7986.77Z" fill="white" stroke="#FFA783" stroke-width="27"/>
<path d="M1684.41 7362.66C1685.61 7359.98 1686.17 7357.18 1686.21 7354.41C1701.03 7316.61 1718.86 7284.89 1737.42 7258.43C1830.08 7238.9 1899.99 7268.25 1901.54 7268.93C1904.24 7270.14 1907.05 7270.69 1909.78 7270.69C1917.74 7270.69 1925.32 7265.99 1928.73 7258.16C1933.32 7247.55 1928.54 7235.19 1918.11 7230.54C1915.24 7229.28 1858.22 7204.6 1776.25 7210.66C1816.29 7168.31 1851.44 7149.1 1856.69 7146.42C1886.72 7131.84 1930.59 7150.69 1944.99 7159.2C1948.28 7161.17 1951.87 7162.09 1955.45 7162.09C1962.52 7162.09 1969.42 7158.4 1973.26 7151.78C1979.05 7141.81 1975.8 7128.99 1965.95 7123.1C1963.59 7121.67 1917.14 7094.46 1869.55 7099.93C1873.62 7082.93 1882.65 7067.47 1887.26 7061.27C1894.18 7052.09 1892.44 7038.95 1883.37 7031.94C1874.34 7024.92 1861.34 7026.63 1854.42 7035.85C1853.12 7037.55 1826.01 7074.01 1826.07 7115.97C1796 7134.64 1718.32 7191.23 1663.97 7304.96C1661.04 7311.08 1658.21 7317.66 1655.4 7324.26C1599.02 7285.18 1608.3 7215.66 1608.82 7212.29C1610.58 7200.89 1602.91 7190.19 1591.65 7188.36C1580.41 7186.54 1569.78 7194.34 1567.99 7205.75C1561.99 7243.78 1570.59 7322.14 1640.21 7364.24C1624.83 7410.08 1613.18 7464.81 1609.58 7529.4C1609.17 7531.43 1609.09 7533.4 1609.25 7535.41C1607.1 7580.69 1609.17 7630.91 1616.36 7685.91C1590.16 7671.29 1578.17 7649.9 1577.41 7648.45C1572.02 7638.29 1559.58 7634.41 1549.53 7639.78C1539.45 7645.16 1535.54 7657.84 1540.87 7668.08C1541.97 7670.2 1566.7 7716.57 1623.88 7734.48C1638.78 7817.37 1665.34 7910.44 1708.28 8014.88C1722.43 8013.94 1736.22 8010.15 1748.41 8003.99C1748.35 8003.82 1748.37 8003.63 1748.31 8003.44C1703.24 7894.72 1676.04 7798.95 1661.58 7714.32C1661.49 7713.82 1661.45 7713.34 1661.35 7712.86C1650.6 7649.37 1647.11 7592.32 1649.14 7541.22C1678.07 7491.21 1763.1 7489.19 1763.97 7489.17C1775.38 7488.98 1784.49 7479.49 1784.32 7467.93C1784.16 7456.45 1774.96 7447.27 1763.68 7447.27C1763.6 7447.27 1763.52 7447.27 1763.43 7447.27C1760.06 7447.31 1701.15 7448.61 1654.41 7478.32C1660.11 7436.84 1669.59 7400.09 1681.35 7367.44C1682.57 7366 1683.63 7364.42 1684.41 7362.66Z" fill="white" stroke="#FFA783" stroke-width="27"/>
<path d="M891.518 5319.25C891.518 5319.25 1089.33 5121.78 1286.98 5279.25C1286.98 5279.25 1336.64 5313.85 1317.98 5363.83C1299.6 5412.99 1232.57 5420.61 1189.04 5384.56C1149.78 5352.04 1066.77 5319.21 891.518 5319.25Z" fill="white" stroke="#FFA783" stroke-width="27"/>
<path d="M891.517 5319.25C891.517 5319.25 974.773 5053.74 758.195 4965.2C758.195 4965.2 684.297 4926.46 634.885 4959.54C588.921 4990.29 605.544 5061.06 658.809 5075.86C717.183 5092.08 805.541 5147.25 891.517 5319.25Z" fill="white" stroke="#FFA783" stroke-width="27"/>
<path d="M1285.15 5292.51C1285.15 5292.51 1286.83 5293.81 1289.06 5295.63C1292.81 5290.05 1296.32 5284.17 1299.19 5277.61C1325.69 5217.18 1284.23 5186.21 1284.23 5186.21C1122.69 5040.28 899.514 5300.45 899.514 5300.45C912.828 5298.02 925.359 5296.07 937.513 5294.3C1008.01 5246.15 1146.57 5182.1 1285.15 5292.51Z" fill="white" stroke="#FFA783" stroke-width="27"/>
<path d="M758.214 4965.19C925.283 5033.48 913.926 5207.01 900.006 5282.81C900.452 5284.33 900.916 5285.67 901.363 5287.19C901.363 5287.19 1026.87 4969.02 835.317 4905.24C835.317 4905.24 771.422 4873.73 718.506 4920.12C709.418 4928.09 702.164 4937.25 696.627 4946.92C729.897 4950.39 758.214 4965.19 758.214 4965.19Z" fill="white" stroke="#FFA783" stroke-width="27"/>
<path d="M1109.1 4928.55C1028.88 4901.48 958.656 4991.1 958.656 4991.1C948.582 5012.16 940.185 5034.21 932.937 5056.5C943.252 5147.33 910.237 5256.76 892.676 5306.67C892.506 5313.03 892.413 5318.58 892.383 5322.57C919.689 5292.05 1000.4 5207.74 1090.77 5168.21C1110.22 5146.73 1128.19 5124 1142.91 5100.55C1221.76 4974.89 1109.1 4928.55 1109.1 4928.55Z" fill="white" stroke="#FFA783" stroke-width="27"/>
<path d="M891.518 5319.25C891.518 5319.25 1089.33 5121.78 1286.98 5279.25C1286.98 5279.25 1336.64 5313.85 1317.98 5363.83C1299.6 5412.99 1232.57 5420.61 1189.04 5384.56C1149.78 5352.04 1066.77 5319.21 891.518 5319.25Z" fill="white" stroke="#FFA783" stroke-width="27"/>
<path d="M1052.31 5388.23C1054.62 5364.08 1048.54 5342.27 1038.31 5322.86C999.044 5317.01 951.759 5313.45 894.45 5313.48C866.125 5256.82 837.584 5213.05 809.903 5178.97C783.126 5176.69 755.45 5180.5 730.719 5197.22C653.114 5249.67 415.163 5885.84 392.925 6092.18C390.834 6111.59 408.287 6121.94 424.312 6110.83C594.86 5992.57 1043.37 5481.46 1052.31 5388.23Z" fill="white" stroke="#FFA783" stroke-width="27"/>
<path d="M507.867 5900.46C493.595 5897.63 479.339 5893.36 465.494 5887.78C455.496 5883.73 444.169 5888.59 440.154 5898.56C436.14 5908.53 440.963 5919.88 450.932 5923.9C467.022 5930.39 483.629 5935.37 500.271 5938.67C503.212 5939.24 506.141 5939.14 508.878 5938.44C515.92 5936.65 521.669 5930.96 523.189 5923.36C525.268 5912.82 518.409 5902.54 507.867 5900.46Z" fill="white" stroke="#FFA783" stroke-width="27"/>
<path d="M1000.14 5392.42C957.767 5387.53 915.174 5370.2 873.59 5340.89C864.793 5334.68 852.645 5336.79 846.442 5345.59C840.24 5354.39 842.35 5366.54 851.147 5372.74C898.12 5405.85 946.753 5425.5 995.696 5431.15C998.116 5431.41 1000.49 5431.25 1002.73 5430.68C1010.34 5428.74 1016.31 5422.27 1017.28 5414.01C1018.5 5403.32 1010.83 5393.66 1000.14 5392.42Z" fill="white" stroke="#FFA783" stroke-width="27"/>
<path d="M651.92 5322.79C659.749 5322.83 667.212 5327.5 670.148 5335.32C681.376 5365.27 707.463 5401.14 740.486 5413.74C750.529 5417.57 755.569 5428.83 751.721 5438.9C749.386 5445.04 744.241 5449.31 738.313 5450.82C734.556 5451.78 730.478 5451.63 726.559 5450.13C681.997 5433.12 651.016 5390.03 636.441 5355.55" fill="white"/>
<path d="M651.92 5322.79C659.749 5322.83 667.212 5327.5 670.148 5335.32C681.376 5365.27 707.463 5401.14 740.486 5413.74C750.529 5417.57 755.569 5428.83 751.721 5438.9C749.386 5445.04 744.241 5449.31 738.313 5450.82C734.556 5451.78 730.478 5451.63 726.559 5450.13C681.997 5433.12 651.016 5390.03 636.441 5355.55" stroke="#FFA783" stroke-width="27"/>
<path d="M885.487 5637.82C848.335 5641.13 796.745 5634.25 761.053 5603.76C752.881 5596.78 751.919 5584.48 758.899 5576.28C765.865 5568.12 778.183 5567.15 786.374 5574.13C813.225 5597.06 857.217 5602.84 888.887 5598.37C897.387 5597.17 905.152 5601.77 908.808 5609.02" fill="white"/>
<path d="M885.487 5637.82C848.335 5641.13 796.745 5634.25 761.053 5603.76C752.881 5596.78 751.919 5584.48 758.899 5576.28C765.865 5568.12 778.183 5567.15 786.374 5574.13C813.225 5597.06 857.217 5602.84 888.887 5598.37C897.387 5597.17 905.152 5601.77 908.808 5609.02" stroke="#FFA783" stroke-width="27"/>
<path d="M551.852 5558.61C559.837 5558.47 567.484 5563.16 570.468 5571.08C577.512 5589.89 593.753 5612.37 614.115 5620.17C624.158 5624.01 629.198 5635.27 625.35 5645.33C622.996 5651.48 617.87 5655.74 611.942 5657.25C608.185 5658.21 604.107 5658.06 600.188 5656.57C570.611 5645.27 549.364 5618.05 538.198 5594.66" fill="white"/>
<path d="M551.852 5558.61C559.837 5558.47 567.484 5563.16 570.468 5571.08C577.512 5589.89 593.753 5612.37 614.115 5620.17C624.158 5624.01 629.198 5635.27 625.35 5645.33C622.996 5651.48 617.87 5655.74 611.942 5657.25C608.185 5658.21 604.107 5658.06 600.188 5656.57C570.611 5645.27 549.364 5618.05 538.198 5594.66" stroke="#FFA783" stroke-width="27"/>
<path d="M690.568 5818.16C670.679 5820.97 643.169 5817.47 626.597 5803.31C618.424 5796.33 606.139 5797.27 599.126 5805.49C592.141 5813.66 593.103 5825.96 601.299 5832.96C628.074 5855.83 667.099 5860.18 693.568 5857C699.883 5850.22 706.198 5843.37 712.513 5836.51C712.482 5835.91 712.678 5835.34 712.586 5834.74C711.097 5824.08 701.221 5816.65 690.568 5818.16Z" fill="white" stroke="#FFA783" stroke-width="27"/>
<path d="M3190.14 9329.15L2611.52 9346.61C2616.34 9506.39 2749.77 9632.01 2909.56 9627.19C3069.34 9622.37 3194.96 9488.92 3190.14 9329.15Z" fill="white" stroke="#FFA783" stroke-width="27"/>
<path d="M3135.04 9330.81L2666.63 9344.94C2670.53 9474.29 2778.55 9575.99 2907.9 9572.08C3037.25 9568.18 3138.94 9460.15 3135.04 9330.81Z" fill="white" stroke="#FFA783" stroke-width="27"/>
<path d="M2914.61 9337.47L2887.05 9338.3L2894.12 9572.5L2921.67 9571.67L2914.61 9337.47Z" fill="white" stroke="#FFA783" stroke-width="27"/>
<path d="M3080.59 9488.17L2910.28 9327.83L2891.38 9347.9L3061.69 9508.24L3080.59 9488.17Z" fill="white" stroke="#FFA783" stroke-width="27"/>
<path d="M2910.87 9347.31L2890.8 9328.41L2730.46 9498.73L2750.53 9517.62L2910.87 9347.31Z" fill="white" stroke="#FFA783" stroke-width="27"/>
<path d="M3085.28 9060.37L3090.58 9054.74C3111.37 9032.66 3110.31 8997.59 3088.23 8976.8C3066.15 8956.01 3031.08 8957.07 3010.29 8979.16L3007.09 8982.56C2879.29 8901.86 2687.18 8940.32 2555.08 9080.64C2422.98 9220.96 2396.16 9415.06 2484.42 9537.76L2481.21 9541.16C2460.42 9563.25 2461.48 9598.31 2483.57 9619.1C2505.65 9639.89 2540.71 9638.83 2561.5 9616.75L2566.81 9611.11C2644.62 9654.41 2743.52 9656.07 2837.89 9620.1C2711.74 9592.04 2615.59 9481.7 2611.52 9346.61L3110.27 9331.56C3140.9 9234.83 3133.37 9135.73 3085.28 9060.37ZM2876.33 9035.51C2870.84 9052.29 2854.77 9057.55 2838.92 9054.47C2847.07 9056.06 2837.69 9054.56 2836.02 9054.46C2833.88 9054.33 2831.74 9054.22 2829.6 9054.26C2828.9 9054.26 2828.21 9054.3 2827.51 9054.32C2827.15 9054.36 2826.81 9054.4 2826.22 9054.45C2823.92 9054.77 2821.64 9055.13 2819.37 9055.54C2803.47 9058.44 2787.67 9048.45 2784.4 9032.36C2781.23 9016.77 2791.68 9000.28 2807.59 8997.39C2824.65 8994.28 2840.49 8994.81 2857.38 8998.1C2873.29 9001.19 2880.89 9021.59 2876.33 9035.51Z" fill="white" stroke="#FFA783" stroke-width="27"/>
<path d="M3952.21 7623.27L3904.16 7630.41L3865.94 7489.52L3948.16 7470.75L3952.21 7623.27Z" fill="white" stroke="#FFA783" stroke-width="27"/>
<path d="M4054.98 7614.38C4073.31 7599.58 4087.64 7581.24 4095.7 7559.12C4009.4 7521.08 3979.42 7562.04 3979.42 7562.04C3979.16 7544.68 3966.51 7536.58 3949.85 7533.88L3952.23 7623.26L3904.16 7630.4L3904.14 7630.37L3880.73 7544.08C3872.01 7547.85 3866.04 7551.94 3865.58 7555.34C3865.58 7555.34 3840.6 7511.15 3750.46 7538.79C3756.03 7562.35 3768.4 7582.91 3785.61 7600.03C3714.09 7605.89 3647.46 7626.47 3611.11 7684.57C3774.34 7744.07 3828.52 7666.84 3828.52 7666.84C3832.18 7776.34 3914.65 7813.46 3927.14 7818.66C3940.16 7814.97 4026.42 7787.78 4042.91 7679.46C4042.91 7679.46 4056.41 7760.68 4225.51 7720.74C4192.45 7658.14 4125.53 7628.54 4054.98 7614.38Z" fill="white" stroke="#FFA783" stroke-width="27"/>
<path d="M4197.3 7727.54C4197.08 7727.23 4196.9 7726.9 4196.68 7726.59C4054.95 7751.07 4042.89 7679.46 4042.89 7679.46C4026.41 7787.77 3940.15 7814.97 3927.13 7818.66C3914.63 7813.46 3832.16 7776.34 3828.5 7666.84C3828.5 7666.84 3783.33 7730.05 3652.7 7697.06C3652.39 7697.32 3652.08 7697.59 3651.76 7697.85C3652.14 7697.94 3652.56 7698.08 3652.93 7698.16C3611.38 7735.3 3587.09 7795.33 3581.63 7888.07C3569.44 8095.38 3761.49 8384.54 3885.2 8391.83C4008.92 8399.11 4233.57 8134.48 4245.78 7927.16C4251.34 7832.69 4233.5 7769.64 4195.18 7727.88C4195.86 7727.79 4196.62 7727.64 4197.3 7727.54Z" fill="white" stroke="#FFA783" stroke-width="27"/>
<path d="M3738.62 7793.8C3737.02 7787.37 3728.08 7786.84 3725.75 7793.05C3725.75 7793.05 3696.2 7877.2 3695.71 7885.46C3695.23 7893.72 3697.99 7901.69 3703.5 7907.88C3708.99 7914.08 3716.58 7917.76 3724.84 7918.24C3733.1 7918.73 3741.07 7915.97 3747.25 7910.46C3753.44 7904.95 3757.12 7897.38 3757.61 7889.1C3758.09 7880.82 3738.62 7793.8 3738.62 7793.8Z" fill="white" stroke="#FFA783" stroke-width="27"/>
<path d="M3926.05 7869.74C3924.45 7863.3 3915.51 7862.77 3913.18 7868.98C3913.18 7868.98 3883.63 7953.13 3883.14 7961.39C3882.66 7969.65 3885.42 7977.62 3890.93 7983.82C3896.42 7990.01 3904.01 7993.69 3912.27 7994.18C3920.53 7994.66 3928.5 7991.9 3934.68 7986.39C3940.87 7980.89 3944.55 7973.31 3945.04 7965.04C3945.52 7956.76 3926.05 7869.74 3926.05 7869.74Z" fill="white" stroke="#FFA783" stroke-width="27"/>
<path d="M4110.5 7815.5C4108.9 7809.07 4099.96 7808.54 4097.63 7814.75C4097.63 7814.75 4068.08 7898.9 4067.59 7907.16C4067.11 7915.42 4069.87 7923.39 4075.38 7929.59C4080.87 7935.78 4088.46 7939.46 4096.72 7939.94C4104.98 7940.43 4112.95 7937.67 4119.13 7932.16C4125.32 7926.65 4129 7919.08 4129.49 7910.8C4129.97 7902.53 4110.5 7815.5 4110.5 7815.5Z" fill="white" stroke="#FFA783" stroke-width="27"/>
<path d="M3804.29 8008.8C3802.69 8002.36 3793.75 8001.83 3791.42 8008.04C3791.42 8008.04 3761.87 8092.19 3761.39 8100.45C3760.9 8108.72 3763.66 8116.68 3769.17 8122.88C3774.66 8129.08 3782.25 8132.75 3790.51 8133.24C3798.77 8133.72 3806.74 8130.96 3812.92 8125.45C3819.12 8119.95 3822.79 8112.38 3823.28 8104.1C3823.77 8095.82 3804.29 8008.8 3804.29 8008.8Z" fill="white" stroke="#FFA783" stroke-width="27"/>
<path d="M3908.93 8160.57C3907.33 8154.13 3898.39 8153.6 3896.06 8159.81C3896.06 8159.81 3866.51 8243.96 3866.02 8252.22C3865.53 8260.49 3868.29 8268.45 3873.8 8274.65C3879.29 8280.85 3886.88 8284.52 3895.14 8285.01C3903.41 8285.5 3911.37 8282.74 3917.55 8277.23C3923.75 8271.72 3927.43 8264.15 3927.91 8255.87C3928.4 8247.59 3908.93 8160.57 3908.93 8160.57Z" fill="white" stroke="#FFA783" stroke-width="27"/>
<path d="M4030.66 8021.91C4029.06 8015.47 4020.12 8014.95 4017.79 8021.16C4017.79 8021.16 3988.24 8105.31 3987.75 8113.57C3987.27 8121.83 3990.03 8129.8 3995.54 8135.99C4001.03 8142.19 4008.62 8145.87 4016.88 8146.35C4025.14 8146.84 4033.11 8144.08 4039.29 8138.57C4045.48 8133.06 4049.16 8125.49 4049.65 8117.21C4050.13 8108.93 4030.66 8021.91 4030.66 8021.91Z" fill="white" stroke="#FFA783" stroke-width="27"/>
<defs>
<clipPath id="clip0">
<rect width="1042.79" height="973.659" fill="white" transform="translate(687.819 1801) rotate(22.8705)"/>
</clipPath>
<clipPath id="clip1">
<rect width="951.24" height="951.24" fill="white" transform="translate(2680.19 10474) rotate(14.5382)"/>
</clipPath>
</defs>
</svg>
