<svg width="300" height="1000" viewBox="0 0 4997 16567" fill="none" xmlns="http://www.w3.org/2000/svg">
<path d="M3904.98 528.465C3904.98 514.555 3893.72 503.299 3879.81 503.299C3865.9 503.299 3854.65 514.555 3854.65 528.465C3854.65 594.547 3927.54 685.28 3935.84 695.43C3940.83 701.476 3948.06 704.621 3955.33 704.621C3960.93 704.621 3966.59 702.753 3971.28 698.919C3982.02 690.095 3983.57 674.246 3974.77 663.481C3947.79 630.601 3904.98 564.884 3904.98 528.465Z" fill="#FFA783"/>
<path d="M3904.98 528.465C3904.98 514.555 3893.72 503.299 3879.81 503.299C3865.9 503.299 3854.65 514.555 3854.65 528.465C3854.65 594.547 3927.54 685.28 3935.84 695.43C3940.83 701.476 3948.06 704.621 3955.33 704.621C3960.93 704.621 3966.59 702.753 3971.28 698.919C3982.02 690.095 3983.57 674.246 3974.77 663.481C3947.79 630.601 3904.98 564.884 3904.98 528.465Z" stroke="#FFA783"/>
<path d="M4433.44 503.299C4419.53 503.299 4408.28 514.555 4408.28 528.465C4408.28 564.762 4365.47 630.551 4338.49 663.507C4329.69 674.246 4331.26 690.098 4342 698.919C4346.67 702.753 4352.32 704.621 4357.95 704.621C4365.22 704.621 4372.42 701.476 4377.41 695.43C4385.72 685.28 4458.61 594.549 4458.61 528.465C4458.61 514.555 4447.35 503.299 4433.44 503.299Z" fill="#FFA783"/>
<path d="M4433.44 503.299C4419.53 503.299 4408.28 514.555 4408.28 528.465C4408.28 564.762 4365.47 630.551 4338.49 663.507C4329.69 674.246 4331.26 690.098 4342 698.919C4346.67 702.753 4352.32 704.621 4357.95 704.621C4365.22 704.621 4372.42 701.476 4377.41 695.43C4385.72 685.28 4458.61 594.549 4458.61 528.465C4458.61 514.555 4447.35 503.299 4433.44 503.299Z" stroke="#FFA783"/>
<path d="M4156.63 503.299C4142.72 503.299 4131.46 514.555 4131.46 528.465V679.455C4131.46 693.365 4142.72 704.621 4156.63 704.621C4170.54 704.621 4181.8 693.365 4181.8 679.455V528.465C4181.79 514.555 4170.54 503.299 4156.63 503.299Z" fill="#FFA783"/>
<path d="M4156.63 503.299C4142.72 503.299 4131.46 514.555 4131.46 528.465V679.455C4131.46 693.365 4142.72 704.621 4156.63 704.621C4170.54 704.621 4181.8 693.365 4181.8 679.455V528.465C4181.79 514.555 4170.54 503.299 4156.63 503.299Z" stroke="#FFA783"/>
<path d="M4433.44 100.661C4418.19 100.661 4402.26 102.678 4385.71 105.752C4330.28 41.1425 4248.24 0 4156.63 0C4065.02 0 3982.97 41.1425 3927.55 105.75C3911 102.678 3895.06 100.659 3879.82 100.659C3727.18 100.661 3603 224.839 3603 377.475C3603 482.067 3661.98 577.148 3754.58 624.16L3754.09 1004.46C3754.07 1031.91 3764.73 1057.72 3784.12 1077.13C3803.53 1096.57 3829.31 1107.26 3856.76 1107.26H4456.59C4513.22 1107.26 4559.27 1061.21 4559.27 1004.58V623.792C4651.52 576.657 4710.26 481.722 4710.26 377.475C4710.26 224.839 4586.08 100.661 4433.44 100.661ZM4508.94 1004.59C4508.94 1033.44 4485.44 1056.93 4456.59 1056.93H3856.76C3842.78 1056.93 3829.63 1051.48 3819.73 1041.58C3809.85 1031.67 3804.39 1018.52 3804.42 1004.52L3804.55 905.941H4508.94V1004.59ZM4524.52 584.62C4523.19 585.16 4521.94 585.799 4520.76 586.561C4517.59 588.527 4514.98 591.134 4513.04 594.13C4511.08 597.102 4509.75 600.545 4509.21 604.23C4508.99 605.631 4508.91 607.032 4508.94 608.457V855.609H3804.61L3804.93 608.799C3804.96 607.424 3804.88 606.023 3804.69 604.671C3804.15 600.861 3802.75 597.322 3800.71 594.25C3798.79 591.374 3796.28 588.869 3793.24 586.951C3791.98 586.165 3790.65 585.476 3789.28 584.91C3706.68 548.79 3653.33 467.444 3653.33 377.475C3653.33 252.583 3754.92 150.99 3879.81 150.99C3883.5 150.99 3887.35 151.327 3891.19 151.664C3892.43 151.773 3893.67 151.881 3894.9 151.979C3869.44 196.228 3854.65 247.362 3854.65 301.98C3854.65 315.89 3865.9 327.146 3879.81 327.146C3893.72 327.146 3904.98 315.89 3904.98 301.98C3904.98 163.227 4017.88 50.3293 4156.63 50.3293C4295.38 50.3293 4408.28 163.227 4408.28 301.98C4408.28 315.89 4419.53 327.146 4433.44 327.146C4447.35 327.146 4458.61 315.89 4458.61 301.98C4458.61 247.362 4443.81 196.231 4418.35 151.979C4419.59 151.881 4420.83 151.773 4422.07 151.664C4425.91 151.327 4429.75 150.99 4433.44 150.99C4558.34 150.99 4659.93 252.585 4659.93 377.475C4659.93 467.126 4606.8 548.37 4524.52 584.62Z" fill="#FFA783"/>
<path d="M4433.44 100.661C4418.19 100.661 4402.26 102.678 4385.71 105.752C4330.28 41.1425 4248.24 0 4156.63 0C4065.02 0 3982.97 41.1425 3927.55 105.75C3911 102.678 3895.06 100.659 3879.82 100.659C3727.18 100.661 3603 224.839 3603 377.475C3603 482.067 3661.98 577.148 3754.58 624.16L3754.09 1004.46C3754.07 1031.91 3764.73 1057.72 3784.12 1077.13C3803.53 1096.57 3829.31 1107.26 3856.76 1107.26H4456.59C4513.22 1107.26 4559.27 1061.21 4559.27 1004.58V623.792C4651.52 576.657 4710.26 481.722 4710.26 377.475C4710.26 224.839 4586.08 100.661 4433.44 100.661ZM4508.94 1004.59C4508.94 1033.44 4485.44 1056.93 4456.59 1056.93H3856.76C3842.78 1056.93 3829.63 1051.48 3819.73 1041.58C3809.85 1031.67 3804.39 1018.52 3804.42 1004.52L3804.55 905.941H4508.94V1004.59ZM4524.52 584.62C4523.19 585.16 4521.94 585.799 4520.76 586.561C4517.59 588.527 4514.98 591.134 4513.04 594.13C4511.08 597.102 4509.75 600.545 4509.21 604.23C4508.99 605.631 4508.91 607.032 4508.94 608.457V855.609H3804.61L3804.93 608.799C3804.96 607.424 3804.88 606.023 3804.69 604.671C3804.15 600.861 3802.75 597.322 3800.71 594.25C3798.79 591.374 3796.28 588.869 3793.24 586.951C3791.98 586.165 3790.65 585.476 3789.28 584.91C3706.68 548.79 3653.33 467.444 3653.33 377.475C3653.33 252.583 3754.92 150.99 3879.81 150.99C3883.5 150.99 3887.35 151.327 3891.19 151.664C3892.43 151.773 3893.67 151.881 3894.9 151.979C3869.44 196.228 3854.65 247.362 3854.65 301.98C3854.65 315.89 3865.9 327.146 3879.81 327.146C3893.72 327.146 3904.98 315.89 3904.98 301.98C3904.98 163.227 4017.88 50.3293 4156.63 50.3293C4295.38 50.3293 4408.28 163.227 4408.28 301.98C4408.28 315.89 4419.53 327.146 4433.44 327.146C4447.35 327.146 4458.61 315.89 4458.61 301.98C4458.61 247.362 4443.81 196.231 4418.35 151.979C4419.59 151.881 4420.83 151.773 4422.07 151.664C4425.91 151.327 4429.75 150.99 4433.44 150.99C4558.34 150.99 4659.93 252.585 4659.93 377.475C4659.93 467.126 4606.8 548.37 4524.52 584.62Z" stroke="#FFA783"/>
<path d="M1181.78 4668.39L1181.67 4668.98H1182.27H1218.95C1233.01 4668.98 1244.39 4680.36 1244.39 4694.42C1244.39 4708.48 1233.01 4719.85 1218.95 4719.85H1170.3H1169.92L1169.82 4720.22C1122.65 4887.75 1001.85 5022.96 844.711 5089.57L844.26 5089.76L844.442 5090.21L869.833 5153.64C877.459 5172.75 881.296 5192.75 881.296 5213.12C881.296 5255.75 846.619 5290.43 803.99 5290.43H440.899C398.27 5290.43 363.594 5255.75 363.594 5213.12C363.594 5192.75 367.43 5172.75 375.005 5153.69L400.44 5090.21L400.622 5089.76L400.171 5089.57C243.033 5022.95 122.232 4887.74 75.0675 4720.22L74.9649 4719.85H74.5862H25.936C11.8764 4719.85 0.5 4708.48 0.5 4694.42C0.5 4680.36 11.8764 4668.98 25.936 4668.98H62.6188H63.2187L63.1106 4668.39C59.7728 4650.16 57.3265 4631.66 55.7523 4612.84L55.724 4612.5L55.4001 4612.41C23.7362 4602.73 0.5 4573.59 0.5 4538.81C0.5 4496.18 35.1767 4461.5 77.8054 4461.5H1167.08C1209.71 4461.5 1244.39 4496.18 1244.39 4538.81C1244.39 4573.59 1221.15 4602.73 1189.49 4612.41L1189.16 4612.51L1189.13 4612.84C1187.56 4631.66 1185.11 4650.17 1181.78 4668.39ZM422.248 5172.56L422.247 5172.57C417.106 5185.54 414.461 5199.2 414.461 5213.12C414.461 5227.71 426.336 5239.56 440.897 5239.56H803.99C818.551 5239.56 830.424 5227.71 830.424 5213.12C830.424 5199.2 827.778 5185.54 822.588 5172.51L822.588 5172.51L796.703 5107.8L796.53 5107.37L796.087 5107.51C741.261 5125.03 683.017 5134.82 622.443 5134.82C561.868 5134.82 503.619 5125.03 448.793 5107.51L448.35 5107.37L448.177 5107.8L422.248 5172.56ZM107.622 4616.11H107.07L107.124 4616.66C133.382 4880.72 354.288 5083.95 622.443 5083.95C890.599 5083.95 1111.5 4880.72 1137.76 4616.66L1137.82 4616.11H1137.26H107.622ZM77.8054 4565.24H1167.08C1181.64 4565.24 1193.52 4553.39 1193.52 4538.81C1193.52 4524.22 1181.64 4512.37 1167.08 4512.37H77.8054C63.245 4512.37 51.3695 4524.22 51.3695 4538.81C51.3695 4553.39 63.245 4565.24 77.8054 4565.24Z" fill="#FFA783" stroke="#FFA783"/>
<path d="M388.526 4772.22C388.526 4786.27 377.138 4797.66 363.09 4797.66C349.042 4797.66 337.654 4786.27 337.654 4772.22C337.654 4758.18 349.042 4746.79 363.09 4746.79C377.138 4746.79 388.526 4758.18 388.526 4772.22Z" fill="#FFA783" stroke="#FFA783"/>
<path d="M388.526 4694.42C388.526 4708.46 377.138 4719.85 363.09 4719.85C349.042 4719.85 337.654 4708.46 337.654 4694.42C337.654 4680.37 349.042 4668.98 363.09 4668.98C377.138 4668.98 388.526 4680.37 388.526 4694.42Z" fill="#FFA783" stroke="#FFA783"/>
<path d="M388.526 4850.03C388.526 4864.08 377.138 4875.46 363.09 4875.46C349.042 4875.46 337.654 4864.08 337.654 4850.03C337.654 4835.98 349.042 4824.59 363.09 4824.59C377.138 4824.59 388.526 4835.98 388.526 4850.03Z" fill="#FFA783" stroke="#FFA783"/>
<path d="M466.332 4772.22C466.332 4786.27 454.944 4797.66 440.896 4797.66C426.848 4797.66 415.46 4786.27 415.46 4772.22C415.46 4758.18 426.848 4746.79 440.896 4746.79C454.944 4746.79 466.332 4758.18 466.332 4772.22Z" fill="#FFA783" stroke="#FFA783"/>
<path d="M310.722 4772.22C310.722 4786.27 299.334 4797.66 285.286 4797.66C271.238 4797.66 259.85 4786.27 259.85 4772.22C259.85 4758.18 271.238 4746.79 285.286 4746.79C299.334 4746.79 310.722 4758.18 310.722 4772.22Z" fill="#FFA783" stroke="#FFA783"/>
<path d="M907.233 4772.22C907.233 4786.27 895.845 4797.66 881.797 4797.66C867.749 4797.66 856.361 4786.27 856.361 4772.22C856.361 4758.18 867.749 4746.79 881.797 4746.79C895.845 4746.79 907.233 4758.18 907.233 4772.22Z" fill="#FFA783" stroke="#FFA783"/>
<path d="M907.233 4694.42C907.233 4708.46 895.845 4719.85 881.797 4719.85C867.749 4719.85 856.361 4708.46 856.361 4694.42C856.361 4680.37 867.749 4668.98 881.797 4668.98C895.845 4668.98 907.233 4680.37 907.233 4694.42Z" fill="#FFA783" stroke="#FFA783"/>
<path d="M907.233 4850.03C907.233 4864.08 895.845 4875.46 881.797 4875.46C867.749 4875.46 856.361 4864.08 856.361 4850.03C856.361 4835.98 867.749 4824.59 881.797 4824.59C895.845 4824.59 907.233 4835.98 907.233 4850.03Z" fill="#FFA783" stroke="#FFA783"/>
<path d="M985.037 4772.22C985.037 4786.27 973.648 4797.66 959.601 4797.66C945.553 4797.66 934.165 4786.27 934.165 4772.22C934.165 4758.18 945.553 4746.79 959.601 4746.79C973.648 4746.79 985.037 4758.18 985.037 4772.22Z" fill="#FFA783" stroke="#FFA783"/>
<path d="M829.426 4772.22C829.426 4786.27 818.038 4797.66 803.99 4797.66C789.942 4797.66 778.554 4786.27 778.554 4772.22C778.554 4758.18 789.942 4746.79 803.99 4746.79C818.038 4746.79 829.426 4758.18 829.426 4772.22Z" fill="#FFA783" stroke="#FFA783"/>
<path d="M647.881 4901.9C647.881 4915.95 636.493 4927.34 622.445 4927.34C608.397 4927.34 597.009 4915.95 597.009 4901.9C597.009 4887.85 608.397 4876.46 622.445 4876.46C636.493 4876.46 647.881 4887.85 647.881 4901.9Z" fill="#FFA783" stroke="#FFA783"/>
<path d="M647.881 4824.1C647.881 4838.14 636.493 4849.53 622.445 4849.53C608.397 4849.53 597.009 4838.14 597.009 4824.1C597.009 4810.05 608.397 4798.66 622.445 4798.66C636.493 4798.66 647.881 4810.05 647.881 4824.1Z" fill="#FFA783" stroke="#FFA783"/>
<path d="M647.881 4979.71C647.881 4993.75 636.493 5005.14 622.445 5005.14C608.397 5005.14 597.009 4993.75 597.009 4979.71C597.009 4965.66 608.397 4954.27 622.445 4954.27C636.493 4954.27 647.881 4965.66 647.881 4979.71Z" fill="#FFA783" stroke="#FFA783"/>
<path d="M725.685 4901.9C725.685 4915.95 714.297 4927.34 700.249 4927.34C686.202 4927.34 674.813 4915.95 674.813 4901.9C674.813 4887.85 686.202 4876.46 700.249 4876.46C714.297 4876.46 725.685 4887.85 725.685 4901.9Z" fill="#FFA783" stroke="#FFA783"/>
<path d="M570.072 4901.9C570.072 4915.95 558.684 4927.34 544.636 4927.34C530.588 4927.34 519.2 4915.95 519.2 4901.9C519.2 4887.85 530.588 4876.46 544.636 4876.46C558.684 4876.46 570.072 4887.85 570.072 4901.9Z" fill="#FFA783" stroke="#FFA783"/>
<path d="M677.917 13718C670.236 13695.7 654.788 13678 634.371 13667.9L596.534 13649.3C576.117 13639.3 553.235 13638.4 532.12 13646.4C511.004 13654.5 494.119 13670.8 484.588 13692.4L475.96 13712C475.836 13712.3 475.713 13712.6 475.589 13713L388.497 13938.8L301.034 13712L292.406 13692.4C282.92 13670.9 266.077 13654.5 244.92 13646.4C223.846 13638.3 200.881 13639.3 180.505 13649.3L142.587 13667.9C122.212 13678 106.764 13695.7 99.0827 13718C91.4014 13740.3 92.4683 13764.4 101.999 13785.8L301.847 14163.6L117.855 14640.8C109.681 14663.2 120.074 14688.9 141.436 14699.4C147.721 14702.5 154.377 14704 160.908 14704C176.519 14704 191.472 14695.5 199.155 14680.8L388.489 14326L577.762 14680.7C585.526 14695.5 600.481 14704 616.131 14704C622.621 14704 629.277 14702.5 635.562 14699.4C656.924 14688.9 667.319 14663.2 658.979 14640.4L475.157 14163.6L666.292 13805.4L675.001 13785.8C684.532 13764.4 685.599 13740.3 677.917 13718ZM148.805 13786.6L140.095 13767C135.287 13756.3 134.754 13744.2 138.616 13733.1C142.437 13722 150.16 13713.1 160.35 13708.1L198.272 13689.5C208.379 13684.5 219.843 13683.9 230.482 13688C241.041 13692.1 249.464 13700.2 254.189 13711L302.077 13834L200.664 13883.8L148.805 13786.6ZM221.328 13922.5L318.04 13875L365.796 13997.7L322.051 14111.2L221.328 13922.5ZM619.975 14656.8L614.51 14659.1L412.606 14280.8L448.826 14212.9L619.975 14656.8ZM162.488 14659.1C162.406 14659.1 161.069 14658.6 159.727 14658.1C158.377 14657.5 157.023 14657 156.94 14657L458.58 13874.8L554.531 13921.9L162.488 14659.1ZM636.901 13767L575.131 13883.2L474.418 13833.8L514.384 13730.1L522.766 13711C527.533 13700.2 535.995 13692.1 546.555 13688C557.114 13684 568.619 13684.5 578.766 13689.5L616.607 13708.1C626.838 13713.1 634.561 13722 638.383 13733.1C642.244 13744.2 641.709 13756.3 636.901 13767Z" fill="#FFA783"/>
<path d="M677.917 13718C670.236 13695.7 654.788 13678 634.371 13667.9L596.534 13649.3C576.117 13639.3 553.235 13638.4 532.12 13646.4C511.004 13654.5 494.119 13670.8 484.588 13692.4L475.96 13712C475.836 13712.3 475.713 13712.6 475.589 13713L388.497 13938.8L301.034 13712L292.406 13692.4C282.92 13670.9 266.077 13654.5 244.92 13646.4C223.846 13638.3 200.881 13639.3 180.505 13649.3L142.587 13667.9C122.212 13678 106.764 13695.7 99.0827 13718C91.4014 13740.3 92.4683 13764.4 101.999 13785.8L301.847 14163.6L117.855 14640.8C109.681 14663.2 120.074 14688.9 141.436 14699.4C147.721 14702.5 154.377 14704 160.908 14704C176.519 14704 191.472 14695.5 199.155 14680.8L388.489 14326L577.762 14680.7C585.526 14695.5 600.481 14704 616.131 14704C622.621 14704 629.277 14702.5 635.562 14699.4C656.924 14688.9 667.319 14663.2 658.979 14640.4L475.157 14163.6L666.292 13805.4L675.001 13785.8C684.532 13764.4 685.599 13740.3 677.917 13718ZM148.805 13786.6L140.095 13767C135.287 13756.3 134.754 13744.2 138.616 13733.1C142.437 13722 150.16 13713.1 160.35 13708.1L198.272 13689.5C208.379 13684.5 219.843 13683.9 230.482 13688C241.041 13692.1 249.464 13700.2 254.189 13711L302.077 13834L200.664 13883.8L148.805 13786.6ZM221.328 13922.5L318.04 13875L365.796 13997.7L322.051 14111.2L221.328 13922.5ZM619.975 14656.8L614.51 14659.1L412.606 14280.8L448.826 14212.9L619.975 14656.8ZM162.488 14659.1C162.406 14659.1 161.069 14658.6 159.727 14658.1C158.377 14657.5 157.023 14657 156.94 14657L458.58 13874.8L554.531 13921.9L162.488 14659.1ZM636.901 13767L575.131 13883.2L474.418 13833.8L514.384 13730.1L522.766 13711C527.533 13700.2 535.995 13692.1 546.555 13688C557.114 13684 568.619 13684.5 578.766 13689.5L616.607 13708.1C626.838 13713.1 634.561 13722 638.383 13733.1C642.244 13744.2 641.709 13756.3 636.901 13767Z" stroke="#FFA783"/>
<path d="M745.349 1295.45H671.48C644.054 1295.45 621.732 1317.78 621.734 1345.2C621.734 1372.62 644.057 1394.95 671.48 1394.95C725.525 1394.95 769.472 1438.89 769.472 1492.94C769.472 1546.98 725.523 1590.93 671.48 1590.93H597.611C584.276 1590.93 573.487 1580.14 573.487 1566.81C573.487 1553.47 584.276 1542.68 597.611 1542.68H671.48C698.903 1542.68 721.225 1520.36 721.225 1492.94C721.225 1465.52 698.903 1443.19 671.48 1443.19C617.434 1443.19 573.487 1399.25 573.487 1345.2C573.487 1291.15 617.437 1247.21 671.48 1247.21H745.349C758.683 1247.21 769.472 1258 769.472 1271.33C769.472 1284.66 758.683 1295.45 745.349 1295.45Z" fill="#FFA783" stroke="#FFA783"/>
<path d="M916.356 955.411L916.279 955.834L916.686 955.973C945.534 965.861 966.454 992.95 966.454 1025.1C966.454 1056.34 946.75 1082.89 919.178 1093.46L918.829 1093.59L918.859 1093.96L966.38 1687.98C966.444 1743.99 922.492 1787.92 868.462 1787.92H474.493C420.454 1787.92 376.511 1743.98 376.5 1689.95L424.098 1093.96L424.128 1093.59L423.778 1093.45C396.206 1082.89 376.5 1056.34 376.5 1025.1C376.5 992.95 397.423 965.863 426.268 955.973L426.675 955.834L426.598 955.411C426.499 954.865 426.351 954.326 426.211 953.814C426.16 953.628 426.109 953.445 426.063 953.267C425.884 952.582 425.748 951.924 425.748 951.232C425.748 815.743 535.992 705.5 671.478 705.5C806.964 705.5 917.207 815.743 917.207 951.232C917.207 951.924 917.07 952.582 916.891 953.267C916.845 953.445 916.795 953.628 916.744 953.813C916.603 954.325 916.455 954.864 916.356 955.411ZM647.846 756.636L647.793 756.129L647.287 756.192C549.902 768.283 473.993 850.618 473.993 951.232V951.732H474.493H868.462H868.962V951.232C868.962 850.618 793.055 768.283 695.67 756.192L695.163 756.129L695.111 756.636C693.854 768.791 683.938 778.369 671.478 778.369C659.019 778.369 649.102 768.793 647.846 756.636ZM424.675 1691.86L424.674 1691.88L424.674 1691.9C424.748 1717.36 447.083 1739.67 474.493 1739.67H868.462C895.885 1739.67 918.207 1717.35 918.207 1689.92V1689.9L918.205 1689.88L870.846 1098.93L870.809 1098.47H870.347H472.607H472.145L472.108 1098.93L424.675 1691.86ZM449.871 1050.22H893.085C906.946 1050.22 918.209 1038.96 918.209 1025.1C918.209 1011.24 906.946 999.977 893.085 999.977H449.871C436.008 999.977 424.748 1011.24 424.748 1025.1C424.748 1038.96 436.01 1050.22 449.871 1050.22Z" fill="#FFA783" stroke="#FFA783"/>
<path d="M646.357 828.115C646.357 841.439 635.556 852.239 622.233 852.239C608.91 852.239 598.109 841.439 598.109 828.115C598.109 814.792 608.91 803.991 622.233 803.991C635.556 803.991 646.357 814.792 646.357 828.115Z" fill="#FFA783" stroke="#FFA783"/>
<path d="M744.849 828.115C744.849 841.439 734.048 852.239 720.725 852.239C707.402 852.239 696.601 841.439 696.601 828.115C696.601 814.792 707.402 803.991 720.725 803.991C734.048 803.991 744.849 814.792 744.849 828.115Z" fill="#FFA783" stroke="#FFA783"/>
<path d="M4918.56 6632.53V6406H4547.22C4488.04 6406 4431.19 6426.58 4390.87 6461.86C4350.55 6426.58 4293.69 6406 4234.51 6406H3863.18V6632.53H3785V7344.5H4255.62C4283.37 7384.13 4335.14 7409.22 4390.87 7409.22C4446.59 7409.22 4498.36 7384.13 4526.11 7344.5H4996.73V6632.53H4918.56ZM3902.26 6438.36H4234.51C4287.55 6438.36 4338.11 6458.71 4371.32 6492.79V6842.89H4410.41V6492.79C4443.62 6458.71 4494.18 6438.36 4547.22 6438.36H4879.47V7117.96H4797.52C4650.61 7117.96 4511.82 7166.85 4410.41 7253.2V6875.25H4371.32V7253.2C4269.93 7166.85 4131.16 7117.96 3984.21 7117.96H3902.26V6438.36ZM3941.35 7150.33H3984.21C4105.41 7150.33 4220.56 7186.2 4310.71 7250.44C4230.21 7227.19 4144.94 7215.05 4059.71 7215.05H3941.35V7150.33ZM4840.38 7150.33V7215.05H4722.02C4636.79 7215.05 4551.48 7227.19 4470.98 7250.45C4561.15 7186.2 4676.35 7150.33 4797.52 7150.33H4840.38ZM4957.65 7312.14H4501.99L4496.7 7321.36C4477.33 7355.08 4435.78 7376.86 4390.87 7376.86C4345.96 7376.86 4304.41 7355.08 4285.05 7321.36L4279.74 7312.14H3824.09V6664.9H3863.18V7150.33H3902.26V7247.41H4059.71C4171.07 7247.41 4282.55 7269.21 4382.13 7310.44L4390.87 7314.05L4399.6 7310.42C4499.18 7269.21 4610.66 7247.41 4722.02 7247.41H4879.47V7150.33H4918.56V6664.9H4957.65V7312.14Z" fill="#FFA783"/>
<path d="M4918.56 6632.53V6406H4547.22C4488.04 6406 4431.19 6426.58 4390.87 6461.86C4350.55 6426.58 4293.69 6406 4234.51 6406H3863.18V6632.53H3785V7344.5H4255.62C4283.37 7384.13 4335.14 7409.22 4390.87 7409.22C4446.59 7409.22 4498.36 7384.13 4526.11 7344.5H4996.73V6632.53H4918.56ZM3902.26 6438.36H4234.51C4287.55 6438.36 4338.11 6458.71 4371.32 6492.79V6842.89H4410.41V6492.79C4443.62 6458.71 4494.18 6438.36 4547.22 6438.36H4879.47V7117.96H4797.52C4650.61 7117.96 4511.82 7166.85 4410.41 7253.2V6875.25H4371.32V7253.2C4269.93 7166.85 4131.16 7117.96 3984.21 7117.96H3902.26V6438.36ZM3941.35 7150.33H3984.21C4105.41 7150.33 4220.56 7186.2 4310.71 7250.44C4230.21 7227.19 4144.94 7215.05 4059.71 7215.05H3941.35V7150.33ZM4840.38 7150.33V7215.05H4722.02C4636.79 7215.05 4551.48 7227.19 4470.98 7250.45C4561.15 7186.2 4676.35 7150.33 4797.52 7150.33H4840.38ZM4957.65 7312.14H4501.99L4496.7 7321.36C4477.33 7355.08 4435.78 7376.86 4390.87 7376.86C4345.96 7376.86 4304.41 7355.08 4285.05 7321.36L4279.74 7312.14H3824.09V6664.9H3863.18V7150.33H3902.26V7247.41H4059.71C4171.07 7247.41 4282.55 7269.21 4382.13 7310.44L4390.87 7314.05L4399.6 7310.42C4499.18 7269.21 4610.66 7247.41 4722.02 7247.41H4879.47V7150.33H4918.56V6664.9H4957.65V7312.14Z" stroke="#FFA783"/>
<path d="M4068.76 7026.14C4076.95 7051.62 4104.94 7069.42 4136.79 7069.42C4168.65 7069.42 4196.64 7051.62 4204.83 7026.14L4268.97 6826.98L4268.99 6826.97C4272.06 6817.43 4273.6 6807.61 4273.6 6797.8V6794.34C4273.6 6749.81 4242.33 6711.34 4197.11 6692.83L4223.49 6594.51C4227.36 6580.06 4223.16 6565.14 4211.98 6553.6C4200.8 6542.07 4184.11 6535.45 4166.24 6535.45H4156.34V6534.2C4156.34 6508.13 4130.7 6486.91 4099.21 6486.91C4083.34 6486.91 4068.06 6492.42 4057.27 6502.07C4046.5 6511.7 4041.01 6524.73 4042.22 6537.83L4057.5 6702.21C4022.75 6722.78 3999.99 6756.36 3999.99 6794.34V6797.8C3999.99 6807.61 4001.53 6817.43 4004.59 6827L4068.76 7026.14ZM4234.51 6794.34V6797.8C4234.51 6804.81 4233.4 6811.84 4231.23 6818.65L4167.08 7017.8C4163.41 7029.15 4150.98 7037.06 4136.79 7037.06C4122.6 7037.06 4110.18 7029.15 4106.5 7017.8L4081.44 6939.97H4136.79V6907.61H4071.02L4060.61 6875.25H4097.71V6842.89H4050.17L4042.38 6818.66C4041.52 6815.98 4040.95 6813.24 4040.44 6810.52H4136.79V6778.16H4041.05C4050.13 6741.29 4089.59 6713.44 4136.79 6713.44C4190.67 6713.44 4234.51 6749.74 4234.51 6794.34ZM4166.24 6567.81C4172.21 6567.81 4177.76 6570.01 4181.47 6573.86C4185.21 6577.71 4186.61 6582.68 4185.3 6587.5L4159.72 6682.79C4158.86 6682.67 4158 6682.57 4157.14 6682.46C4156.87 6682.42 4156.59 6682.39 4156.32 6682.36V6567.81H4166.24ZM4081.21 6535.35C4080.82 6531.16 4082.5 6527.14 4085.96 6524.06C4089.42 6520.97 4094.11 6519.27 4099.21 6519.27C4109.16 6519.27 4117.25 6525.97 4117.25 6534.2V6682.37C4109.73 6683.28 4102.33 6684.57 4095.26 6686.45L4081.21 6535.35Z" fill="#FFA783"/>
<path d="M4068.76 7026.14C4076.95 7051.62 4104.94 7069.42 4136.79 7069.42C4168.65 7069.42 4196.64 7051.62 4204.83 7026.14L4268.97 6826.98L4268.99 6826.97C4272.06 6817.43 4273.6 6807.61 4273.6 6797.8V6794.34C4273.6 6749.81 4242.33 6711.34 4197.11 6692.83L4223.49 6594.51C4227.36 6580.06 4223.16 6565.14 4211.98 6553.6C4200.8 6542.07 4184.11 6535.45 4166.24 6535.45H4156.34V6534.2C4156.34 6508.13 4130.7 6486.91 4099.21 6486.91C4083.34 6486.91 4068.06 6492.42 4057.27 6502.07C4046.5 6511.7 4041.01 6524.73 4042.22 6537.83L4057.5 6702.21C4022.75 6722.78 3999.99 6756.36 3999.99 6794.34V6797.8C3999.99 6807.61 4001.53 6817.43 4004.59 6827L4068.76 7026.14ZM4234.51 6794.34V6797.8C4234.51 6804.81 4233.4 6811.84 4231.23 6818.65L4167.08 7017.8C4163.41 7029.15 4150.98 7037.06 4136.79 7037.06C4122.6 7037.06 4110.18 7029.15 4106.5 7017.8L4081.44 6939.97H4136.79V6907.61H4071.02L4060.61 6875.25H4097.71V6842.89H4050.17L4042.38 6818.66C4041.52 6815.98 4040.95 6813.24 4040.44 6810.52H4136.79V6778.16H4041.05C4050.13 6741.29 4089.59 6713.44 4136.79 6713.44C4190.67 6713.44 4234.51 6749.74 4234.51 6794.34ZM4166.24 6567.81C4172.21 6567.81 4177.76 6570.01 4181.47 6573.86C4185.21 6577.71 4186.61 6582.68 4185.3 6587.5L4159.72 6682.79C4158.86 6682.67 4158 6682.57 4157.14 6682.46C4156.87 6682.42 4156.59 6682.39 4156.32 6682.36V6567.81H4166.24ZM4081.21 6535.35C4080.82 6531.16 4082.5 6527.14 4085.96 6524.06C4089.42 6520.97 4094.11 6519.27 4099.21 6519.27C4109.16 6519.27 4117.25 6525.97 4117.25 6534.2V6682.37C4109.73 6683.28 4102.33 6684.57 4095.26 6686.45L4081.21 6535.35Z" stroke="#FFA783"/>
<path d="M4527.79 7016.25C4560.12 7040.16 4602.1 7053.22 4645.35 7053.21C4651.99 7053.21 4658.66 7052.9 4665.32 7052.28C4744.45 7044.89 4809.25 6992.09 4819.37 6926.75C4829.55 6860.78 4784.95 6797.38 4710.9 6772.56L4696.24 6802.56C4753.83 6821.87 4788.53 6871.25 4780.57 6922.65C4772.74 6973.38 4722.39 7014.37 4660.92 7020.1C4621.29 7023.93 4583.23 7013.85 4553.82 6992.09C4524.8 6970.63 4508.13 6939.83 4508.13 6907.61C4508.13 6853.65 4554.45 6806.91 4618.29 6796.48C4645.05 6792.11 4664.48 6772.19 4664.48 6749.12V6745.8H4684.03C4737.91 6745.8 4781.75 6709.5 4781.75 6664.89V6648.71H4723.12C4701.03 6648.71 4680.86 6655.04 4664.48 6665.31V6600.17H4625.4V6749.13C4625.4 6756.79 4619.24 6763.36 4610.72 6764.75C4528.63 6778.15 4469.04 6838.22 4469.04 6907.61C4469.04 6949.03 4490.47 6988.63 4527.79 7016.25ZM4723.12 6681.08H4739.32C4731.25 6699.91 4709.52 6713.44 4684.03 6713.44H4667.82C4675.9 6694.6 4697.63 6681.08 4723.12 6681.08Z" fill="#FFA783"/>
<path d="M4527.79 7016.25C4560.12 7040.16 4602.1 7053.22 4645.35 7053.21C4651.99 7053.21 4658.66 7052.9 4665.32 7052.28C4744.45 7044.89 4809.25 6992.09 4819.37 6926.75C4829.55 6860.78 4784.95 6797.38 4710.9 6772.56L4696.24 6802.56C4753.83 6821.87 4788.53 6871.25 4780.57 6922.65C4772.74 6973.38 4722.39 7014.37 4660.92 7020.1C4621.29 7023.93 4583.23 7013.85 4553.82 6992.09C4524.8 6970.63 4508.13 6939.83 4508.13 6907.61C4508.13 6853.65 4554.45 6806.91 4618.29 6796.48C4645.05 6792.11 4664.48 6772.19 4664.48 6749.12V6745.8H4684.03C4737.91 6745.8 4781.75 6709.5 4781.75 6664.89V6648.71H4723.12C4701.03 6648.71 4680.86 6655.04 4664.48 6665.31V6600.17H4625.4V6749.13C4625.4 6756.79 4619.24 6763.36 4610.72 6764.75C4528.63 6778.15 4469.04 6838.22 4469.04 6907.61C4469.04 6949.03 4490.47 6988.63 4527.79 7016.25ZM4723.12 6681.08H4739.32C4731.25 6699.91 4709.52 6713.44 4684.03 6713.44H4667.82C4675.9 6694.6 4697.63 6681.08 4723.12 6681.08Z" stroke="#FFA783"/>
<path d="M4644.94 6859.07C4677.26 6859.07 4703.57 6880.85 4703.57 6907.61H4742.66C4742.66 6863 4698.82 6826.71 4644.94 6826.71V6859.07Z" fill="#FFA783"/>
<path d="M4644.94 6859.07C4677.26 6859.07 4703.57 6880.85 4703.57 6907.61H4742.66C4742.66 6863 4698.82 6826.71 4644.94 6826.71V6859.07Z" stroke="#FFA783"/>
<path d="M4684.03 6470.72H4840.38V6503.09H4684.03V6470.72Z" fill="#FFA783"/>
<path d="M4684.03 6470.72H4840.38V6503.09H4684.03V6470.72Z" stroke="#FFA783"/>
<path d="M4684.03 6535.45H4840.38V6567.81H4684.03V6535.45Z" fill="#FFA783"/>
<path d="M4684.03 6535.45H4840.38V6567.81H4684.03V6535.45Z" stroke="#FFA783"/>
<path d="M1905.74 11835.2V11835.7H1906.24H2027.27V11956.2H1906.24H1905.74V11956.7V11977V12138.5H1177.57V11977V11939C1177.57 11911.9 1166.35 11885.9 1146.79 11867.4L1146.46 11867.7L1146.79 11867.4C1089.54 11813.4 985.205 11710.8 979.074 11704.8L978.803 11704.5C978.802 11704.5 978.802 11704.5 978.801 11704.5C947.915 11673.6 931.946 11630.9 934.833 11587.3C937.72 11543.7 959.261 11503.4 993.985 11476.9L993.707 11476.5L993.985 11476.9C1047.21 11436.1 1121.87 11437.3 1176.78 11477.1L1177.57 11477.7V11476.7V11389.6C1177.57 11191.5 1338.7 11028.2 1536.74 11025.5C1632.15 11024.5 1722.84 11061.5 1792.71 11130.4L1793.06 11130.1L1792.71 11130.4C1864.56 11201.3 1905.74 11299.1 1905.74 11398.9V11835.2ZM1865.73 12099H1866.23V12098.5V12017.5V12017H1865.73H1217.58H1217.08V12017.5V12098.5V12099H1217.58H1865.73ZM1217.08 11977V11977.5H1217.58H1865.21H1865.71H1865.73V11977H1866.21V11956.7V11835.2V11398.9C1866.21 11309.6 1829.32 11222 1764.95 11158.5C1702.68 11097.1 1621.41 11063.5 1537.25 11065C1360.7 11067.4 1217.06 11213 1217.06 11389.6V11501.5C1217.06 11503.8 1216.6 11506 1216.06 11508.3L1215.99 11508.6L1216.21 11508.8L1275.92 11562.9C1284 11570.2 1284.59 11582.7 1277.28 11590.8C1273.37 11595.1 1268.02 11597.3 1262.65 11597.3C1257.9 11597.3 1253.14 11595.6 1249.37 11592.2L1178.6 11528L1178.53 11527.9L1178.45 11527.9C1174.76 11526.5 1171.26 11524.6 1168.37 11521.7L1168.01 11522L1168.37 11521.7C1126.85 11480.2 1062.22 11474.3 1018.01 11508.2L1018.3 11508.6L1018.01 11508.2C991.947 11528.2 976.4 11557.2 974.264 11589.8C972.128 11622.2 983.928 11653.7 1006.61 11676.4L1006.62 11676.5C1006.65 11676.5 1006.82 11676.7 1007.12 11676.9C1015.19 11684.9 1117.58 11785.5 1173.91 11838.6C1201.36 11864.5 1217.08 11901.1 1217.08 11939V11977ZM1987.26 11916.7H1987.76V11916.2V11875.7V11875.2H1987.26H1906.24H1905.74V11875.7V11916.2V11916.7H1906.24H1987.26Z" fill="#FFA783" stroke="#FFA783"/>
<path d="M1429.9 11752.1L1393.94 11788L1366 11760.1L1401.97 11724.1L1402.32 11723.8L1401.97 11723.4L1366 11687.5L1393.94 11659.5L1429.9 11695.5L1430.25 11695.8L1430.61 11695.5L1466.57 11659.5L1494.5 11687.5L1458.56 11723.4L1458.21 11723.8L1458.56 11724.1L1494.5 11760.1L1466.57 11788L1430.61 11752.1L1430.25 11751.7L1429.9 11752.1Z" fill="#FFA783" stroke="#FFA783"/>
<path d="M1689.38 11788L1653.41 11752.1L1653.06 11751.7L1652.71 11752.1L1616.74 11788L1588.81 11760.1L1624.77 11724.1L1625.13 11723.8L1624.77 11723.4L1588.81 11687.5L1616.74 11659.5L1652.71 11695.5L1653.06 11695.8L1653.41 11695.5L1689.38 11659.5L1717.31 11687.5L1681.37 11723.4L1681.01 11723.8L1681.37 11724.1L1717.31 11760.1L1689.38 11788Z" fill="#FFA783" stroke="#FFA783"/>
<path d="M1348.88 11914.1L1312.92 11950.1L1284.98 11922.1L1320.95 11886.2L1321.3 11885.8L1320.95 11885.5L1284.98 11849.5L1312.92 11821.6L1348.88 11857.5L1349.23 11857.9L1349.59 11857.5L1385.55 11821.6L1413.48 11849.5L1377.54 11885.5L1377.19 11885.8L1377.54 11886.2L1413.48 11922.1L1385.55 11950.1L1349.59 11914.1L1349.23 11913.7L1348.88 11914.1Z" fill="#FFA783" stroke="#FFA783"/>
<path d="M1551.43 11914.1L1515.47 11950.1L1487.54 11922.1L1523.5 11886.2L1523.85 11885.8L1523.5 11885.5L1487.54 11849.5L1515.47 11821.6L1551.43 11857.5L1551.79 11857.9L1552.14 11857.5L1588.1 11821.6L1616.04 11849.5L1580.09 11885.5L1579.74 11885.8L1580.09 11886.2L1616.04 11922.1L1588.1 11950.1L1552.14 11914.1L1551.79 11913.7L1551.43 11914.1Z" fill="#FFA783" stroke="#FFA783"/>
<path d="M1753.98 11914.1L1718.02 11950.1L1690.08 11922.1L1726.05 11886.2L1726.4 11885.8L1726.05 11885.5L1690.08 11849.5L1718.02 11821.6L1753.98 11857.5L1754.33 11857.9L1754.69 11857.5L1790.65 11821.6L1818.58 11849.5L1782.64 11885.5L1782.29 11885.8L1782.64 11886.2L1818.58 11922.1L1790.65 11950.1L1754.69 11914.1L1754.33 11913.7L1753.98 11914.1Z" fill="#FFA783" stroke="#FFA783"/>
<path d="M4481.03 13035.4L4481.39 13035.1L4481.03 13035.4C4501.01 13055.4 4512.01 13081.9 4512.01 13110.2C4512.01 13138.4 4501.01 13165 4481.03 13185L4481.38 13185.3L4481.03 13185C4466.63 13199.4 4448.46 13209.2 4428.48 13213.3C4402.02 13218.7 4368.55 13227.7 4342.4 13248L4342.02 13248.3L4342.3 13248.7C4359.43 13272.2 4372.32 13296.9 4377.23 13319.4C4382.14 13341.8 4379.06 13362.1 4364.33 13376.8L3716.8 14024.4C3706.27 14034.9 3692.97 14039.5 3678.04 14039.5C3651.08 14039.5 3618.97 14024.4 3588.73 14002.3L3588.33 14002L3588.04 14002.4C3567.79 14028.6 3558.78 14062.1 3553.32 14088.5L3553.32 14088.5C3549.25 14108.5 3539.44 14126.7 3524.98 14141.1C3504.38 14161.7 3477.28 14172 3450.23 14172C3423.18 14172 3396.07 14161.7 3375.48 14141.1L3375.15 14141.4L3375.47 14141.1C3355.5 14121.1 3344.5 14094.6 3344.5 14066.3C3344.5 14038.1 3355.49 14011.5 3375.48 13991.6L3375.48 13991.6C3389.88 13977.1 3408.05 13967.3 3428.03 13963.2C3454.48 13957.8 3487.96 13948.8 3514.11 13928.5L3514.49 13928.2L3514.21 13927.8C3497.08 13904.3 3484.18 13879.6 3479.27 13857.2C3474.37 13834.7 3477.45 13814.5 3492.18 13799.7L4139.71 13152.1L4139.71 13152.1C4154.45 13137.4 4174.66 13134.3 4197.13 13139.2C4219.6 13144.1 4244.27 13157 4267.79 13174.2L4268.18 13174.5L4268.48 13174.1C4288.72 13148 4297.73 13114.4 4303.19 13088L4303.19 13088C4307.27 13068.1 4317.07 13049.9 4331.53 13035.4C4372.72 12994.2 4439.84 12994.2 4481.03 13035.4ZM3488.13 14104.2L3487.78 14103.8L3488.13 14104.2C3495.36 14097 3500.28 14087.9 3502.28 14078C3508.86 14046 3519.79 14005.3 3546.32 13970.9L3545.62 13970.2C3511.17 13996.7 3470.44 14007.7 3438.56 14014.2L3438.56 14014.2C3428.61 14016.3 3419.55 14021.2 3412.32 14028.4C3402.16 14038.5 3396.61 14052 3396.61 14066.3C3396.61 14080.6 3402.16 14094.1 3412.32 14104.2C3433.27 14125.1 3467.19 14125.1 3488.13 14104.2ZM4327.48 13340L4327.57 13339.9L4327.6 13339.8C4327.92 13338.8 4327.98 13337.3 4327.78 13335.4C4327.57 13333.5 4327.11 13331.2 4326.34 13328.4C4324.8 13322.9 4322.05 13315.7 4317.77 13307.3C4309.21 13290.5 4294.53 13268.7 4271.15 13245.4C4250.06 13224.3 4230.26 13210.3 4214.13 13201.5C4198.01 13192.8 4185.5 13189.3 4178.99 13189.3C4177.61 13189.3 4176.45 13189.4 4175.55 13189.8L4175.45 13189.8L4175.37 13189.9L3529.03 13836.5L3528.94 13836.6L3528.9 13836.7C3528.59 13837.7 3528.53 13839.2 3528.73 13841.1C3528.94 13843 3529.4 13845.3 3530.17 13848.1C3531.71 13853.6 3534.46 13860.8 3538.74 13869.2C3547.29 13886 3561.98 13907.8 3585.36 13931.2C3608.68 13954.5 3630.35 13969.2 3647.28 13977.7C3655.75 13982 3663.03 13984.7 3668.75 13986.1C3671.61 13986.8 3674.09 13987.2 3676.13 13987.3C3678.16 13987.4 3679.81 13987.2 3680.97 13986.7L3681.07 13986.7L3681.14 13986.6L4327.48 13340ZM4444.19 13148.1L4444.19 13148.1C4454.29 13138 4459.89 13124.5 4459.89 13110.2C4459.89 13095.9 4454.34 13082.5 4444.18 13072.3C4433.71 13061.9 4419.99 13056.6 4406.28 13056.6C4392.56 13056.6 4378.84 13061.9 4368.37 13072.3L4368.72 13072.7L4368.37 13072.3C4361.15 13079.5 4356.22 13088.6 4354.23 13098.5C4347.65 13130.5 4336.72 13171.2 4310.24 13205.6L4310.94 13206.3C4345.39 13179.8 4386.06 13168.9 4417.95 13162.3L4417.95 13162.3C4427.9 13160.2 4436.96 13155.3 4444.19 13148.1Z" fill="#FFA783" stroke="#FFA783"/>
<path d="M307.546 8492.73C307.546 8272.4 486.808 8093.13 707.138 8093.13C927.469 8093.13 1106.73 8272.4 1106.73 8492.73C1106.73 8713.06 927.469 8892.32 707.138 8892.32C486.808 8892.32 307.546 8713.06 307.546 8492.73ZM356.559 8492.73C356.559 8686.04 513.85 8843.31 707.138 8843.31C900.427 8843.31 1057.72 8686.04 1057.72 8492.73C1057.72 8299.41 900.427 8142.15 707.138 8142.15C513.85 8142.15 356.559 8299.42 356.559 8492.73Z" fill="#FFA783" stroke="#FFA783"/>
<path d="M707.138 8193.16C720.684 8193.16 731.645 8204.12 731.645 8217.67C731.645 8231.21 720.684 8242.17 707.14 8242.17C568.99 8242.17 456.582 8354.58 456.582 8492.73C456.582 8506.27 445.622 8517.24 432.076 8517.24C418.53 8517.24 407.569 8506.27 407.569 8492.73C407.569 8327.54 541.947 8193.16 707.138 8193.16Z" fill="#FFA783" stroke="#FFA783"/>
<path d="M682.631 8767.79C682.631 8754.25 693.592 8743.29 707.137 8743.29C845.288 8743.29 957.695 8630.88 957.693 8492.73C957.693 8479.19 968.654 8468.22 982.2 8468.22C995.745 8468.22 1006.71 8479.19 1006.71 8492.73C1006.71 8657.92 872.328 8792.3 707.137 8792.3C693.592 8792.3 682.631 8781.34 682.631 8767.79Z" fill="#FFA783" stroke="#FFA783"/>
<path d="M1257.76 8567.75V8567.25H1257.26H1232.26C1191.17 8567.25 1157.74 8533.82 1157.74 8492.73V8217.66C1157.74 8149 1213.58 8093.13 1282.27 8093.13C1295.81 8093.13 1306.78 8104.1 1306.78 8117.64V8867.82C1306.78 8881.36 1295.82 8892.32 1282.27 8892.32C1268.73 8892.32 1257.76 8881.36 1257.76 8867.82V8567.75ZM1257.76 8146.92V8146.21L1257.1 8146.45C1227.8 8156.85 1206.75 8184.85 1206.75 8217.67V8492.73C1206.75 8506.8 1218.21 8518.23 1232.26 8518.23H1256.76H1257.26H1257.26V8517.73H1257.76V8146.92Z" fill="#FFA783" stroke="#FFA783"/>
<path d="M306.545 8117.64V8118.14H306.547V8342.69C306.547 8388.93 274.701 8427.55 231.904 8438.68L231.53 8438.78V8439.16V8867.82C231.53 8881.36 220.569 8892.32 207.024 8892.32C193.478 8892.32 182.517 8881.36 182.517 8867.82V8439.16V8438.78L182.143 8438.68C139.346 8427.55 107.5 8388.93 107.5 8342.69V8117.64C107.5 8104.1 118.461 8093.13 132.004 8093.13C145.55 8093.13 156.511 8104.1 156.511 8117.64V8342.69C156.511 8361.17 166.959 8376.64 181.762 8385.45L182.517 8385.9V8385.02V8117.64C182.517 8104.1 193.478 8093.13 207.021 8093.13C220.567 8093.13 231.528 8104.1 231.528 8117.64V8385.02V8385.9L232.283 8385.45C247.086 8376.64 257.534 8361.17 257.534 8342.69V8117.64C257.534 8104.1 268.495 8093.13 282.038 8093.13C295.584 8093.13 306.545 8104.1 306.545 8117.64Z" fill="#FFA783" stroke="#FFA783"/>
<path d="M4112.1 9439.9L4112.03 9440.32L4112.43 9440.46C4141.22 9450.33 4162.1 9477.36 4162.1 9509.45C4162.1 9540.62 4142.44 9567.11 4114.92 9577.66L4114.57 9577.8L4114.6 9578.17L4162.03 10171C4162.09 10226.9 4118.23 10270.7 4064.31 10270.7H3671.14C3617.22 10270.7 3573.36 10226.9 3573.35 10172.9L3620.85 9578.17L3620.88 9577.8L3620.53 9577.66C3593.02 9567.11 3573.35 9540.62 3573.35 9509.45C3573.35 9477.36 3594.23 9450.33 3623.02 9440.46L3623.42 9440.32L3623.35 9439.9C3623.25 9439.35 3623.1 9438.82 3622.96 9438.31C3622.91 9438.12 3622.86 9437.94 3622.81 9437.76C3622.64 9437.08 3622.5 9436.42 3622.5 9435.73C3622.5 9300.52 3732.52 9190.5 3867.73 9190.5C4002.94 9190.5 4112.95 9300.52 4112.95 9435.73C4112.95 9436.42 4112.82 9437.08 4112.64 9437.76C4112.59 9437.94 4112.54 9438.12 4112.49 9438.31C4112.35 9438.82 4112.2 9439.35 4112.1 9439.9ZM3844.14 9241.53L3844.09 9241.02L3843.58 9241.09C3746.4 9253.15 3670.64 9335.32 3670.64 9435.73V9436.23H3671.14H4064.31H4064.81V9435.73C4064.81 9335.32 3989.06 9253.15 3891.87 9241.09L3891.36 9241.02L3891.31 9241.53C3890.06 9253.66 3880.16 9263.22 3867.73 9263.22C3855.29 9263.22 3845.4 9253.66 3844.14 9241.53ZM3621.43 10174.8L3621.43 10174.9L3621.43 10174.9C3621.5 10200.3 3643.79 10222.6 3671.14 10222.6H4064.31C4091.68 10222.6 4113.95 10200.3 4113.95 10172.9V10172.9L4113.95 10172.9L4066.69 9583.13L4066.65 9582.67H4066.19H3669.26H3668.8L3668.76 9583.13L3621.43 10174.8ZM3646.57 9534.52H4088.88C4102.71 9534.52 4113.95 9523.28 4113.95 9509.45C4113.95 9495.61 4102.71 9484.37 4088.88 9484.37H3646.57C3632.74 9484.37 3621.5 9495.61 3621.5 9509.45C3621.5 9523.28 3632.74 9534.52 3646.57 9534.52Z" fill="#FFA783" stroke="#FFA783"/>
<path d="M3842.65 9312.86C3842.65 9326.16 3831.88 9336.94 3818.58 9336.94C3805.28 9336.94 3794.51 9326.16 3794.51 9312.86C3794.51 9299.57 3805.28 9288.79 3818.58 9288.79C3831.88 9288.79 3842.65 9299.57 3842.65 9312.86Z" fill="#FFA783" stroke="#FFA783"/>
<path d="M3940.94 9312.86C3940.94 9326.16 3930.17 9336.94 3916.87 9336.94C3903.58 9336.94 3892.8 9326.16 3892.8 9312.86C3892.8 9299.57 3903.58 9288.79 3916.87 9288.79C3930.17 9288.79 3940.94 9299.57 3940.94 9312.86Z" fill="#FFA783" stroke="#FFA783"/>
<path d="M3818.58 9926.69H3818.08V9927.19V10050.1C3818.08 10063.4 3807.31 10074.1 3794.01 10074.1C3780.7 10074.1 3769.93 10063.4 3769.93 10050.1V9755.18C3769.93 9741.87 3780.7 9731.1 3794.01 9731.1H3867.73C3921.66 9731.1 3965.52 9774.96 3965.52 9828.89C3965.52 9882.83 3921.66 9926.69 3867.73 9926.69H3818.58ZM3818.08 9878.04V9878.54H3818.58H3867.73C3895.09 9878.54 3917.37 9856.26 3917.37 9828.89C3917.37 9801.53 3895.09 9779.25 3867.73 9779.25H3818.58H3818.08V9779.75V9878.04Z" fill="#FFA783" stroke="#FFA783"/>
<path d="M3040.51 4050.19H3062.41C3074.51 4050.19 3084.3 4039.77 3084.3 4026.9C3084.3 4014.03 3074.51 4003.61 3062.41 4003.61H3040.51C3016.35 4003.61 2996.72 3982.71 2996.72 3957.04V3933.75C2996.72 3920.88 2986.93 3910.46 2974.83 3910.46C2962.73 3910.46 2952.94 3920.88 2952.94 3933.75V3957.04C2952.94 4008.41 2992.24 4050.19 3040.51 4050.19Z" fill="#FFA783"/>
<path d="M3040.51 4050.19H3062.41C3074.51 4050.19 3084.3 4039.77 3084.3 4026.9C3084.3 4014.03 3074.51 4003.61 3062.41 4003.61H3040.51C3016.35 4003.61 2996.72 3982.71 2996.72 3957.04V3933.75C2996.72 3920.88 2986.93 3910.46 2974.83 3910.46C2962.73 3910.46 2952.94 3920.88 2952.94 3933.75V3957.04C2952.94 4008.41 2992.24 4050.19 3040.51 4050.19Z" stroke="#FFA783"/>
<path d="M3741.11 3584.44H3653.53V3561.16C3653.53 3471.28 3584.77 3398.15 3500.28 3398.15H3321.1C3323.55 3390.83 3325.13 3383.07 3325.13 3374.86C3325.13 3336.34 3295.67 3305 3259.45 3305C3223.23 3305 3193.77 3336.34 3193.77 3374.86C3193.77 3383.07 3195.35 3390.83 3197.8 3398.15H3018.62C2934.12 3398.15 2865.36 3471.28 2865.36 3561.16V3584.44H2777.79C2753.63 3584.44 2734 3605.34 2734 3631.02V3651.03C2734 3690.05 2752.22 3726.26 2782.75 3747.91L2865.36 3806.49V3980.32C2865.36 4070.2 2934.12 4143.33 3018.62 4143.33H3500.28C3584.77 4143.33 3653.53 4070.2 3653.53 3980.32V3806.49L3736.15 3747.91C3766.68 3726.26 3784.9 3690.05 3784.9 3651.03V3631.02C3784.9 3605.34 3765.27 3584.44 3741.11 3584.44ZM2865.36 3750.52L2807.04 3709.16C2788.73 3696.17 2777.79 3674.43 2777.79 3651.03V3631.02H2865.36V3750.52ZM3259.45 3351.57C3271.51 3351.57 3281.34 3362.01 3281.34 3374.86C3281.34 3387.71 3271.51 3398.15 3259.45 3398.15C3247.39 3398.15 3237.55 3387.71 3237.55 3374.86C3237.55 3362.01 3247.39 3351.57 3259.45 3351.57ZM3018.62 3444.72H3500.28C3553.16 3444.72 3597.36 3484.79 3607.54 3537.87H2911.36C2921.53 3484.79 2965.74 3444.72 3018.62 3444.72ZM3609.75 3980.32C3609.75 4044.52 3560.66 4096.76 3500.28 4096.76H3018.62C2958.24 4096.76 2909.15 4044.52 2909.15 3980.32V3584.44H3609.75V3980.32ZM3741.11 3651.03C3741.11 3674.43 3730.16 3696.17 3711.86 3709.16L3653.53 3750.52V3631.02H3741.11V3651.03Z" fill="#FFA783"/>
<path d="M3741.11 3584.44H3653.53V3561.16C3653.53 3471.28 3584.77 3398.15 3500.28 3398.15H3321.1C3323.55 3390.83 3325.13 3383.07 3325.13 3374.86C3325.13 3336.34 3295.67 3305 3259.45 3305C3223.23 3305 3193.77 3336.34 3193.77 3374.86C3193.77 3383.07 3195.35 3390.83 3197.8 3398.15H3018.62C2934.12 3398.15 2865.36 3471.28 2865.36 3561.16V3584.44H2777.79C2753.63 3584.44 2734 3605.34 2734 3631.02V3651.03C2734 3690.05 2752.22 3726.26 2782.75 3747.91L2865.36 3806.49V3980.32C2865.36 4070.2 2934.12 4143.33 3018.62 4143.33H3500.28C3584.77 4143.33 3653.53 4070.2 3653.53 3980.32V3806.49L3736.15 3747.91C3766.68 3726.26 3784.9 3690.05 3784.9 3651.03V3631.02C3784.9 3605.34 3765.27 3584.44 3741.11 3584.44ZM2865.36 3750.52L2807.04 3709.16C2788.73 3696.17 2777.79 3674.43 2777.79 3651.03V3631.02H2865.36V3750.52ZM3259.45 3351.57C3271.51 3351.57 3281.34 3362.01 3281.34 3374.86C3281.34 3387.71 3271.51 3398.15 3259.45 3398.15C3247.39 3398.15 3237.55 3387.71 3237.55 3374.86C3237.55 3362.01 3247.39 3351.57 3259.45 3351.57ZM3018.62 3444.72H3500.28C3553.16 3444.72 3597.36 3484.79 3607.54 3537.87H2911.36C2921.53 3484.79 2965.74 3444.72 3018.62 3444.72ZM3609.75 3980.32C3609.75 4044.52 3560.66 4096.76 3500.28 4096.76H3018.62C2958.24 4096.76 2909.15 4044.52 2909.15 3980.32V3584.44H3609.75V3980.32ZM3741.11 3651.03C3741.11 3674.43 3730.16 3696.17 3711.86 3709.16L3653.53 3750.52V3631.02H3741.11V3651.03Z" stroke="#FFA783"/>
<path d="M2627.6 15496.4L2592.24 15463.6C2569.81 15442.8 2530.46 15442.8 2508.05 15463.6L2158.48 15787.6L2200.2 15826.2L2077.5 15940C2076.14 15940.1 2074.79 15940.3 2073.44 15940.6C2072.76 15940.7 2072.09 15940.8 2071.41 15940.9C1949.42 15914.8 1795.18 15978.8 1600.4 16136.7C1568.06 16162.9 1530.79 16193.7 1497.84 16227.8C1412.97 16315.4 1406.91 16445.1 1484.29 16516.8C1520.63 16550.4 1570.7 16567 1623.42 16567C1682.96 16567 1745.87 16545.8 1796.03 16504.2C1832.62 16473.7 1865.93 16439.1 1894.26 16409.1C1963.95 16335.2 2016.07 16267 2053.59 16200.6C2078.51 16156.6 2094.94 16116.6 2103.79 16078.4C2108.93 16056.2 2111.32 16034.8 2110.94 16014.7L2110.87 16009.8C2110.79 15994.6 2109.9 15980.4 2106.46 15968.5L2230.07 15853.9L2278.05 15898.4L2627.6 15574.4C2638.81 15564 2645 15550.2 2645 15535.4C2645 15520.6 2638.85 15506.8 2627.6 15496.4ZM1510.59 16464.2C1511.28 16459.5 1512.32 16454.5 1514.08 16449.2C1527.96 16407.4 1561.23 16361.9 1613.08 16313.9C1640.92 16287.6 1671 16260.4 1707.76 16228.4C1784.66 16161.4 1848.87 16110.4 1909.88 16067.7L1916.3 16063.2L1916.54 16063C1943.43 16044.2 1973.74 16023 2004.68 16006.3L1510.59 16464.2ZM2033.07 16035.4C2019.28 16056.9 2003.3 16077.6 1989.52 16095.4L1987.22 16098.3C1933.36 16167.9 1872.15 16231.7 1824.82 16279.6C1784.51 16320.3 1746.36 16357.1 1708.18 16392.1C1676.86 16420.8 1649.5 16442 1622.11 16458.6C1587.74 16479.5 1560.01 16490.9 1539.23 16493.1L2033.07 16035.4ZM1529.32 16253.9C1560.68 16221.5 1596.83 16191.6 1628.24 16166.2C1766.23 16054.4 1880.6 15992 1974.64 15977.5C1944.75 15994.3 1916.3 16014.1 1890.81 16032L1884.41 16036.4C1822.18 16080 1756.84 16131.9 1678.82 16199.8C1641.62 16232.2 1611.14 16259.8 1583.05 16286.3C1530.29 16335.2 1494.97 16382.8 1477.44 16427.9C1462.1 16372.4 1479.9 16305 1529.32 16253.9ZM2016.18 16182.4C1980.22 16246 1929.94 16311.7 1862.46 16383.3C1834.94 16412.5 1802.67 16446 1767.81 16475C1712.94 16520.6 1640.52 16537.1 1580.83 16523.2C1604.46 16514.9 1626.99 16502.5 1645.28 16491.4C1675.08 16473.3 1704.52 16450.6 1737.92 16420C1776.58 16384.5 1815.2 16347.3 1856 16306C1904.11 16257.4 1966.42 16192.4 2021.57 16121.2L2023.85 16118.2C2036.28 16102.2 2050.4 16083.9 2063.48 16064.5C2063.3 16065.4 2063.17 16066.3 2063.04 16067.1C2062.9 16068.1 2062.75 16069.1 2062.51 16070.2C2054.44 16104.9 2039.28 16141.6 2016.18 16182.4ZM2313.65 15699.2L2403.33 15726.9L2391.9 15737.5L2302.21 15709.8L2313.65 15699.2ZM2218.25 15787.6L2268.81 15740.7L2358.5 15768.4L2278.05 15843L2218.25 15787.6ZM2597.72 15546.7L2436.73 15695.9L2347.04 15668.2L2537.94 15491.3C2544.39 15485.3 2555.86 15485.3 2562.33 15491.3L2597.69 15524.1C2600.93 15527.1 2602.7 15531.1 2602.7 15535.4C2602.75 15539.7 2600.97 15543.7 2597.72 15546.7Z" fill="#FFA783"/>
<path d="M2627.6 15496.4L2592.24 15463.6C2569.81 15442.8 2530.46 15442.8 2508.05 15463.6L2158.48 15787.6L2200.2 15826.2L2077.5 15940C2076.14 15940.1 2074.79 15940.3 2073.44 15940.6C2072.76 15940.7 2072.09 15940.8 2071.41 15940.9C1949.42 15914.8 1795.18 15978.8 1600.4 16136.7C1568.06 16162.9 1530.79 16193.7 1497.84 16227.8C1412.97 16315.4 1406.91 16445.1 1484.29 16516.8C1520.63 16550.4 1570.7 16567 1623.42 16567C1682.96 16567 1745.87 16545.8 1796.03 16504.2C1832.62 16473.7 1865.93 16439.1 1894.26 16409.1C1963.95 16335.2 2016.07 16267 2053.59 16200.6C2078.51 16156.6 2094.94 16116.6 2103.79 16078.4C2108.93 16056.2 2111.32 16034.8 2110.94 16014.7L2110.87 16009.8C2110.79 15994.6 2109.9 15980.4 2106.46 15968.5L2230.07 15853.9L2278.05 15898.4L2627.6 15574.4C2638.81 15564 2645 15550.2 2645 15535.4C2645 15520.6 2638.85 15506.8 2627.6 15496.4ZM1510.59 16464.2C1511.28 16459.5 1512.32 16454.5 1514.08 16449.2C1527.96 16407.4 1561.23 16361.9 1613.08 16313.9C1640.92 16287.6 1671 16260.4 1707.76 16228.4C1784.66 16161.4 1848.87 16110.4 1909.88 16067.7L1916.3 16063.2L1916.54 16063C1943.43 16044.2 1973.74 16023 2004.68 16006.3L1510.59 16464.2ZM2033.07 16035.4C2019.28 16056.9 2003.3 16077.6 1989.52 16095.4L1987.22 16098.3C1933.36 16167.9 1872.15 16231.7 1824.82 16279.6C1784.51 16320.3 1746.36 16357.1 1708.18 16392.1C1676.86 16420.8 1649.5 16442 1622.11 16458.6C1587.74 16479.5 1560.01 16490.9 1539.23 16493.1L2033.07 16035.4ZM1529.32 16253.9C1560.68 16221.5 1596.83 16191.6 1628.24 16166.2C1766.23 16054.4 1880.6 15992 1974.64 15977.5C1944.75 15994.3 1916.3 16014.1 1890.81 16032L1884.41 16036.4C1822.18 16080 1756.84 16131.9 1678.82 16199.8C1641.62 16232.2 1611.14 16259.8 1583.05 16286.3C1530.29 16335.2 1494.97 16382.8 1477.44 16427.9C1462.1 16372.4 1479.9 16305 1529.32 16253.9ZM2016.18 16182.4C1980.22 16246 1929.94 16311.7 1862.46 16383.3C1834.94 16412.5 1802.67 16446 1767.81 16475C1712.94 16520.6 1640.52 16537.1 1580.83 16523.2C1604.46 16514.9 1626.99 16502.5 1645.28 16491.4C1675.08 16473.3 1704.52 16450.6 1737.92 16420C1776.58 16384.5 1815.2 16347.3 1856 16306C1904.11 16257.4 1966.42 16192.4 2021.57 16121.2L2023.85 16118.2C2036.28 16102.2 2050.4 16083.9 2063.48 16064.5C2063.3 16065.4 2063.17 16066.3 2063.04 16067.1C2062.9 16068.1 2062.75 16069.1 2062.51 16070.2C2054.44 16104.9 2039.28 16141.6 2016.18 16182.4ZM2313.65 15699.2L2403.33 15726.9L2391.9 15737.5L2302.21 15709.8L2313.65 15699.2ZM2218.25 15787.6L2268.81 15740.7L2358.5 15768.4L2278.05 15843L2218.25 15787.6ZM2597.72 15546.7L2436.73 15695.9L2347.04 15668.2L2537.94 15491.3C2544.39 15485.3 2555.86 15485.3 2562.33 15491.3L2597.69 15524.1C2600.93 15527.1 2602.7 15531.1 2602.7 15535.4C2602.75 15539.7 2600.97 15543.7 2597.72 15546.7Z" stroke="#FFA783"/>
</svg>
