<svg width="2066" height="1377" viewBox="0 0 2066 1377" fill="none" xmlns="http://www.w3.org/2000/svg">
<path d="M1032.75 0C653.117 0 344.249 308.868 344.249 688.5C344.249 1068.13 653.117 1377 1032.75 1377C1412.38 1377 1721.25 1068.13 1721.25 688.5C1721.25 308.868 1412.38 0 1032.75 0ZM1032.75 1290.94C700.603 1290.94 430.314 1020.69 430.314 688.5C430.314 356.314 700.603 86.065 1032.75 86.065C1364.89 86.065 1635.18 356.31 1635.18 688.5C1635.18 1020.69 1364.89 1290.94 1032.75 1290.94Z" fill="#FFA783"/>
<path d="M1075.78 215.158C1075.78 191.373 1056.53 172.126 1032.75 172.126C748.004 172.126 516.374 403.756 516.374 688.5C516.374 712.285 535.621 731.532 559.406 731.532C583.192 731.532 602.439 712.285 602.439 688.5C602.439 451.238 795.49 258.187 1032.75 258.187C1056.53 258.187 1075.78 238.944 1075.78 215.158Z" fill="#FFA783"/>
<path d="M1032.75 1118.81C1008.96 1118.81 989.715 1138.06 989.715 1161.85C989.715 1185.63 1008.96 1204.88 1032.75 1204.88C1317.49 1204.88 1549.12 973.248 1549.12 688.504C1549.12 664.719 1529.87 645.472 1506.09 645.472C1482.3 645.472 1463.06 664.719 1463.06 688.504C1463.06 925.762 1270.01 1118.81 1032.75 1118.81Z" fill="#FFA783"/>
<path d="M2022.46 0C1903.79 0 1807.31 96.5256 1807.31 215.154V688.5C1807.31 759.687 1865.22 817.594 1936.4 817.594H1979.43V1333.97C1979.43 1357.75 1998.68 1377 2022.47 1377C2046.25 1377 2065.5 1357.75 2065.5 1333.97V43.0325C2065.5 19.247 2046.25 0 2022.46 0ZM1979.43 731.532H1936.4C1912.7 731.532 1893.37 712.245 1893.37 688.5V215.159C1893.37 159.059 1929.34 111.194 1979.43 93.4193V731.532H1979.43Z" fill="#FFA783"/>
<path d="M344.248 43.0325C344.248 19.247 325.001 0 301.215 0C277.434 0 258.187 19.247 258.187 43.0325V430.313C258.187 461.755 240.404 488.131 215.154 503.154V43.0325C215.154 19.247 195.907 0 172.122 0C148.341 0 129.094 19.247 129.094 43.0325V503.154C103.844 488.131 86.061 461.755 86.061 430.313V43.0325C86.061 19.247 66.814 0 43.0285 0C19.247 0 0 19.247 0 43.0325V430.313C0 510.295 55.0826 577.084 129.094 596.323V1333.97C129.094 1357.75 148.341 1377 172.126 1377C195.911 1377 215.159 1357.75 215.159 1333.97V596.323C289.169 577.08 344.252 510.29 344.252 430.313V43.0325H344.248Z" fill="#FFA783"/>
</svg>
