<svg width="1844" height="1471" viewBox="0 0 1844 1471" fill="none" xmlns="http://www.w3.org/2000/svg">
<path d="M537.828 1307.55H576.245C597.48 1307.55 614.663 1289.28 614.663 1266.69C614.663 1244.11 597.48 1225.83 576.245 1225.83H537.828C495.438 1225.83 460.996 1189.16 460.996 1144.11V1103.25C460.996 1080.66 443.813 1062.39 422.579 1062.39C401.344 1062.39 384.161 1080.66 384.161 1103.25V1144.11C384.165 1234.25 453.12 1307.55 537.828 1307.55Z" fill="#FFA783"/>
<path d="M537.828 1307.55H576.245C597.48 1307.55 614.663 1289.28 614.663 1266.69C614.663 1244.11 597.48 1225.83 576.245 1225.83H537.828C495.438 1225.83 460.996 1189.16 460.996 1144.11V1103.25C460.996 1080.66 443.813 1062.39 422.579 1062.39C401.344 1062.39 384.161 1080.66 384.161 1103.25V1144.11C384.165 1234.25 453.12 1307.55 537.828 1307.55Z" stroke="black"/>
<path d="M1767.15 490.333H1613.49V449.471C1613.49 291.771 1492.83 163.442 1344.57 163.442H1030.16C1034.47 150.601 1037.24 136.979 1037.24 122.583C1037.24 54.9863 985.545 0 921.992 0C858.439 0 806.743 54.9863 806.743 122.583C806.743 136.979 809.516 150.601 813.82 163.446H499.414C351.149 163.446 230.498 291.775 230.498 449.471V490.333H76.8315C34.4414 490.333 0 527.005 0 572.054V607.171C0 675.645 31.9636 739.17 85.5364 777.159L230.498 879.949V1184.97C230.498 1342.67 351.149 1471 499.414 1471H1344.57C1492.83 1471 1613.49 1342.67 1613.49 1184.97V879.949L1758.45 777.159C1812.02 739.17 1843.98 675.645 1843.98 607.171V572.054C1843.98 527.005 1809.55 490.333 1767.15 490.333ZM230.498 781.733L128.153 709.164C96.0384 686.379 76.8315 648.232 76.8315 607.171V572.054H230.498V781.733ZM921.992 81.7209C943.151 81.7209 960.409 100.036 960.409 122.583C960.409 145.131 943.151 163.446 921.992 163.446C900.833 163.446 883.574 145.127 883.574 122.583C883.574 100.039 900.833 81.7209 921.992 81.7209ZM499.414 245.167H1344.57C1437.36 245.167 1514.92 315.472 1532.77 408.612H311.212C329.061 315.472 406.627 245.167 499.414 245.167ZM1536.65 1184.97C1536.65 1297.62 1450.52 1389.28 1344.57 1389.28H499.414C393.467 1389.28 307.333 1297.62 307.333 1184.97V490.333H1536.65V1184.97ZM1767.15 607.171C1767.15 648.232 1747.95 686.379 1715.83 709.164L1613.49 781.733V572.054H1767.15V607.171Z" fill="#FFA783"/>
<path d="M1767.15 490.333H1613.49V449.471C1613.49 291.771 1492.83 163.442 1344.57 163.442H1030.16C1034.47 150.601 1037.24 136.979 1037.24 122.583C1037.24 54.9863 985.545 0 921.992 0C858.439 0 806.743 54.9863 806.743 122.583C806.743 136.979 809.516 150.601 813.82 163.446H499.414C351.149 163.446 230.498 291.775 230.498 449.471V490.333H76.8315C34.4414 490.333 0 527.005 0 572.054V607.171C0 675.645 31.9636 739.17 85.5364 777.159L230.498 879.949V1184.97C230.498 1342.67 351.149 1471 499.414 1471H1344.57C1492.83 1471 1613.49 1342.67 1613.49 1184.97V879.949L1758.45 777.159C1812.02 739.17 1843.98 675.645 1843.98 607.171V572.054C1843.98 527.005 1809.55 490.333 1767.15 490.333ZM230.498 781.733L128.153 709.164C96.0384 686.379 76.8315 648.232 76.8315 607.171V572.054H230.498V781.733ZM921.992 81.7209C943.151 81.7209 960.409 100.036 960.409 122.583C960.409 145.131 943.151 163.446 921.992 163.446C900.833 163.446 883.574 145.127 883.574 122.583C883.574 100.039 900.833 81.7209 921.992 81.7209ZM499.414 245.167H1344.57C1437.36 245.167 1514.92 315.472 1532.77 408.612H311.212C329.061 315.472 406.627 245.167 499.414 245.167ZM1536.65 1184.97C1536.65 1297.62 1450.52 1389.28 1344.57 1389.28H499.414C393.467 1389.28 307.333 1297.62 307.333 1184.97V490.333H1536.65V1184.97ZM1767.15 607.171C1767.15 648.232 1747.95 686.379 1715.83 709.164L1613.49 781.733V572.054H1767.15V607.171Z" stroke="black"/>
</svg>
