<svg width="2288" height="1895" viewBox="0 0 2288 1895" fill="none" xmlns="http://www.w3.org/2000/svg">
<path d="M2135.39 427.741V432.741H2140.39H2283V1767.07H1399.37H1396.76L1395.27 1769.2C1343.94 1842.5 1247.83 1889.28 1144 1889.28C1040.17 1889.28 944.058 1842.5 892.728 1769.2L891.235 1767.07H888.633H5V432.741H147.613H152.613V427.741V5H848.774C959.41 5 1065.57 43.4925 1140.71 109.236L1144 112.117L1147.29 109.236C1222.43 43.4925 1328.59 5 1439.23 5H2135.39V427.741ZM221.419 56.1058H216.419V61.1058V1344.33V1349.33H221.419H376.15C652.554 1349.33 913.39 1441.28 1103.85 1603.49L1112.1 1610.51V1599.69V891.034H1175.9V1599.69V1610.51L1184.14 1603.49C1374.65 1441.28 1635.52 1349.33 1911.85 1349.33H2066.58H2071.58V1344.33V61.1058V56.1058H2066.58H1439.23C1337.87 56.1058 1241.07 94.9821 1177.32 160.389L1175.9 161.845V163.879V819.928H1112.1V163.879V161.845L1110.68 160.389C1046.93 94.9821 950.13 56.1058 848.774 56.1058H221.419ZM295.226 1400.43H290.226V1405.43V1527.65V1532.65H295.226H518.717C679.178 1532.65 839.712 1555.49 991.27 1599.27L995.559 1590.39C824.424 1468.44 605.956 1400.43 376.15 1400.43H295.226ZM1997.77 1405.43V1400.43H1992.77H1911.85C1682.08 1400.43 1463.54 1468.44 1292.37 1590.42L1296.66 1599.3C1448.2 1555.49 1608.82 1532.65 1769.28 1532.65H1992.77H1997.77V1527.65V1405.43ZM2214.19 1715.96H2219.19V1710.96V488.846V483.846H2214.19H2140.39H2135.39V488.846V1400.43H2066.58H2061.58V1405.43V1583.75H1769.28C1558.38 1583.75 1347.23 1625.03 1158.58 1703.11L1158.57 1703.11L1144 1709.16L1129.43 1703.14C1129.42 1703.14 1129.42 1703.13 1129.42 1703.13C940.767 1625.03 729.616 1583.75 518.717 1583.75H226.419V1405.43V1400.43H221.419H152.613V488.846V483.846H147.613H73.8064H68.8064V488.846V1710.96V1715.96H73.8064H931.278L939.867 1730.86C977.456 1796.36 1057.74 1838.17 1144 1838.17C1230.26 1838.17 1310.54 1796.36 1348.17 1730.86L1356.73 1715.96H2214.19Z" fill="#FFA783" stroke="#FFA783" stroke-width="10"/>
<path d="M540.561 1169.42L540.56 1169.41L419.402 793.403C413.772 775.819 410.937 757.79 410.937 739.804V733.27C410.937 663.691 452.652 601.746 517.085 563.609L519.81 561.996L519.517 558.843L490.668 248.453C490.668 248.452 490.668 248.451 490.668 248.451C488.542 225.483 498.14 202.371 517.438 185.121L517.439 185.119C536.79 167.809 564.431 157.764 593.3 157.764C650.909 157.764 696.162 196.454 696.162 242.066V244.423V249.423H701.162H719.866C752.412 249.423 782.575 261.49 802.641 282.185C822.628 302.817 829.937 329.205 823.133 354.646L773.311 540.287L772.169 544.541L776.246 546.21C860.266 580.602 917.582 651.715 917.582 733.27V739.804C917.582 757.317 914.893 774.87 909.556 791.955L909.53 791.976L909.083 793.365L787.958 1169.41L787.957 1169.42C773.314 1214.98 722.78 1247.67 664.259 1247.67C605.738 1247.67 555.204 1214.98 540.561 1169.42ZM847.336 780.691L847.339 780.683L847.341 780.674C851.582 767.341 853.775 753.568 853.775 739.804V733.27C853.775 645.437 767.832 575.505 664.259 575.505C573.402 575.505 496.447 629.156 478.618 701.52L477.091 707.717H483.473H659.259V758.822H482.32H476.283L477.407 764.754C478.385 769.912 479.494 775.329 481.215 780.711L481.218 780.72L495.94 826.46L497.056 829.928H500.699H585.453V881.034H520.412H513.551L515.652 887.565L535.311 948.671L536.427 952.14H540.071H659.259V1003.25H559.748H552.885L554.989 1009.78L602.307 1156.74L602.31 1156.75C610.066 1180.7 635.833 1196.56 664.259 1196.56C692.685 1196.56 718.452 1180.7 726.209 1156.75L726.211 1156.74L847.336 780.691ZM706.846 527.588L711.224 528.202L712.37 523.933L760.676 344.015C760.677 344.011 760.678 344.007 760.679 344.004C763.646 333.052 760.371 321.891 752.221 313.483C744.154 305.123 732.309 300.529 719.866 300.529H701.126H696.126V305.529V521.816V526.229L700.505 526.777C701.04 526.844 701.569 526.91 702.092 526.974C703.709 527.174 705.277 527.368 706.846 527.588ZM554.318 244.697L554.319 244.707L580.861 530.007L581.409 535.896L587.125 534.376C600.195 530.9 613.921 528.506 627.956 526.81L632.356 526.278V521.846V242.066C632.356 222.917 613.912 208.87 593.3 208.87C582.558 208.87 572.49 212.449 564.943 219.179L564.938 219.184C557.364 225.957 553.439 235.037 554.318 244.697Z" fill="#FFA783" stroke="#FFA783" stroke-width="10"/>
<path d="M1559.93 682.32C1578 679.372 1591.84 665.234 1591.84 647.906V371.635H1655.64V489.637V498.675L1663.3 493.873C1693.44 474.967 1730.62 463.293 1771.35 463.293H1877.06V488.846C1877.06 569.472 1797.45 636.611 1697.55 636.611H1660.64H1655.64V641.611V647.877C1655.64 688.413 1621.35 724.407 1572.61 732.363L1572.61 732.363C1450.35 752.353 1360.42 842.158 1360.42 947.14C1360.42 1009.77 1392.83 1069.35 1448.72 1110.68C1505.32 1152.56 1578.43 1171.87 1654.39 1164.53C1772.1 1153.55 1869.56 1074.93 1884.79 976.293C1900.02 877.934 1834.88 784.203 1727.58 745.906L1750.85 698.297C1886.43 745.536 1966.74 862.129 1948.15 982.524C1929.49 1103.07 1809.53 1201.52 1661.76 1215.33C1649.34 1216.48 1636.9 1217.06 1624.52 1217.06H1624.51C1543.82 1217.09 1465.62 1192.71 1405.51 1148.25M1559.93 682.32L1559.12 677.385L1559.93 682.32C1559.93 682.32 1559.93 682.32 1559.93 682.32ZM1559.93 682.32C1406.66 707.34 1296.61 819.218 1296.61 947.14C1296.61 1023.56 1336.14 1096.9 1405.51 1148.25M1405.51 1148.25C1405.51 1148.25 1405.51 1148.25 1405.51 1148.25L1402.58 1152.22L1405.51 1148.25ZM1806.55 521.369L1809.53 514.399H1801.95H1771.35C1721.6 514.399 1678.53 540.808 1662.36 578.535L1659.37 585.505H1666.95H1697.55C1747.3 585.505 1790.38 559.096 1806.55 521.369Z" fill="#FFA783" stroke="#FFA783" stroke-width="10"/>
<path d="M1628.74 850.571V799.432C1724.23 801.581 1800 865.097 1803.16 942.14H1739.3C1736.25 891.833 1687.45 852.685 1628.74 850.571Z" fill="#FFA783" stroke="#FFA783" stroke-width="10"/>
<path d="M1702.55 127.212H1987.77V178.317H1702.55V127.212Z" fill="#FFA783" stroke="#FFA783" stroke-width="10"/>
<path d="M1702.55 249.423H1987.77V300.529H1702.55V249.423Z" fill="#FFA783" stroke="#FFA783" stroke-width="10"/>
</svg>
