<svg width="1762" height="1763" viewBox="0 0 1762 1763" fill="none" xmlns="http://www.w3.org/2000/svg">
<path d="M1715.08 46.8636C1652.66 -15.6337 1550.98 -15.5962 1488.57 46.8261C1466.67 68.7285 1451.81 96.2999 1445.63 126.571C1437.41 166.37 1423.85 216.763 1393.43 256.014C1322.42 204.25 1244.26 177.843 1199.33 222.86L222.91 1199.32C177.994 1244.27 204.338 1322.48 256.045 1393.47C216.757 1423.93 166.431 1437.46 126.553 1445.64C96.2858 1451.9 68.752 1466.76 46.9322 1488.62C16.6577 1518.86 0 1559.1 0 1601.89C0 1644.67 16.6615 1684.92 46.9284 1715.15C78.1377 1746.4 119.198 1762 160.184 1762C201.169 1762 242.229 1746.4 273.439 1715.19C295.337 1693.28 310.2 1665.71 316.38 1635.44C324.602 1595.64 338.159 1545.25 368.579 1506C414.228 1539.26 462.808 1562.19 503.703 1562.19C526.386 1562.19 546.645 1555.19 562.675 1539.15L1539.09 562.689C1584.01 517.743 1557.67 439.534 1505.96 368.545C1545.25 338.079 1595.57 324.556 1635.45 316.372C1665.72 310.113 1693.25 295.254 1715.07 273.389C1745.34 243.118 1762 202.914 1762 160.126C1762 117.301 1745.35 77.0968 1715.08 46.8636ZM237.927 1619.3C234.954 1634.12 227.603 1647.66 216.809 1658.45C185.525 1689.66 134.842 1689.66 103.554 1658.45C88.3793 1643.32 80.0899 1623.21 80.0899 1601.82C80.0899 1580.43 88.3793 1560.33 103.554 1545.2C114.348 1534.44 127.878 1527.13 142.737 1524.04C190.841 1514.15 252.392 1497.65 304.483 1457.48C264.365 1509.53 247.861 1571.08 237.927 1619.3ZM1482.47 506.082L507.844 1481.18C494.937 1486.34 434.715 1467.76 364.476 1397.53C294.083 1327.17 276.093 1266.44 279.536 1255.92L1254.16 280.826C1255.41 280.357 1257.06 280.12 1259.09 280.12C1278.33 280.12 1334.02 300.964 1397.53 364.475C1467.92 434.83 1485.91 495.563 1482.47 506.082ZM1658.45 216.808C1647.66 227.564 1634.13 234.878 1619.26 237.964C1571.16 247.856 1509.68 264.36 1457.59 304.444C1497.64 252.391 1514.14 190.878 1524.07 142.699C1527.05 127.877 1534.4 114.347 1545.19 103.553C1560.83 87.9504 1581.33 80.1265 1601.82 80.1265C1622.31 80.1265 1642.8 87.9466 1658.44 103.553C1673.62 118.687 1681.91 138.787 1681.91 160.179C1681.91 181.571 1673.55 201.675 1658.45 216.808Z" fill="#FFA783"/>
</svg>
