<svg width="995" height="1825" viewBox="0 0 995 1825" fill="none" xmlns="http://www.w3.org/2000/svg">
<path d="M995 538.96C995 484.449 959.53 438.531 910.635 421.771C911.074 419.346 912.081 417.134 912.081 414.585C912.081 185.995 726.087 0 497.502 0C268.917 0 82.9189 185.995 82.9189 414.585C82.9189 417.134 83.9256 419.346 84.3648 421.771C35.4739 438.535 0 484.449 0 538.96C0 591.916 33.4101 636.921 80.1438 654.835L0 1658.34C0 1749.8 74.3721 1824.17 165.834 1824.17H829.166C920.624 1824.17 995 1749.8 994.876 1655.02L914.86 654.838C961.594 636.921 995 591.916 995 538.96ZM456.874 87.0275C459.031 107.899 476.067 124.375 497.502 124.375C518.937 124.375 535.973 107.895 538.13 87.0275C701.69 107.336 829.166 245.617 829.166 414.585H165.834C165.834 245.617 293.314 107.336 456.874 87.0275ZM829.166 1741.25H165.834C120.126 1741.25 82.919 1704.04 82.7946 1661.65L162.659 663.335H832.341L912.081 1658.34C912.081 1704.04 874.874 1741.25 829.166 1741.25ZM870.626 580.416H124.378C101.505 580.416 82.9189 561.833 82.9189 538.956C82.9189 516.079 101.501 497.5 124.378 497.5H870.626C893.499 497.5 912.085 516.083 912.085 538.96C912.085 561.837 893.499 580.416 870.626 580.416Z" fill="#FFA783"/>
<path d="M414.583 248.75C437.481 248.75 456.043 230.188 456.043 207.291C456.043 184.393 437.481 165.831 414.583 165.831C391.686 165.831 373.124 184.393 373.124 207.291C373.124 230.188 391.686 248.75 414.583 248.75Z" fill="#FFA783"/>
<path d="M580.418 248.75C603.315 248.75 621.877 230.188 621.877 207.291C621.877 184.393 603.315 165.831 580.418 165.831C557.52 165.831 538.958 184.393 538.958 207.291C538.958 230.188 557.52 248.75 580.418 248.75Z" fill="#FFA783"/>
<path d="M497.501 912.086H373.126C350.21 912.086 331.667 930.629 331.667 953.546V1451.05C331.667 1473.96 350.21 1492.51 373.126 1492.51C396.043 1492.51 414.586 1473.96 414.586 1451.05V1243.75H497.501C588.959 1243.75 663.335 1169.38 663.335 1077.92C663.335 986.454 588.959 912.086 497.501 912.086ZM497.501 1160.84H414.586V995.001H497.501C543.209 995.001 580.416 1032.21 580.416 1077.92C580.416 1123.63 543.209 1160.84 497.501 1160.84Z" fill="#FFA783"/>
</svg>
