<svg width="2027" height="2064" viewBox="0 0 2027 2064" fill="none" xmlns="http://www.w3.org/2000/svg">
<path d="M2026.1 1500.76H1800.98V692.546C1800.98 507.497 1724.59 326.013 1591.32 194.618C1461.72 66.787 1293.48 -1.87458 1116.5 0.0389398C749.144 4.99158 450.259 307.891 450.259 675.324V836.698C348.242 762.783 209.493 760.494 110.553 836.285C46.0186 885.699 5.98478 960.514 0.61942 1041.44C-4.74594 1122.64 24.9324 1201.99 82.338 1259.4C84.3641 1261.39 284.796 1458.48 393.529 1561.06C429.586 1595.13 450.259 1643.23 450.259 1693.05V1763.44V2063.6H1800.98V1763.44V1725.92H2026.1V1500.76V1500.76ZM1725.94 1988.52H525.299V1838.44H1725.94V1988.52ZM1725.94 1763.4H525.299V1693.02C525.299 1622.67 496.071 1554.64 445.044 1506.47C336.874 1404.38 136.967 1207.85 135.166 1206.08C93.3314 1164.21 71.5698 1105.98 75.5094 1046.36C79.449 986.14 108.114 932.674 156.177 895.829C237.671 833.396 356.872 844.127 433.488 920.705C438.966 926.183 445.569 929.747 452.473 932.449L583.568 1051.31C590.734 1057.8 599.777 1061.03 608.781 1061.03C618.987 1061.03 629.155 1056.9 636.584 1048.72C650.466 1033.38 649.34 1009.63 633.995 995.707L523.386 895.416C524.399 891.289 525.262 887.087 525.262 882.697V675.324C525.262 348.712 790.941 79.4313 1117.48 75.079C1273.11 72.2274 1423.42 134.361 1538.6 248.009C1657.65 365.446 1725.9 527.458 1725.9 692.546V1500.76V1725.88V1763.4H1725.94ZM1951.06 1650.84H1800.98V1575.8H1951.06V1650.84Z" fill="#FFA783"/>
<path d="M1039.58 1361.67L972.348 1294.4L1039.58 1227.13L986.53 1174.07L919.257 1241.35L851.983 1174.07L798.93 1227.13L866.204 1294.4L798.93 1361.67L851.983 1414.73L919.257 1347.45L986.53 1414.73L1039.58 1361.67Z" fill="#FFA783"/>
<path d="M1399.26 1414.73L1452.31 1361.67L1385.07 1294.4L1452.31 1227.13L1399.26 1174.07L1331.98 1241.35L1264.71 1174.07L1211.66 1227.13L1278.93 1294.4L1211.66 1361.67L1264.71 1414.73L1331.98 1347.45L1399.26 1414.73Z" fill="#FFA783"/>
<path d="M836.451 1474.24L769.177 1541.51L701.904 1474.24L648.851 1527.29L716.124 1594.56L648.851 1661.84L701.904 1714.89L769.177 1647.62L836.451 1714.89L889.504 1661.84L822.268 1594.56L889.504 1527.29L836.451 1474.24Z" fill="#FFA783"/>
<path d="M1211.66 1474.24L1144.38 1541.51L1077.11 1474.24L1024.06 1527.29L1091.33 1594.56L1024.06 1661.84L1077.11 1714.89L1144.38 1647.62L1211.66 1714.89L1264.71 1661.84L1197.47 1594.56L1264.71 1527.29L1211.66 1474.24Z" fill="#FFA783"/>
<path d="M1586.85 1474.24L1519.58 1541.51L1452.31 1474.24L1399.25 1527.29L1466.53 1594.56L1399.25 1661.84L1452.31 1714.89L1519.58 1647.62L1586.85 1714.89L1639.91 1661.84L1572.67 1594.56L1639.91 1527.29L1586.85 1474.24Z" fill="#FFA783"/>
</svg>
